<svg width="320" height="659" viewBox="0 0 320 659" fill="none" xmlns="http://www.w3.org/2000/svg">
<g opacity="0.3">
<g filter="url(#filter0_f)">
<path d="M0.0293579 331.566H0.405304L13.3615 344.744L26.3176 331.566H27.0722L40.0257 344.744L52.9818 331.566H53.7364L66.6899 344.744L79.6461 331.566H80.4006L93.3541 344.744L106.31 331.566H107.065L120.018 344.744L132.974 331.566H133.729L146.683 344.744L159.639 331.566H160.393L173.347 344.744L186.303 331.566H187.058L200.011 344.744L212.967 331.566H213.722L226.675 344.744L239.631 331.566H240.386L253.339 344.744L266.296 331.566H267.05L280.004 344.744L292.96 331.566H293.714L306.668 344.744L319.624 331.566H320V331.949L307.044 345.126L320 358.303V386.19L307.044 399.365L320 412.542V440.429L307.044 453.604L320 466.781V494.668L307.044 507.843L320 521.02V548.907L307.044 562.082L320 575.259V603.146L307.044 616.321L320 629.498V657H319.624L319.733 656.889V630.537L307.044 643.44L293.712 657H292.957L279.625 643.44L266.936 630.534V656.886L267.045 656.997H266.29L266.4 656.886V630.534L253.71 643.44L240.378 657H239.623L226.291 643.44L213.602 630.534V656.886L213.711 656.997H212.956L213.066 656.886V630.534L200.376 643.44L187.044 657H186.29L172.957 643.44L160.268 630.534V656.886L160.377 656.997H159.623L159.732 656.886V630.534L147.043 643.44L133.71 657H132.956L119.624 643.44L106.934 630.534V656.886L107.044 656.997H106.289L106.398 656.886V630.534L93.7088 643.44L80.3766 657H79.622L66.2899 643.44L53.6004 630.534V656.886L53.7097 656.997H52.9552L53.0645 656.886V630.534L40.375 643.44L27.0429 657H26.2883L12.9561 643.44L0.266663 630.534V656.886L0.376007 656.997H3.05176e-05V629.496L12.9561 616.318L3.05176e-05 603.141V575.259L12.9855 562.082L0.0293579 548.905V521.02L12.9855 507.843L0.0293579 494.666V466.781L12.9855 453.604L0.0293579 440.427V412.542L12.9855 399.365L0.0293579 386.188V358.303L12.9855 345.126L0.0293579 331.949V331.566ZM40.0257 561.7L53.0912 548.411V522.059L40.4016 534.965L27.0695 548.525L40.0257 561.7ZM26.9602 549.176V575.528L40.0257 588.816L52.9818 575.642L39.6497 562.082L26.9602 549.176ZM292.96 548.522L279.628 534.962L266.938 522.056V548.408L280.004 561.697L292.96 548.522ZM267.048 575.642L280.004 588.819L293.069 575.531V549.179L280.38 562.082L267.048 575.642ZM79.6461 494.283L66.3139 480.724L53.6244 467.817V494.169L66.6899 507.458L79.6461 494.283ZM53.7337 521.403L66.6899 534.58L79.7554 521.292V494.94L67.0659 507.843L53.7337 521.403ZM53.6244 439.933L66.6899 453.222L79.6461 440.044L66.3139 426.485L53.6244 413.578V439.933ZM53.3578 440.427L40.4016 453.604L53.3578 466.781L66.3139 453.604L53.3578 440.427ZM67.0659 453.604L53.7337 467.164L66.6899 480.341L79.7554 467.053V440.701L67.0659 453.604ZM67.0659 480.724L80.022 493.901L92.9782 480.724L80.022 467.546L67.0659 480.724ZM92.9782 507.843L80.2887 494.937V521.289L93.3541 534.577L106.31 521.403L92.9782 507.843ZM93.3541 507.461L106.42 494.172V467.82L93.7301 480.724L80.398 494.283L93.3541 507.461ZM80.2887 467.053L93.3541 480.341L106.31 467.164L92.9782 453.604L80.2887 440.698V467.053ZM93.3541 453.222L106.42 439.933V413.581L93.7301 426.485L80.398 440.044L93.3541 453.222ZM93.7301 453.604L106.686 466.781L119.642 453.604L106.686 440.427L93.7301 453.604ZM132.974 494.283L119.642 480.724L106.953 467.817V494.169L120.018 507.458L132.974 494.283ZM107.062 521.403L120.018 534.58L133.084 521.292V494.94L120.394 507.843L107.062 521.403ZM106.953 439.933L120.018 453.222L132.974 440.044L119.642 426.485L106.953 413.578V439.933ZM120.394 453.604L107.062 467.164L120.018 480.341L133.084 467.053V440.701L120.394 453.604ZM120.394 480.724L133.35 493.901L146.307 480.724L133.35 467.546L120.394 480.724ZM146.307 507.843L133.617 494.937V521.289L146.683 534.577L159.639 521.403L146.307 507.843ZM146.683 507.461L159.748 494.172V467.82L147.059 480.724L133.726 494.283L146.683 507.461ZM133.617 467.053L146.683 480.341L159.639 467.164L146.307 453.604L133.617 440.698V467.053ZM146.683 453.222L159.748 439.933V413.581L147.059 426.485L133.726 440.044L146.683 453.222ZM147.059 453.604L160.015 466.781L172.971 453.604L160.015 440.427L147.059 453.604ZM186.303 494.283L172.971 480.724L160.281 467.817V494.169L173.347 507.458L186.303 494.283ZM160.391 521.403L173.347 534.58L186.412 521.292V494.94L173.723 507.843L160.391 521.403ZM160.281 439.933L173.347 453.222L186.303 440.044L172.971 426.485L160.281 413.578V439.933ZM173.723 453.604L160.391 467.164L173.347 480.341L186.412 467.053V440.701L173.723 453.604ZM173.723 480.724L186.679 493.901L199.635 480.724L186.679 467.546L173.723 480.724ZM199.635 507.843L186.946 494.937V521.289L200.011 534.577L212.967 521.403L199.635 507.843ZM200.011 507.461L213.076 494.172V467.82L200.387 480.724L187.055 494.283L200.011 507.461ZM186.946 467.053L200.011 480.341L212.967 467.164L199.635 453.604L186.946 440.698V467.053ZM200.011 453.222L213.076 439.933V413.581L200.387 426.485L187.055 440.044L200.011 453.222ZM200.387 453.604L213.343 466.781L226.299 453.604L213.343 440.427L200.387 453.604ZM239.631 494.283L226.299 480.724L213.61 467.817V494.169L226.675 507.458L239.631 494.283ZM213.719 521.403L226.675 534.58L239.741 521.292V494.94L227.051 507.843L213.719 521.403ZM213.61 439.933L226.675 453.222L239.631 440.044L226.299 426.485L213.61 413.578V439.933ZM227.051 453.604L213.719 467.164L226.675 480.341L239.741 467.053V440.701L227.051 453.604ZM227.051 480.724L240.007 493.901L252.963 480.724L240.007 467.546L227.051 480.724ZM252.963 507.843L240.274 494.937V521.289L253.339 534.577L266.296 521.403L252.963 507.843ZM253.339 507.461L266.405 494.172V467.82L253.715 480.724L240.383 494.283L253.339 507.461ZM240.274 467.053L253.339 480.341L266.296 467.164L252.963 453.604L240.274 440.698V467.053ZM253.339 453.222L266.405 439.933V413.581L253.715 426.485L240.383 440.044L253.339 453.222ZM253.715 453.604L266.672 466.781L279.628 453.604L266.672 440.427L253.715 453.604ZM266.938 439.933L280.004 453.222L292.96 440.044L279.628 426.485L266.938 413.578V439.933ZM280.38 453.604L267.048 467.164L280.004 480.341L293.069 467.053V440.701L280.38 453.604ZM279.628 480.724L266.938 467.817V494.169L280.004 507.458L292.96 494.283L279.628 480.724ZM280.38 507.843L267.048 521.403L280.004 534.58L293.069 521.292V494.94L280.38 507.843ZM279.628 507.843L266.672 494.666L253.715 507.843L266.672 521.02L279.628 507.843ZM266.405 522.056L253.715 534.962L240.383 548.522L253.339 561.7L266.405 548.411V522.056ZM252.963 562.082L240.274 549.176V575.528L253.339 588.816L266.296 575.642L252.963 562.082ZM252.963 534.962L240.007 521.785L227.051 534.962L240.007 548.14L252.963 534.962ZM239.741 549.176L227.051 562.082L213.719 575.642L226.675 588.819L239.741 575.531V549.176ZM239.631 548.522L226.299 534.962L213.61 522.056V548.408L226.675 561.697L239.631 548.522ZM226.299 507.843L213.343 494.666L200.387 507.843L213.343 521.02L226.299 507.843ZM213.076 522.056L200.387 534.962L187.055 548.522L200.011 561.7L213.076 548.411V522.056ZM199.635 562.082L186.946 549.176V575.528L200.011 588.816L212.967 575.642L199.635 562.082ZM199.635 534.962L186.679 521.785L173.723 534.962L186.679 548.14L199.635 534.962ZM186.412 549.176L173.723 562.082L160.391 575.642L173.347 588.819L186.412 575.531V549.176ZM186.303 548.522L172.971 534.962L160.281 522.056V548.408L173.347 561.697L186.303 548.522ZM172.971 507.843L160.015 494.666L147.059 507.843L160.015 521.02L172.971 507.843ZM159.748 522.056L147.059 534.962L133.726 548.522L146.683 561.7L159.748 548.411V522.056ZM146.307 562.082L133.617 549.176V575.528L146.683 588.816L159.639 575.642L146.307 562.082ZM146.307 534.962L133.35 521.785L120.394 534.962L133.35 548.14L146.307 534.962ZM133.084 549.176L120.394 562.082L107.062 575.642L120.018 588.819L133.084 575.531V549.176ZM132.974 548.522L119.642 534.962L106.953 522.056V548.408L120.018 561.697L132.974 548.522ZM119.642 507.843L106.686 494.666L93.7301 507.843L106.686 521.02L119.642 507.843ZM106.42 522.056L93.7301 534.962L80.398 548.522L93.3541 561.7L106.42 548.411V522.056ZM92.9782 562.082L80.2887 549.176V575.528L93.3541 588.816L106.31 575.642L92.9782 562.082ZM92.9782 534.962L80.022 521.785L67.0659 534.962L80.022 548.14L92.9782 534.962ZM79.7554 549.176L67.0659 562.082L53.7337 575.642L66.6899 588.819L79.7554 575.531V549.176ZM79.6461 548.522L66.3139 534.962L53.6244 522.056V548.408L66.6899 561.697L79.6461 548.522ZM66.3139 507.843L53.3578 494.666L40.4016 507.843L53.3578 521.02L66.3139 507.843ZM52.9818 521.403L39.6497 507.843L26.9602 494.937V521.289L40.0257 534.577L52.9818 521.403ZM40.0257 507.461L53.0912 494.172V467.82L40.4016 480.726L27.0695 494.286L40.0257 507.461ZM52.9818 467.164L39.6497 453.604L26.9602 440.698V467.05L40.0257 480.338L52.9818 467.164ZM40.0257 453.222L53.0912 439.933V413.581L40.4016 426.487L27.0695 440.047L40.0257 453.222ZM52.9818 412.925L39.6497 399.365L26.9602 386.459V412.811L40.0257 426.099L52.9818 412.925ZM40.0257 398.983L53.0912 385.694V359.342L40.4016 372.248L27.0695 385.808L40.0257 398.983ZM40.4016 399.365L53.3578 412.542L66.3139 399.365L53.3578 386.188L40.4016 399.365ZM53.6244 385.694L66.6899 398.983L79.6461 385.805L66.3139 372.246L53.6244 359.339V385.694ZM67.0659 399.365L53.7337 412.925L66.6899 426.102L79.7554 412.814V386.462L67.0659 399.365ZM67.0659 426.485L80.022 439.662L92.9782 426.485L80.022 413.307L67.0659 426.485ZM80.2887 412.814L93.3541 426.102L106.31 412.925L92.9782 399.365L80.2887 386.459V412.814ZM93.3541 398.983L106.42 385.694V359.342L93.7301 372.246L80.398 385.805L93.3541 398.983ZM93.7301 399.365L106.686 412.542L119.642 399.365L106.686 386.188L93.7301 399.365ZM106.953 385.694L120.018 398.983L132.974 385.805L119.642 372.246L106.953 359.339V385.694ZM120.394 399.365L107.062 412.925L120.018 426.102L133.084 412.814V386.462L120.394 399.365ZM120.394 426.485L133.35 439.662L146.307 426.485L133.35 413.307L120.394 426.485ZM133.617 412.814L146.683 426.102L159.639 412.925L146.307 399.365L133.617 386.459V412.814ZM146.683 398.983L159.748 385.694V359.342L147.059 372.246L133.726 385.805L146.683 398.983ZM147.059 399.365L160.015 412.542L172.971 399.365L160.015 386.188L147.059 399.365ZM160.281 385.694L173.347 398.983L186.303 385.805L172.971 372.246L160.281 359.339V385.694ZM173.723 399.365L160.391 412.925L173.347 426.102L186.412 412.814V386.462L173.723 399.365ZM173.723 426.485L186.679 439.662L199.635 426.485L186.679 413.307L173.723 426.485ZM186.946 412.814L200.011 426.102L212.967 412.925L199.635 399.365L186.946 386.459V412.814ZM200.011 398.983L213.076 385.694V359.342L200.387 372.246L187.055 385.805L200.011 398.983ZM200.387 399.365L213.343 412.542L226.299 399.365L213.343 386.188L200.387 399.365ZM213.61 385.694L226.675 398.983L239.631 385.805L226.299 372.246L213.61 359.339V385.694ZM227.051 399.365L213.719 412.925L226.675 426.102L239.741 412.814V386.462L227.051 399.365ZM227.051 426.485L240.007 439.662L252.963 426.485L240.007 413.307L227.051 426.485ZM240.274 412.814L253.339 426.102L266.296 412.925L252.963 399.365L240.274 386.459V412.814ZM253.339 398.983L266.405 385.694V359.342L253.715 372.246L240.383 385.805L253.339 398.983ZM253.715 399.365L266.672 412.542L279.628 399.365L266.672 386.188L253.715 399.365ZM266.938 385.694L280.004 398.983L292.96 385.805L279.628 372.246L266.938 359.339V385.694ZM280.38 399.365L267.048 412.925L280.004 426.102L293.069 412.814V386.462L280.38 399.365ZM280.38 426.485L293.336 439.662L306.292 426.485L293.336 413.307L280.38 426.485ZM280.38 480.724L293.336 493.901L306.292 480.724L293.336 467.546L280.38 480.724ZM280.38 534.962L293.336 548.14L306.292 534.962L293.336 521.785L280.38 534.962ZM280.38 589.201L293.336 602.379L306.292 589.201L293.336 576.024L280.38 589.201ZM279.628 589.201L266.938 576.295V602.647L280.004 615.936L292.96 602.761L279.628 589.201ZM279.628 562.082L266.672 548.905L253.715 562.082L266.672 575.259L279.628 562.082ZM266.405 576.295L253.715 589.201L240.383 602.761L253.339 615.939L266.405 602.65V576.295ZM252.963 589.201L240.007 576.024L227.051 589.201L240.007 602.379L252.963 589.201ZM226.299 589.201L213.61 576.295V602.647L226.675 615.936L239.631 602.761L226.299 589.201ZM226.299 562.082L213.343 548.905L200.387 562.082L213.343 575.259L226.299 562.082ZM213.076 576.295L200.387 589.201L187.055 602.761L200.011 615.939L213.076 602.65V576.295ZM199.635 589.201L186.679 576.024L173.723 589.201L186.679 602.379L199.635 589.201ZM172.971 589.201L160.281 576.295V602.647L173.347 615.936L186.303 602.761L172.971 589.201ZM172.971 562.082L160.015 548.905L147.059 562.082L160.015 575.259L172.971 562.082ZM159.748 576.295L147.059 589.201L133.726 602.761L146.683 615.939L159.748 602.65V576.295ZM146.307 589.201L133.35 576.024L120.394 589.201L133.35 602.379L146.307 589.201ZM119.642 589.201L106.953 576.295V602.647L120.018 615.936L132.974 602.761L119.642 589.201ZM119.642 562.082L106.686 548.905L93.7301 562.082L106.686 575.259L119.642 562.082ZM106.42 576.295L93.7301 589.201L80.398 602.761L93.3541 615.939L106.42 602.65V576.295ZM92.9782 589.201L80.022 576.024L67.0659 589.201L80.022 602.379L92.9782 589.201ZM66.3139 589.201L53.6244 576.295V602.647L66.6899 615.936L79.6461 602.761L66.3139 589.201ZM66.3139 562.082L53.3578 548.905L40.4016 562.082L53.3578 575.259L66.3139 562.082ZM53.0912 576.295L40.4016 589.201L27.0695 602.761L40.0257 615.939L53.0912 602.65V576.295ZM39.6497 589.201L26.6936 576.024L13.7374 589.201L26.6936 602.379L39.6497 589.201ZM39.6497 534.962L26.6936 521.785L13.7374 534.962L26.6936 548.14L39.6497 534.962ZM39.6497 480.724L26.6936 467.546L13.7374 480.724L26.6936 493.901L39.6497 480.724ZM39.6497 426.485L26.6936 413.307L13.7374 426.485L26.6936 439.662L39.6497 426.485ZM39.6497 372.246L26.6936 359.068L13.7374 372.246L26.6936 385.423L39.6497 372.246ZM39.6497 345.126L26.9602 332.22V358.572L40.0257 371.861L52.9818 358.686L39.6497 345.126ZM53.3578 331.949L40.4016 345.126L53.3578 358.303L66.3139 345.126L53.3578 331.949ZM79.7554 332.22L67.0659 345.126L53.7337 358.686L66.6899 371.863L79.7554 358.575V332.22ZM67.0659 372.246L80.022 385.423L92.9782 372.246L80.022 359.068L67.0659 372.246ZM92.9782 345.126L80.2887 332.22V358.572L93.3541 371.861L106.31 358.686L92.9782 345.126ZM106.686 331.949L93.7301 345.126L106.686 358.303L119.642 345.126L106.686 331.949ZM133.084 332.22L120.394 345.126L107.062 358.686L120.018 371.863L133.084 358.575V332.22ZM120.394 372.246L133.35 385.423L146.307 372.246L133.35 359.068L120.394 372.246ZM146.307 345.126L133.617 332.22V358.572L146.683 371.861L159.639 358.686L146.307 345.126ZM160.015 331.949L147.059 345.126L160.015 358.303L172.971 345.126L160.015 331.949ZM186.412 332.22L173.723 345.126L160.391 358.686L173.347 371.863L186.412 358.575V332.22ZM173.723 372.246L186.679 385.423L199.635 372.246L186.679 359.068L173.723 372.246ZM199.635 345.126L186.946 332.22V358.572L200.011 371.861L212.967 358.686L199.635 345.126ZM213.343 331.949L200.387 345.126L213.343 358.303L226.299 345.126L213.343 331.949ZM239.741 332.22L227.051 345.126L213.719 358.686L226.675 371.863L239.741 358.575V332.22ZM227.051 372.246L240.007 385.423L252.963 372.246L240.007 359.068L227.051 372.246ZM252.963 345.126L240.274 332.22V358.572L253.339 371.861L266.296 358.686L252.963 345.126ZM266.672 331.949L253.715 345.126L266.672 358.303L279.628 345.126L266.672 331.949ZM293.069 332.22L280.38 345.126L267.048 358.686L280.004 371.863L293.069 358.575V332.22ZM280.38 372.246L293.336 385.423L306.292 372.246L293.336 359.068L280.38 372.246ZM306.292 345.126L293.602 332.22V358.572L306.668 371.861L319.624 358.686L306.292 345.126ZM319.733 385.694V359.342L307.044 372.246L293.712 385.805L306.668 398.983L319.733 385.694ZM306.292 399.365L293.602 386.459V412.811L306.668 426.099L319.624 412.925L306.292 399.365ZM319.733 439.933V413.581L307.044 426.485L293.712 440.044L306.668 453.222L319.733 439.933ZM306.292 453.604L293.602 440.698V467.05L306.668 480.338L319.624 467.164L306.292 453.604ZM319.733 494.172V467.82L307.044 480.724L293.712 494.283L306.668 507.461L319.733 494.172ZM306.292 507.843L293.602 494.937V521.289L306.668 534.577L319.624 521.403L306.292 507.843ZM319.733 548.411V522.059L307.044 534.962L293.712 548.522L306.668 561.7L319.733 548.411ZM306.292 562.082L293.602 549.176V575.528L306.668 588.816L319.624 575.642L306.292 562.082ZM319.733 602.65V576.298L307.044 589.201L293.712 602.761L306.668 615.939L319.733 602.65ZM319.624 629.881L306.292 616.321L293.602 603.415V629.767L306.668 643.055L319.624 629.881ZM293.336 656.618L306.292 643.44L293.336 630.263L280.38 643.44L293.336 656.618ZM280.004 643.058L293.069 629.769V603.417L280.38 616.324L267.048 629.883L280.004 643.058ZM266.672 629.498L279.628 616.321L266.672 603.144L253.715 616.321L266.672 629.498ZM266.296 629.881L252.963 616.321L240.274 603.415V629.767L253.339 643.055L266.296 629.881ZM240.007 656.618L252.963 643.44L240.007 630.263L227.051 643.44L240.007 656.618ZM226.675 643.058L239.741 629.769V603.417L227.051 616.324L213.719 629.883L226.675 643.058ZM213.343 629.498L226.299 616.321L213.343 603.144L200.387 616.321L213.343 629.498ZM212.967 629.881L199.635 616.321L186.946 603.415V629.767L200.011 643.055L212.967 629.881ZM186.679 656.618L199.635 643.44L186.679 630.263L173.723 643.44L186.679 656.618ZM173.347 643.058L186.412 629.769V603.417L173.723 616.324L160.391 629.883L173.347 643.058ZM160.015 629.498L172.971 616.321L160.015 603.144L147.059 616.321L160.015 629.498ZM159.639 629.881L146.307 616.321L133.617 603.415V629.767L146.683 643.055L159.639 629.881ZM133.35 656.618L146.307 643.44L133.35 630.263L120.394 643.44L133.35 656.618ZM120.018 643.058L133.084 629.769V603.417L120.394 616.324L107.062 629.883L120.018 643.058ZM106.686 629.498L119.642 616.321L106.686 603.144L93.7301 616.321L106.686 629.498ZM106.31 629.881L92.9782 616.321L80.2887 603.415V629.767L93.3541 643.055L106.31 629.881ZM80.022 656.618L92.9782 643.44L80.022 630.263L67.0659 643.44L80.022 656.618ZM66.6899 643.058L79.7554 629.769V603.417L67.0659 616.324L53.7337 629.883L66.6899 643.058ZM53.3578 629.498L66.3139 616.321L53.3578 603.144L40.4016 616.321L53.3578 629.498ZM52.9818 629.881L39.6497 616.321L26.9602 603.415V629.767L40.0257 643.055L52.9818 629.881ZM26.6936 656.618L39.6497 643.44L26.6936 630.263L13.7374 643.44L26.6936 656.618ZM0.405304 629.881L13.3615 643.058L26.4269 629.769V603.417L13.7374 616.324L0.405304 629.881ZM0.29599 602.65L13.3615 615.939L26.3176 602.761L12.9855 589.201L0.29599 576.295V602.65ZM0.405304 575.642L13.3615 588.819L26.4269 575.531V549.179L13.7374 562.085L0.405304 575.642ZM0.29599 548.411L13.3615 561.7L26.3176 548.522L12.9855 534.962L0.29599 522.056V548.411ZM0.405304 521.403L13.3615 534.58L26.4269 521.292V494.94L13.7374 507.846L0.405304 521.403ZM0.29599 494.172L13.3615 507.461L26.3176 494.283L12.9855 480.724L0.29599 467.817V494.172ZM0.405304 467.164L13.3615 480.341L26.4269 467.053V440.701L13.7374 453.607L0.405304 467.164ZM0.29599 439.933L13.3615 453.222L26.3176 440.044L12.9855 426.485L0.29599 413.578V439.933ZM0.405304 412.925L13.3615 426.102L26.4269 412.814V386.462L13.7374 399.368L0.405304 412.925ZM0.29599 385.694L13.3615 398.983L26.3176 385.805L12.9855 372.246L0.29599 359.339V385.694ZM0.405304 358.686L13.3615 371.863L26.4269 358.575V332.22L13.7374 345.126L0.405304 358.686Z" fill="url(#paint0_linear)"/>
<path d="M0.0293579 331.566H0.405304L13.3615 344.744L26.3176 331.566H27.0722L40.0257 344.744L52.9818 331.566H53.7364L66.6899 344.744L79.6461 331.566H80.4006L93.3541 344.744L106.31 331.566H107.065L120.018 344.744L132.974 331.566H133.729L146.683 344.744L159.639 331.566H160.393L173.347 344.744L186.303 331.566H187.058L200.011 344.744L212.967 331.566H213.722L226.675 344.744L239.631 331.566H240.386L253.339 344.744L266.296 331.566H267.05L280.004 344.744L292.96 331.566H293.714L306.668 344.744L319.624 331.566H320V331.949L307.044 345.126L320 358.303V386.19L307.044 399.365L320 412.542V440.429L307.044 453.604L320 466.781V494.668L307.044 507.843L320 521.02V548.907L307.044 562.082L320 575.259V603.146L307.044 616.321L320 629.498V657H319.624L319.733 656.889V630.537L307.044 643.44L293.712 657H292.957L279.625 643.44L266.936 630.534V656.886L267.045 656.997H266.29L266.4 656.886V630.534L253.71 643.44L240.378 657H239.623L226.291 643.44L213.602 630.534V656.886L213.711 656.997H212.956L213.066 656.886V630.534L200.376 643.44L187.044 657H186.29L172.957 643.44L160.268 630.534V656.886L160.377 656.997H159.623L159.732 656.886V630.534L147.043 643.44L133.71 657H132.956L119.624 643.44L106.934 630.534V656.886L107.044 656.997H106.289L106.398 656.886V630.534L93.7088 643.44L80.3766 657H79.622L66.2899 643.44L53.6004 630.534V656.886L53.7097 656.997H52.9552L53.0645 656.886V630.534L40.375 643.44L27.0429 657H26.2883L12.9561 643.44L0.266663 630.534V656.886L0.376007 656.997H3.05176e-05V629.496L12.9561 616.318L3.05176e-05 603.141V575.259L12.9855 562.082L0.0293579 548.905V521.02L12.9855 507.843L0.0293579 494.666V466.781L12.9855 453.604L0.0293579 440.427V412.542L12.9855 399.365L0.0293579 386.188V358.303L12.9855 345.126L0.0293579 331.949V331.566ZM40.0257 561.7L53.0912 548.411V522.059L40.4016 534.965L27.0695 548.525L40.0257 561.7ZM26.9602 549.176V575.528L40.0257 588.816L52.9818 575.642L39.6497 562.082L26.9602 549.176ZM292.96 548.522L279.628 534.962L266.938 522.056V548.408L280.004 561.697L292.96 548.522ZM267.048 575.642L280.004 588.819L293.069 575.531V549.179L280.38 562.082L267.048 575.642ZM79.6461 494.283L66.3139 480.724L53.6244 467.817V494.169L66.6899 507.458L79.6461 494.283ZM53.7337 521.403L66.6899 534.58L79.7554 521.292V494.94L67.0659 507.843L53.7337 521.403ZM53.6244 439.933L66.6899 453.222L79.6461 440.044L66.3139 426.485L53.6244 413.578V439.933ZM53.3578 440.427L40.4016 453.604L53.3578 466.781L66.3139 453.604L53.3578 440.427ZM67.0659 453.604L53.7337 467.164L66.6899 480.341L79.7554 467.053V440.701L67.0659 453.604ZM67.0659 480.724L80.022 493.901L92.9782 480.724L80.022 467.546L67.0659 480.724ZM92.9782 507.843L80.2887 494.937V521.289L93.3541 534.577L106.31 521.403L92.9782 507.843ZM93.3541 507.461L106.42 494.172V467.82L93.7301 480.724L80.398 494.283L93.3541 507.461ZM80.2887 467.053L93.3541 480.341L106.31 467.164L92.9782 453.604L80.2887 440.698V467.053ZM93.3541 453.222L106.42 439.933V413.581L93.7301 426.485L80.398 440.044L93.3541 453.222ZM93.7301 453.604L106.686 466.781L119.642 453.604L106.686 440.427L93.7301 453.604ZM132.974 494.283L119.642 480.724L106.953 467.817V494.169L120.018 507.458L132.974 494.283ZM107.062 521.403L120.018 534.58L133.084 521.292V494.94L120.394 507.843L107.062 521.403ZM106.953 439.933L120.018 453.222L132.974 440.044L119.642 426.485L106.953 413.578V439.933ZM120.394 453.604L107.062 467.164L120.018 480.341L133.084 467.053V440.701L120.394 453.604ZM120.394 480.724L133.35 493.901L146.307 480.724L133.35 467.546L120.394 480.724ZM146.307 507.843L133.617 494.937V521.289L146.683 534.577L159.639 521.403L146.307 507.843ZM146.683 507.461L159.748 494.172V467.82L147.059 480.724L133.726 494.283L146.683 507.461ZM133.617 467.053L146.683 480.341L159.639 467.164L146.307 453.604L133.617 440.698V467.053ZM146.683 453.222L159.748 439.933V413.581L147.059 426.485L133.726 440.044L146.683 453.222ZM147.059 453.604L160.015 466.781L172.971 453.604L160.015 440.427L147.059 453.604ZM186.303 494.283L172.971 480.724L160.281 467.817V494.169L173.347 507.458L186.303 494.283ZM160.391 521.403L173.347 534.58L186.412 521.292V494.94L173.723 507.843L160.391 521.403ZM160.281 439.933L173.347 453.222L186.303 440.044L172.971 426.485L160.281 413.578V439.933ZM173.723 453.604L160.391 467.164L173.347 480.341L186.412 467.053V440.701L173.723 453.604ZM173.723 480.724L186.679 493.901L199.635 480.724L186.679 467.546L173.723 480.724ZM199.635 507.843L186.946 494.937V521.289L200.011 534.577L212.967 521.403L199.635 507.843ZM200.011 507.461L213.076 494.172V467.82L200.387 480.724L187.055 494.283L200.011 507.461ZM186.946 467.053L200.011 480.341L212.967 467.164L199.635 453.604L186.946 440.698V467.053ZM200.011 453.222L213.076 439.933V413.581L200.387 426.485L187.055 440.044L200.011 453.222ZM200.387 453.604L213.343 466.781L226.299 453.604L213.343 440.427L200.387 453.604ZM239.631 494.283L226.299 480.724L213.61 467.817V494.169L226.675 507.458L239.631 494.283ZM213.719 521.403L226.675 534.58L239.741 521.292V494.94L227.051 507.843L213.719 521.403ZM213.61 439.933L226.675 453.222L239.631 440.044L226.299 426.485L213.61 413.578V439.933ZM227.051 453.604L213.719 467.164L226.675 480.341L239.741 467.053V440.701L227.051 453.604ZM227.051 480.724L240.007 493.901L252.963 480.724L240.007 467.546L227.051 480.724ZM252.963 507.843L240.274 494.937V521.289L253.339 534.577L266.296 521.403L252.963 507.843ZM253.339 507.461L266.405 494.172V467.82L253.715 480.724L240.383 494.283L253.339 507.461ZM240.274 467.053L253.339 480.341L266.296 467.164L252.963 453.604L240.274 440.698V467.053ZM253.339 453.222L266.405 439.933V413.581L253.715 426.485L240.383 440.044L253.339 453.222ZM253.715 453.604L266.672 466.781L279.628 453.604L266.672 440.427L253.715 453.604ZM266.938 439.933L280.004 453.222L292.96 440.044L279.628 426.485L266.938 413.578V439.933ZM280.38 453.604L267.048 467.164L280.004 480.341L293.069 467.053V440.701L280.38 453.604ZM279.628 480.724L266.938 467.817V494.169L280.004 507.458L292.96 494.283L279.628 480.724ZM280.38 507.843L267.048 521.403L280.004 534.58L293.069 521.292V494.94L280.38 507.843ZM279.628 507.843L266.672 494.666L253.715 507.843L266.672 521.02L279.628 507.843ZM266.405 522.056L253.715 534.962L240.383 548.522L253.339 561.7L266.405 548.411V522.056ZM252.963 562.082L240.274 549.176V575.528L253.339 588.816L266.296 575.642L252.963 562.082ZM252.963 534.962L240.007 521.785L227.051 534.962L240.007 548.14L252.963 534.962ZM239.741 549.176L227.051 562.082L213.719 575.642L226.675 588.819L239.741 575.531V549.176ZM239.631 548.522L226.299 534.962L213.61 522.056V548.408L226.675 561.697L239.631 548.522ZM226.299 507.843L213.343 494.666L200.387 507.843L213.343 521.02L226.299 507.843ZM213.076 522.056L200.387 534.962L187.055 548.522L200.011 561.7L213.076 548.411V522.056ZM199.635 562.082L186.946 549.176V575.528L200.011 588.816L212.967 575.642L199.635 562.082ZM199.635 534.962L186.679 521.785L173.723 534.962L186.679 548.14L199.635 534.962ZM186.412 549.176L173.723 562.082L160.391 575.642L173.347 588.819L186.412 575.531V549.176ZM186.303 548.522L172.971 534.962L160.281 522.056V548.408L173.347 561.697L186.303 548.522ZM172.971 507.843L160.015 494.666L147.059 507.843L160.015 521.02L172.971 507.843ZM159.748 522.056L147.059 534.962L133.726 548.522L146.683 561.7L159.748 548.411V522.056ZM146.307 562.082L133.617 549.176V575.528L146.683 588.816L159.639 575.642L146.307 562.082ZM146.307 534.962L133.35 521.785L120.394 534.962L133.35 548.14L146.307 534.962ZM133.084 549.176L120.394 562.082L107.062 575.642L120.018 588.819L133.084 575.531V549.176ZM132.974 548.522L119.642 534.962L106.953 522.056V548.408L120.018 561.697L132.974 548.522ZM119.642 507.843L106.686 494.666L93.7301 507.843L106.686 521.02L119.642 507.843ZM106.42 522.056L93.7301 534.962L80.398 548.522L93.3541 561.7L106.42 548.411V522.056ZM92.9782 562.082L80.2887 549.176V575.528L93.3541 588.816L106.31 575.642L92.9782 562.082ZM92.9782 534.962L80.022 521.785L67.0659 534.962L80.022 548.14L92.9782 534.962ZM79.7554 549.176L67.0659 562.082L53.7337 575.642L66.6899 588.819L79.7554 575.531V549.176ZM79.6461 548.522L66.3139 534.962L53.6244 522.056V548.408L66.6899 561.697L79.6461 548.522ZM66.3139 507.843L53.3578 494.666L40.4016 507.843L53.3578 521.02L66.3139 507.843ZM52.9818 521.403L39.6497 507.843L26.9602 494.937V521.289L40.0257 534.577L52.9818 521.403ZM40.0257 507.461L53.0912 494.172V467.82L40.4016 480.726L27.0695 494.286L40.0257 507.461ZM52.9818 467.164L39.6497 453.604L26.9602 440.698V467.05L40.0257 480.338L52.9818 467.164ZM40.0257 453.222L53.0912 439.933V413.581L40.4016 426.487L27.0695 440.047L40.0257 453.222ZM52.9818 412.925L39.6497 399.365L26.9602 386.459V412.811L40.0257 426.099L52.9818 412.925ZM40.0257 398.983L53.0912 385.694V359.342L40.4016 372.248L27.0695 385.808L40.0257 398.983ZM40.4016 399.365L53.3578 412.542L66.3139 399.365L53.3578 386.188L40.4016 399.365ZM53.6244 385.694L66.6899 398.983L79.6461 385.805L66.3139 372.246L53.6244 359.339V385.694ZM67.0659 399.365L53.7337 412.925L66.6899 426.102L79.7554 412.814V386.462L67.0659 399.365ZM67.0659 426.485L80.022 439.662L92.9782 426.485L80.022 413.307L67.0659 426.485ZM80.2887 412.814L93.3541 426.102L106.31 412.925L92.9782 399.365L80.2887 386.459V412.814ZM93.3541 398.983L106.42 385.694V359.342L93.7301 372.246L80.398 385.805L93.3541 398.983ZM93.7301 399.365L106.686 412.542L119.642 399.365L106.686 386.188L93.7301 399.365ZM106.953 385.694L120.018 398.983L132.974 385.805L119.642 372.246L106.953 359.339V385.694ZM120.394 399.365L107.062 412.925L120.018 426.102L133.084 412.814V386.462L120.394 399.365ZM120.394 426.485L133.35 439.662L146.307 426.485L133.35 413.307L120.394 426.485ZM133.617 412.814L146.683 426.102L159.639 412.925L146.307 399.365L133.617 386.459V412.814ZM146.683 398.983L159.748 385.694V359.342L147.059 372.246L133.726 385.805L146.683 398.983ZM147.059 399.365L160.015 412.542L172.971 399.365L160.015 386.188L147.059 399.365ZM160.281 385.694L173.347 398.983L186.303 385.805L172.971 372.246L160.281 359.339V385.694ZM173.723 399.365L160.391 412.925L173.347 426.102L186.412 412.814V386.462L173.723 399.365ZM173.723 426.485L186.679 439.662L199.635 426.485L186.679 413.307L173.723 426.485ZM186.946 412.814L200.011 426.102L212.967 412.925L199.635 399.365L186.946 386.459V412.814ZM200.011 398.983L213.076 385.694V359.342L200.387 372.246L187.055 385.805L200.011 398.983ZM200.387 399.365L213.343 412.542L226.299 399.365L213.343 386.188L200.387 399.365ZM213.61 385.694L226.675 398.983L239.631 385.805L226.299 372.246L213.61 359.339V385.694ZM227.051 399.365L213.719 412.925L226.675 426.102L239.741 412.814V386.462L227.051 399.365ZM227.051 426.485L240.007 439.662L252.963 426.485L240.007 413.307L227.051 426.485ZM240.274 412.814L253.339 426.102L266.296 412.925L252.963 399.365L240.274 386.459V412.814ZM253.339 398.983L266.405 385.694V359.342L253.715 372.246L240.383 385.805L253.339 398.983ZM253.715 399.365L266.672 412.542L279.628 399.365L266.672 386.188L253.715 399.365ZM266.938 385.694L280.004 398.983L292.96 385.805L279.628 372.246L266.938 359.339V385.694ZM280.38 399.365L267.048 412.925L280.004 426.102L293.069 412.814V386.462L280.38 399.365ZM280.38 426.485L293.336 439.662L306.292 426.485L293.336 413.307L280.38 426.485ZM280.38 480.724L293.336 493.901L306.292 480.724L293.336 467.546L280.38 480.724ZM280.38 534.962L293.336 548.14L306.292 534.962L293.336 521.785L280.38 534.962ZM280.38 589.201L293.336 602.379L306.292 589.201L293.336 576.024L280.38 589.201ZM279.628 589.201L266.938 576.295V602.647L280.004 615.936L292.96 602.761L279.628 589.201ZM279.628 562.082L266.672 548.905L253.715 562.082L266.672 575.259L279.628 562.082ZM266.405 576.295L253.715 589.201L240.383 602.761L253.339 615.939L266.405 602.65V576.295ZM252.963 589.201L240.007 576.024L227.051 589.201L240.007 602.379L252.963 589.201ZM226.299 589.201L213.61 576.295V602.647L226.675 615.936L239.631 602.761L226.299 589.201ZM226.299 562.082L213.343 548.905L200.387 562.082L213.343 575.259L226.299 562.082ZM213.076 576.295L200.387 589.201L187.055 602.761L200.011 615.939L213.076 602.65V576.295ZM199.635 589.201L186.679 576.024L173.723 589.201L186.679 602.379L199.635 589.201ZM172.971 589.201L160.281 576.295V602.647L173.347 615.936L186.303 602.761L172.971 589.201ZM172.971 562.082L160.015 548.905L147.059 562.082L160.015 575.259L172.971 562.082ZM159.748 576.295L147.059 589.201L133.726 602.761L146.683 615.939L159.748 602.65V576.295ZM146.307 589.201L133.35 576.024L120.394 589.201L133.35 602.379L146.307 589.201ZM119.642 589.201L106.953 576.295V602.647L120.018 615.936L132.974 602.761L119.642 589.201ZM119.642 562.082L106.686 548.905L93.7301 562.082L106.686 575.259L119.642 562.082ZM106.42 576.295L93.7301 589.201L80.398 602.761L93.3541 615.939L106.42 602.65V576.295ZM92.9782 589.201L80.022 576.024L67.0659 589.201L80.022 602.379L92.9782 589.201ZM66.3139 589.201L53.6244 576.295V602.647L66.6899 615.936L79.6461 602.761L66.3139 589.201ZM66.3139 562.082L53.3578 548.905L40.4016 562.082L53.3578 575.259L66.3139 562.082ZM53.0912 576.295L40.4016 589.201L27.0695 602.761L40.0257 615.939L53.0912 602.65V576.295ZM39.6497 589.201L26.6936 576.024L13.7374 589.201L26.6936 602.379L39.6497 589.201ZM39.6497 534.962L26.6936 521.785L13.7374 534.962L26.6936 548.14L39.6497 534.962ZM39.6497 480.724L26.6936 467.546L13.7374 480.724L26.6936 493.901L39.6497 480.724ZM39.6497 426.485L26.6936 413.307L13.7374 426.485L26.6936 439.662L39.6497 426.485ZM39.6497 372.246L26.6936 359.068L13.7374 372.246L26.6936 385.423L39.6497 372.246ZM39.6497 345.126L26.9602 332.22V358.572L40.0257 371.861L52.9818 358.686L39.6497 345.126ZM53.3578 331.949L40.4016 345.126L53.3578 358.303L66.3139 345.126L53.3578 331.949ZM79.7554 332.22L67.0659 345.126L53.7337 358.686L66.6899 371.863L79.7554 358.575V332.22ZM67.0659 372.246L80.022 385.423L92.9782 372.246L80.022 359.068L67.0659 372.246ZM92.9782 345.126L80.2887 332.22V358.572L93.3541 371.861L106.31 358.686L92.9782 345.126ZM106.686 331.949L93.7301 345.126L106.686 358.303L119.642 345.126L106.686 331.949ZM133.084 332.22L120.394 345.126L107.062 358.686L120.018 371.863L133.084 358.575V332.22ZM120.394 372.246L133.35 385.423L146.307 372.246L133.35 359.068L120.394 372.246ZM146.307 345.126L133.617 332.22V358.572L146.683 371.861L159.639 358.686L146.307 345.126ZM160.015 331.949L147.059 345.126L160.015 358.303L172.971 345.126L160.015 331.949ZM186.412 332.22L173.723 345.126L160.391 358.686L173.347 371.863L186.412 358.575V332.22ZM173.723 372.246L186.679 385.423L199.635 372.246L186.679 359.068L173.723 372.246ZM199.635 345.126L186.946 332.22V358.572L200.011 371.861L212.967 358.686L199.635 345.126ZM213.343 331.949L200.387 345.126L213.343 358.303L226.299 345.126L213.343 331.949ZM239.741 332.22L227.051 345.126L213.719 358.686L226.675 371.863L239.741 358.575V332.22ZM227.051 372.246L240.007 385.423L252.963 372.246L240.007 359.068L227.051 372.246ZM252.963 345.126L240.274 332.22V358.572L253.339 371.861L266.296 358.686L252.963 345.126ZM266.672 331.949L253.715 345.126L266.672 358.303L279.628 345.126L266.672 331.949ZM293.069 332.22L280.38 345.126L267.048 358.686L280.004 371.863L293.069 358.575V332.22ZM280.38 372.246L293.336 385.423L306.292 372.246L293.336 359.068L280.38 372.246ZM306.292 345.126L293.602 332.22V358.572L306.668 371.861L319.624 358.686L306.292 345.126ZM319.733 385.694V359.342L307.044 372.246L293.712 385.805L306.668 398.983L319.733 385.694ZM306.292 399.365L293.602 386.459V412.811L306.668 426.099L319.624 412.925L306.292 399.365ZM319.733 439.933V413.581L307.044 426.485L293.712 440.044L306.668 453.222L319.733 439.933ZM306.292 453.604L293.602 440.698V467.05L306.668 480.338L319.624 467.164L306.292 453.604ZM319.733 494.172V467.82L307.044 480.724L293.712 494.283L306.668 507.461L319.733 494.172ZM306.292 507.843L293.602 494.937V521.289L306.668 534.577L319.624 521.403L306.292 507.843ZM319.733 548.411V522.059L307.044 534.962L293.712 548.522L306.668 561.7L319.733 548.411ZM306.292 562.082L293.602 549.176V575.528L306.668 588.816L319.624 575.642L306.292 562.082ZM319.733 602.65V576.298L307.044 589.201L293.712 602.761L306.668 615.939L319.733 602.65ZM319.624 629.881L306.292 616.321L293.602 603.415V629.767L306.668 643.055L319.624 629.881ZM293.336 656.618L306.292 643.44L293.336 630.263L280.38 643.44L293.336 656.618ZM280.004 643.058L293.069 629.769V603.417L280.38 616.324L267.048 629.883L280.004 643.058ZM266.672 629.498L279.628 616.321L266.672 603.144L253.715 616.321L266.672 629.498ZM266.296 629.881L252.963 616.321L240.274 603.415V629.767L253.339 643.055L266.296 629.881ZM240.007 656.618L252.963 643.44L240.007 630.263L227.051 643.44L240.007 656.618ZM226.675 643.058L239.741 629.769V603.417L227.051 616.324L213.719 629.883L226.675 643.058ZM213.343 629.498L226.299 616.321L213.343 603.144L200.387 616.321L213.343 629.498ZM212.967 629.881L199.635 616.321L186.946 603.415V629.767L200.011 643.055L212.967 629.881ZM186.679 656.618L199.635 643.44L186.679 630.263L173.723 643.44L186.679 656.618ZM173.347 643.058L186.412 629.769V603.417L173.723 616.324L160.391 629.883L173.347 643.058ZM160.015 629.498L172.971 616.321L160.015 603.144L147.059 616.321L160.015 629.498ZM159.639 629.881L146.307 616.321L133.617 603.415V629.767L146.683 643.055L159.639 629.881ZM133.35 656.618L146.307 643.44L133.35 630.263L120.394 643.44L133.35 656.618ZM120.018 643.058L133.084 629.769V603.417L120.394 616.324L107.062 629.883L120.018 643.058ZM106.686 629.498L119.642 616.321L106.686 603.144L93.7301 616.321L106.686 629.498ZM106.31 629.881L92.9782 616.321L80.2887 603.415V629.767L93.3541 643.055L106.31 629.881ZM80.022 656.618L92.9782 643.44L80.022 630.263L67.0659 643.44L80.022 656.618ZM66.6899 643.058L79.7554 629.769V603.417L67.0659 616.324L53.7337 629.883L66.6899 643.058ZM53.3578 629.498L66.3139 616.321L53.3578 603.144L40.4016 616.321L53.3578 629.498ZM52.9818 629.881L39.6497 616.321L26.9602 603.415V629.767L40.0257 643.055L52.9818 629.881ZM26.6936 656.618L39.6497 643.44L26.6936 630.263L13.7374 643.44L26.6936 656.618ZM0.405304 629.881L13.3615 643.058L26.4269 629.769V603.417L13.7374 616.324L0.405304 629.881ZM0.29599 602.65L13.3615 615.939L26.3176 602.761L12.9855 589.201L0.29599 576.295V602.65ZM0.405304 575.642L13.3615 588.819L26.4269 575.531V549.179L13.7374 562.085L0.405304 575.642ZM0.29599 548.411L13.3615 561.7L26.3176 548.522L12.9855 534.962L0.29599 522.056V548.411ZM0.405304 521.403L13.3615 534.58L26.4269 521.292V494.94L13.7374 507.846L0.405304 521.403ZM0.29599 494.172L13.3615 507.461L26.3176 494.283L12.9855 480.724L0.29599 467.817V494.172ZM0.405304 467.164L13.3615 480.341L26.4269 467.053V440.701L13.7374 453.607L0.405304 467.164ZM0.29599 439.933L13.3615 453.222L26.3176 440.044L12.9855 426.485L0.29599 413.578V439.933ZM0.405304 412.925L13.3615 426.102L26.4269 412.814V386.462L13.7374 399.368L0.405304 412.925ZM0.29599 385.694L13.3615 398.983L26.3176 385.805L12.9855 372.246L0.29599 359.339V385.694ZM0.405304 358.686L13.3615 371.863L26.4269 358.575V332.22L13.7374 345.126L0.405304 358.686Z" fill="#3A5691"/>
</g>
<g filter="url(#filter1_f)">
<path d="M0.0293579 2H0.405304L13.3615 15.3447L26.3176 2H27.0722L40.0257 15.3447L52.9818 2H53.7364L66.6899 15.3447L79.6461 2H80.4006L93.3541 15.3447L106.31 2H107.065L120.018 15.3447L132.974 2H133.729L146.683 15.3447L159.639 2H160.393L173.347 15.3447L186.303 2H187.058L200.011 15.3447L212.967 2H213.722L226.675 15.3447L239.631 2H240.386L253.339 15.3447L266.296 2H267.05L280.004 15.3447L292.96 2H293.714L306.668 15.3447L319.624 2H320V2.38724L307.044 15.7319L320 29.0766V57.3177L307.044 70.6596L320 84.0043V112.245L307.044 125.587L320 138.932V167.173L307.044 180.515L320 193.86V222.101L307.044 235.443L320 248.787V277.029L307.044 290.37L320 303.715V331.566H319.624L319.733 331.454V304.767L307.044 317.834L293.712 331.566H292.957L279.625 317.834L266.936 304.764V331.451L267.045 331.563H266.29L266.4 331.451V304.764L253.71 317.834L240.378 331.566H239.623L226.291 317.834L213.602 304.764V331.451L213.711 331.563H212.956L213.066 331.451V304.764L200.376 317.834L187.044 331.566H186.29L172.957 317.834L160.268 304.764V331.451L160.377 331.563H159.623L159.732 331.451V304.764L147.043 317.834L133.71 331.566H132.956L119.624 317.834L106.934 304.764V331.451L107.044 331.563H106.289L106.398 331.451V304.764L93.7088 317.834L80.3766 331.566H79.622L66.2899 317.834L53.6004 304.764V331.451L53.7097 331.563H52.9552L53.0645 331.451V304.764L40.375 317.834L27.0429 331.566H26.2883L12.9561 317.834L0.266663 304.764V331.451L0.376007 331.563H3.05176e-05V303.712L12.9561 290.368L3.05176e-05 277.023V248.787L12.9855 235.443L0.0293579 222.098V193.86L12.9855 180.515L0.0293579 167.17V138.932L12.9855 125.587L0.0293579 112.243V84.0043L12.9855 70.6596L0.0293579 57.3149V29.0766L12.9855 15.7319L0.0293579 2.38724V2ZM40.0257 235.056L53.0912 221.598V194.912L40.4016 207.982L27.0695 221.714L40.0257 235.056ZM26.9602 222.373V249.059L40.0257 262.517L52.9818 249.175L39.6497 235.443L26.9602 222.373ZM292.96 221.711L279.628 207.979L266.938 194.909V221.595L280.004 235.053L292.96 221.711ZM267.048 249.175L280.004 262.519L293.069 249.062V222.375L280.38 235.443L267.048 249.175ZM79.6461 166.783L66.3139 153.051L53.6244 139.981V166.668L66.6899 180.125L79.6461 166.783ZM53.7337 194.247L66.6899 207.592L79.7554 194.134V167.448L67.0659 180.515L53.7337 194.247ZM53.6244 111.743L66.6899 125.2L79.6461 111.855L66.3139 98.1235L53.6244 85.0534V111.743ZM53.3578 112.243L40.4016 125.587L53.3578 138.932L66.3139 125.587L53.3578 112.243ZM67.0659 125.587L53.7337 139.319L66.6899 152.664L79.7554 139.207V112.52L67.0659 125.587ZM67.0659 153.051L80.022 166.396L92.9782 153.051L80.022 139.707L67.0659 153.051ZM92.9782 180.515L80.2887 167.445V194.132L93.3541 207.589L106.31 194.247L92.9782 180.515ZM93.3541 180.128L106.42 166.671V139.984L93.7301 153.051L80.398 166.783L93.3541 180.128ZM80.2887 139.207L93.3541 152.664L106.31 139.319L92.9782 125.587L80.2887 112.517V139.207ZM93.3541 125.2L106.42 111.743V85.0562L93.7301 98.1235L80.398 111.855L93.3541 125.2ZM93.7301 125.587L106.686 138.932L119.642 125.587L106.686 112.243L93.7301 125.587ZM132.974 166.783L119.642 153.051L106.953 139.981V166.668L120.018 180.125L132.974 166.783ZM107.062 194.247L120.018 207.592L133.084 194.134V167.448L120.394 180.515L107.062 194.247ZM106.953 111.743L120.018 125.2L132.974 111.855L119.642 98.1235L106.953 85.0534V111.743ZM120.394 125.587L107.062 139.319L120.018 152.664L133.084 139.207V112.52L120.394 125.587ZM120.394 153.051L133.35 166.396L146.307 153.051L133.35 139.707L120.394 153.051ZM146.307 180.515L133.617 167.445V194.132L146.683 207.589L159.639 194.247L146.307 180.515ZM146.683 180.128L159.748 166.671V139.984L147.059 153.051L133.726 166.783L146.683 180.128ZM133.617 139.207L146.683 152.664L159.639 139.319L146.307 125.587L133.617 112.517V139.207ZM146.683 125.2L159.748 111.743V85.0562L147.059 98.1235L133.726 111.855L146.683 125.2ZM147.059 125.587L160.015 138.932L172.971 125.587L160.015 112.243L147.059 125.587ZM186.303 166.783L172.971 153.051L160.281 139.981V166.668L173.347 180.125L186.303 166.783ZM160.391 194.247L173.347 207.592L186.412 194.134V167.448L173.723 180.515L160.391 194.247ZM160.281 111.743L173.347 125.2L186.303 111.855L172.971 98.1235L160.281 85.0534V111.743ZM173.723 125.587L160.391 139.319L173.347 152.664L186.412 139.207V112.52L173.723 125.587ZM173.723 153.051L186.679 166.396L199.635 153.051L186.679 139.707L173.723 153.051ZM199.635 180.515L186.946 167.445V194.132L200.011 207.589L212.967 194.247L199.635 180.515ZM200.011 180.128L213.076 166.671V139.984L200.387 153.051L187.055 166.783L200.011 180.128ZM186.946 139.207L200.011 152.664L212.967 139.319L199.635 125.587L186.946 112.517V139.207ZM200.011 125.2L213.076 111.743V85.0562L200.387 98.1235L187.055 111.855L200.011 125.2ZM200.387 125.587L213.343 138.932L226.299 125.587L213.343 112.243L200.387 125.587ZM239.631 166.783L226.299 153.051L213.61 139.981V166.668L226.675 180.125L239.631 166.783ZM213.719 194.247L226.675 207.592L239.741 194.134V167.448L227.051 180.515L213.719 194.247ZM213.61 111.743L226.675 125.2L239.631 111.855L226.299 98.1235L213.61 85.0534V111.743ZM227.051 125.587L213.719 139.319L226.675 152.664L239.741 139.207V112.52L227.051 125.587ZM227.051 153.051L240.007 166.396L252.963 153.051L240.007 139.707L227.051 153.051ZM252.963 180.515L240.274 167.445V194.132L253.339 207.589L266.296 194.247L252.963 180.515ZM253.339 180.128L266.405 166.671V139.984L253.715 153.051L240.383 166.783L253.339 180.128ZM240.274 139.207L253.339 152.664L266.296 139.319L252.963 125.587L240.274 112.517V139.207ZM253.339 125.2L266.405 111.743V85.0562L253.715 98.1235L240.383 111.855L253.339 125.2ZM253.715 125.587L266.672 138.932L279.628 125.587L266.672 112.243L253.715 125.587ZM266.938 111.743L280.004 125.2L292.96 111.855L279.628 98.1235L266.938 85.0534V111.743ZM280.38 125.587L267.048 139.319L280.004 152.664L293.069 139.207V112.52L280.38 125.587ZM279.628 153.051L266.938 139.981V166.668L280.004 180.125L292.96 166.783L279.628 153.051ZM280.38 180.515L267.048 194.247L280.004 207.592L293.069 194.134V167.448L280.38 180.515ZM279.628 180.515L266.672 167.17L253.715 180.515L266.672 193.86L279.628 180.515ZM266.405 194.909L253.715 207.979L240.383 221.711L253.339 235.056L266.405 221.598V194.909ZM252.963 235.443L240.274 222.373V249.059L253.339 262.517L266.296 249.175L252.963 235.443ZM252.963 207.979L240.007 194.634L227.051 207.979L240.007 221.324L252.963 207.979ZM239.741 222.373L227.051 235.443L213.719 249.175L226.675 262.519L239.741 249.062V222.373ZM239.631 221.711L226.299 207.979L213.61 194.909V221.595L226.675 235.053L239.631 221.711ZM226.299 180.515L213.343 167.17L200.387 180.515L213.343 193.86L226.299 180.515ZM213.076 194.909L200.387 207.979L187.055 221.711L200.011 235.056L213.076 221.598V194.909ZM199.635 235.443L186.946 222.373V249.059L200.011 262.517L212.967 249.175L199.635 235.443ZM199.635 207.979L186.679 194.634L173.723 207.979L186.679 221.324L199.635 207.979ZM186.412 222.373L173.723 235.443L160.391 249.175L173.347 262.519L186.412 249.062V222.373ZM186.303 221.711L172.971 207.979L160.281 194.909V221.595L173.347 235.053L186.303 221.711ZM172.971 180.515L160.015 167.17L147.059 180.515L160.015 193.86L172.971 180.515ZM159.748 194.909L147.059 207.979L133.726 221.711L146.683 235.056L159.748 221.598V194.909ZM146.307 235.443L133.617 222.373V249.059L146.683 262.517L159.639 249.175L146.307 235.443ZM146.307 207.979L133.35 194.634L120.394 207.979L133.35 221.324L146.307 207.979ZM133.084 222.373L120.394 235.443L107.062 249.175L120.018 262.519L133.084 249.062V222.373ZM132.974 221.711L119.642 207.979L106.953 194.909V221.595L120.018 235.053L132.974 221.711ZM119.642 180.515L106.686 167.17L93.7301 180.515L106.686 193.86L119.642 180.515ZM106.42 194.909L93.7301 207.979L80.398 221.711L93.3541 235.056L106.42 221.598V194.909ZM92.9782 235.443L80.2887 222.373V249.059L93.3541 262.517L106.31 249.175L92.9782 235.443ZM92.9782 207.979L80.022 194.634L67.0659 207.979L80.022 221.324L92.9782 207.979ZM79.7554 222.373L67.0659 235.443L53.7337 249.175L66.6899 262.519L79.7554 249.062V222.373ZM79.6461 221.711L66.3139 207.979L53.6244 194.909V221.595L66.6899 235.053L79.6461 221.711ZM66.3139 180.515L53.3578 167.17L40.4016 180.515L53.3578 193.86L66.3139 180.515ZM52.9818 194.247L39.6497 180.515L26.9602 167.445V194.132L40.0257 207.589L52.9818 194.247ZM40.0257 180.128L53.0912 166.671V139.984L40.4016 153.054L27.0695 166.786L40.0257 180.128ZM52.9818 139.319L39.6497 125.587L26.9602 112.517V139.204L40.0257 152.661L52.9818 139.319ZM40.0257 125.2L53.0912 111.743V85.0562L40.4016 98.1262L27.0695 111.858L40.0257 125.2ZM52.9818 84.3916L39.6497 70.6596L26.9602 57.5896V84.2762L40.0257 97.7335L52.9818 84.3916ZM40.0257 70.2724L53.0912 56.8151V30.1285L40.4016 43.1985L27.0695 56.9305L40.0257 70.2724ZM40.4016 70.6596L53.3578 84.0043L66.3139 70.6596L53.3578 57.3149L40.4016 70.6596ZM53.6244 56.8151L66.6899 70.2724L79.6461 56.9277L66.3139 43.1958L53.6244 30.1257V56.8151ZM67.0659 70.6596L53.7337 84.3916L66.6899 97.7362L79.7554 84.279V57.5923L67.0659 70.6596ZM67.0659 98.1235L80.022 111.468L92.9782 98.1235L80.022 84.7788L67.0659 98.1235ZM80.2887 84.279L93.3541 97.7362L106.31 84.3916L92.9782 70.6596L80.2887 57.5896V84.279ZM93.3541 70.2724L106.42 56.8151V30.1285L93.7301 43.1958L80.398 56.9277L93.3541 70.2724ZM93.7301 70.6596L106.686 84.0043L119.642 70.6596L106.686 57.3149L93.7301 70.6596ZM106.953 56.8151L120.018 70.2724L132.974 56.9277L119.642 43.1958L106.953 30.1257V56.8151ZM120.394 70.6596L107.062 84.3916L120.018 97.7362L133.084 84.279V57.5923L120.394 70.6596ZM120.394 98.1235L133.35 111.468L146.307 98.1235L133.35 84.7788L120.394 98.1235ZM133.617 84.279L146.683 97.7362L159.639 84.3916L146.307 70.6596L133.617 57.5896V84.279ZM146.683 70.2724L159.748 56.8151V30.1285L147.059 43.1958L133.726 56.9277L146.683 70.2724ZM147.059 70.6596L160.015 84.0043L172.971 70.6596L160.015 57.3149L147.059 70.6596ZM160.281 56.8151L173.347 70.2724L186.303 56.9277L172.971 43.1958L160.281 30.1257V56.8151ZM173.723 70.6596L160.391 84.3916L173.347 97.7362L186.412 84.279V57.5923L173.723 70.6596ZM173.723 98.1235L186.679 111.468L199.635 98.1235L186.679 84.7788L173.723 98.1235ZM186.946 84.279L200.011 97.7362L212.967 84.3916L199.635 70.6596L186.946 57.5896V84.279ZM200.011 70.2724L213.076 56.8151V30.1285L200.387 43.1958L187.055 56.9277L200.011 70.2724ZM200.387 70.6596L213.343 84.0043L226.299 70.6596L213.343 57.3149L200.387 70.6596ZM213.61 56.8151L226.675 70.2724L239.631 56.9277L226.299 43.1958L213.61 30.1257V56.8151ZM227.051 70.6596L213.719 84.3916L226.675 97.7362L239.741 84.279V57.5923L227.051 70.6596ZM227.051 98.1235L240.007 111.468L252.963 98.1235L240.007 84.7788L227.051 98.1235ZM240.274 84.279L253.339 97.7362L266.296 84.3916L252.963 70.6596L240.274 57.5896V84.279ZM253.339 70.2724L266.405 56.8151V30.1285L253.715 43.1958L240.383 56.9277L253.339 70.2724ZM253.715 70.6596L266.672 84.0043L279.628 70.6596L266.672 57.3149L253.715 70.6596ZM266.938 56.8151L280.004 70.2724L292.96 56.9277L279.628 43.1958L266.938 30.1257V56.8151ZM280.38 70.6596L267.048 84.3916L280.004 97.7362L293.069 84.279V57.5923L280.38 70.6596ZM280.38 98.1235L293.336 111.468L306.292 98.1235L293.336 84.7788L280.38 98.1235ZM280.38 153.051L293.336 166.396L306.292 153.051L293.336 139.707L280.38 153.051ZM280.38 207.979L293.336 221.324L306.292 207.979L293.336 194.634L280.38 207.979ZM280.38 262.907L293.336 276.251L306.292 262.907L293.336 249.562L280.38 262.907ZM279.628 262.907L266.938 249.837V276.523L280.004 289.98L292.96 276.639L279.628 262.907ZM279.628 235.443L266.672 222.098L253.715 235.443L266.672 248.787L279.628 235.443ZM266.405 249.837L253.715 262.907L240.383 276.639L253.339 289.983L266.405 276.526V249.837ZM252.963 262.907L240.007 249.562L227.051 262.907L240.007 276.251L252.963 262.907ZM226.299 262.907L213.61 249.837V276.523L226.675 289.98L239.631 276.639L226.299 262.907ZM226.299 235.443L213.343 222.098L200.387 235.443L213.343 248.787L226.299 235.443ZM213.076 249.837L200.387 262.907L187.055 276.639L200.011 289.983L213.076 276.526V249.837ZM199.635 262.907L186.679 249.562L173.723 262.907L186.679 276.251L199.635 262.907ZM172.971 262.907L160.281 249.837V276.523L173.347 289.98L186.303 276.639L172.971 262.907ZM172.971 235.443L160.015 222.098L147.059 235.443L160.015 248.787L172.971 235.443ZM159.748 249.837L147.059 262.907L133.726 276.639L146.683 289.983L159.748 276.526V249.837ZM146.307 262.907L133.35 249.562L120.394 262.907L133.35 276.251L146.307 262.907ZM119.642 262.907L106.953 249.837V276.523L120.018 289.98L132.974 276.639L119.642 262.907ZM119.642 235.443L106.686 222.098L93.7301 235.443L106.686 248.787L119.642 235.443ZM106.42 249.837L93.7301 262.907L80.398 276.639L93.3541 289.983L106.42 276.526V249.837ZM92.9782 262.907L80.022 249.562L67.0659 262.907L80.022 276.251L92.9782 262.907ZM66.3139 262.907L53.6244 249.837V276.523L66.6899 289.98L79.6461 276.639L66.3139 262.907ZM66.3139 235.443L53.3578 222.098L40.4016 235.443L53.3578 248.787L66.3139 235.443ZM53.0912 249.837L40.4016 262.907L27.0695 276.639L40.0257 289.983L53.0912 276.526V249.837ZM39.6497 262.907L26.6936 249.562L13.7374 262.907L26.6936 276.251L39.6497 262.907ZM39.6497 207.979L26.6936 194.634L13.7374 207.979L26.6936 221.324L39.6497 207.979ZM39.6497 153.051L26.6936 139.707L13.7374 153.051L26.6936 166.396L39.6497 153.051ZM39.6497 98.1235L26.6936 84.7788L13.7374 98.1235L26.6936 111.468L39.6497 98.1235ZM39.6497 43.1958L26.6936 29.8511L13.7374 43.1958L26.6936 56.5405L39.6497 43.1958ZM39.6497 15.7319L26.9602 2.66188V29.3485L40.0257 42.8058L52.9818 29.4639L39.6497 15.7319ZM53.3578 2.38724L40.4016 15.7319L53.3578 29.0766L66.3139 15.7319L53.3578 2.38724ZM79.7554 2.66188L67.0659 15.7319L53.7337 29.4639L66.6899 42.8085L79.7554 29.3512V2.66188ZM67.0659 43.1958L80.022 56.5405L92.9782 43.1958L80.022 29.8511L67.0659 43.1958ZM92.9782 15.7319L80.2887 2.66188V29.3485L93.3541 42.8058L106.31 29.4639L92.9782 15.7319ZM106.686 2.38724L93.7301 15.7319L106.686 29.0766L119.642 15.7319L106.686 2.38724ZM133.084 2.66188L120.394 15.7319L107.062 29.4639L120.018 42.8085L133.084 29.3512V2.66188ZM120.394 43.1958L133.35 56.5405L146.307 43.1958L133.35 29.8511L120.394 43.1958ZM146.307 15.7319L133.617 2.66188V29.3485L146.683 42.8058L159.639 29.4639L146.307 15.7319ZM160.015 2.38724L147.059 15.7319L160.015 29.0766L172.971 15.7319L160.015 2.38724ZM186.412 2.66188L173.723 15.7319L160.391 29.4639L173.347 42.8085L186.412 29.3512V2.66188ZM173.723 43.1958L186.679 56.5405L199.635 43.1958L186.679 29.8511L173.723 43.1958ZM199.635 15.7319L186.946 2.66188V29.3485L200.011 42.8058L212.967 29.4639L199.635 15.7319ZM213.343 2.38724L200.387 15.7319L213.343 29.0766L226.299 15.7319L213.343 2.38724ZM239.741 2.66188L227.051 15.7319L213.719 29.4639L226.675 42.8085L239.741 29.3512V2.66188ZM227.051 43.1958L240.007 56.5405L252.963 43.1958L240.007 29.8511L227.051 43.1958ZM252.963 15.7319L240.274 2.66188V29.3485L253.339 42.8058L266.296 29.4639L252.963 15.7319ZM266.672 2.38724L253.715 15.7319L266.672 29.0766L279.628 15.7319L266.672 2.38724ZM293.069 2.66188L280.38 15.7319L267.048 29.4639L280.004 42.8085L293.069 29.3512V2.66188ZM280.38 43.1958L293.336 56.5405L306.292 43.1958L293.336 29.8511L280.38 43.1958ZM306.292 15.7319L293.602 2.66188V29.3485L306.668 42.8058L319.624 29.4639L306.292 15.7319ZM319.733 56.8151V30.1285L307.044 43.1958L293.712 56.9277L306.668 70.2724L319.733 56.8151ZM306.292 70.6596L293.602 57.5896V84.2762L306.668 97.7335L319.624 84.3916L306.292 70.6596ZM319.733 111.743V85.0562L307.044 98.1235L293.712 111.855L306.668 125.2L319.733 111.743ZM306.292 125.587L293.602 112.517V139.204L306.668 152.661L319.624 139.319L306.292 125.587ZM319.733 166.671V139.984L307.044 153.051L293.712 166.783L306.668 180.128L319.733 166.671ZM306.292 180.515L293.602 167.445V194.132L306.668 207.589L319.624 194.247L306.292 180.515ZM319.733 221.598V194.912L307.044 207.979L293.712 221.711L306.668 235.056L319.733 221.598ZM306.292 235.443L293.602 222.373V249.059L306.668 262.517L319.624 249.175L306.292 235.443ZM319.733 276.526V249.839L307.044 262.907L293.712 276.639L306.668 289.983L319.733 276.526ZM319.624 304.102L306.292 290.37L293.602 277.3V303.987L306.668 317.444L319.624 304.102ZM293.336 331.179L306.292 317.834L293.336 304.49L280.38 317.834L293.336 331.179ZM280.004 317.447L293.069 303.99V277.303L280.38 290.373L267.048 304.105L280.004 317.447ZM266.672 303.715L279.628 290.37L266.672 277.026L253.715 290.37L266.672 303.715ZM266.296 304.102L252.963 290.37L240.274 277.3V303.987L253.339 317.444L266.296 304.102ZM240.007 331.179L252.963 317.834L240.007 304.49L227.051 317.834L240.007 331.179ZM226.675 317.447L239.741 303.99V277.303L227.051 290.373L213.719 304.105L226.675 317.447ZM213.343 303.715L226.299 290.37L213.343 277.026L200.387 290.37L213.343 303.715ZM212.967 304.102L199.635 290.37L186.946 277.3V303.987L200.011 317.444L212.967 304.102ZM186.679 331.179L199.635 317.834L186.679 304.49L173.723 317.834L186.679 331.179ZM173.347 317.447L186.412 303.99V277.303L173.723 290.373L160.391 304.105L173.347 317.447ZM160.015 303.715L172.971 290.37L160.015 277.026L147.059 290.37L160.015 303.715ZM159.639 304.102L146.307 290.37L133.617 277.3V303.987L146.683 317.444L159.639 304.102ZM133.35 331.179L146.307 317.834L133.35 304.49L120.394 317.834L133.35 331.179ZM120.018 317.447L133.084 303.99V277.303L120.394 290.373L107.062 304.105L120.018 317.447ZM106.686 303.715L119.642 290.37L106.686 277.026L93.7301 290.37L106.686 303.715ZM106.31 304.102L92.9782 290.37L80.2887 277.3V303.987L93.3541 317.444L106.31 304.102ZM80.022 331.179L92.9782 317.834L80.022 304.49L67.0659 317.834L80.022 331.179ZM66.6899 317.447L79.7554 303.99V277.303L67.0659 290.373L53.7337 304.105L66.6899 317.447ZM53.3578 303.715L66.3139 290.37L53.3578 277.026L40.4016 290.37L53.3578 303.715ZM52.9818 304.102L39.6497 290.37L26.9602 277.3V303.987L40.0257 317.444L52.9818 304.102ZM26.6936 331.179L39.6497 317.834L26.6936 304.49L13.7374 317.834L26.6936 331.179ZM0.405304 304.102L13.3615 317.447L26.4269 303.99V277.303L13.7374 290.373L0.405304 304.102ZM0.29599 276.526L13.3615 289.983L26.3176 276.639L12.9855 262.907L0.29599 249.837V276.526ZM0.405304 249.175L13.3615 262.519L26.4269 249.062V222.375L13.7374 235.445L0.405304 249.175ZM0.29599 221.598L13.3615 235.056L26.3176 221.711L12.9855 207.979L0.29599 194.909V221.598ZM0.405304 194.247L13.3615 207.592L26.4269 194.134V167.448L13.7374 180.518L0.405304 194.247ZM0.29599 166.671L13.3615 180.128L26.3176 166.783L12.9855 153.051L0.29599 139.981V166.671ZM0.405304 139.319L13.3615 152.664L26.4269 139.207V112.52L13.7374 125.59L0.405304 139.319ZM0.29599 111.743L13.3615 125.2L26.3176 111.855L12.9855 98.1235L0.29599 85.0534V111.743ZM0.405304 84.3916L13.3615 97.7362L26.4269 84.279V57.5923L13.7374 70.6624L0.405304 84.3916ZM0.29599 56.8151L13.3615 70.2724L26.3176 56.9277L12.9855 43.1958L0.29599 30.1257V56.8151ZM0.405304 29.4639L13.3615 42.8085L26.4269 29.3512V2.66188L13.7374 15.7319L0.405304 29.4639Z" fill="url(#paint1_linear)"/>
<path d="M0.0293579 2H0.405304L13.3615 15.3447L26.3176 2H27.0722L40.0257 15.3447L52.9818 2H53.7364L66.6899 15.3447L79.6461 2H80.4006L93.3541 15.3447L106.31 2H107.065L120.018 15.3447L132.974 2H133.729L146.683 15.3447L159.639 2H160.393L173.347 15.3447L186.303 2H187.058L200.011 15.3447L212.967 2H213.722L226.675 15.3447L239.631 2H240.386L253.339 15.3447L266.296 2H267.05L280.004 15.3447L292.96 2H293.714L306.668 15.3447L319.624 2H320V2.38724L307.044 15.7319L320 29.0766V57.3177L307.044 70.6596L320 84.0043V112.245L307.044 125.587L320 138.932V167.173L307.044 180.515L320 193.86V222.101L307.044 235.443L320 248.787V277.029L307.044 290.37L320 303.715V331.566H319.624L319.733 331.454V304.767L307.044 317.834L293.712 331.566H292.957L279.625 317.834L266.936 304.764V331.451L267.045 331.563H266.29L266.4 331.451V304.764L253.71 317.834L240.378 331.566H239.623L226.291 317.834L213.602 304.764V331.451L213.711 331.563H212.956L213.066 331.451V304.764L200.376 317.834L187.044 331.566H186.29L172.957 317.834L160.268 304.764V331.451L160.377 331.563H159.623L159.732 331.451V304.764L147.043 317.834L133.71 331.566H132.956L119.624 317.834L106.934 304.764V331.451L107.044 331.563H106.289L106.398 331.451V304.764L93.7088 317.834L80.3766 331.566H79.622L66.2899 317.834L53.6004 304.764V331.451L53.7097 331.563H52.9552L53.0645 331.451V304.764L40.375 317.834L27.0429 331.566H26.2883L12.9561 317.834L0.266663 304.764V331.451L0.376007 331.563H3.05176e-05V303.712L12.9561 290.368L3.05176e-05 277.023V248.787L12.9855 235.443L0.0293579 222.098V193.86L12.9855 180.515L0.0293579 167.17V138.932L12.9855 125.587L0.0293579 112.243V84.0043L12.9855 70.6596L0.0293579 57.3149V29.0766L12.9855 15.7319L0.0293579 2.38724V2ZM40.0257 235.056L53.0912 221.598V194.912L40.4016 207.982L27.0695 221.714L40.0257 235.056ZM26.9602 222.373V249.059L40.0257 262.517L52.9818 249.175L39.6497 235.443L26.9602 222.373ZM292.96 221.711L279.628 207.979L266.938 194.909V221.595L280.004 235.053L292.96 221.711ZM267.048 249.175L280.004 262.519L293.069 249.062V222.375L280.38 235.443L267.048 249.175ZM79.6461 166.783L66.3139 153.051L53.6244 139.981V166.668L66.6899 180.125L79.6461 166.783ZM53.7337 194.247L66.6899 207.592L79.7554 194.134V167.448L67.0659 180.515L53.7337 194.247ZM53.6244 111.743L66.6899 125.2L79.6461 111.855L66.3139 98.1235L53.6244 85.0534V111.743ZM53.3578 112.243L40.4016 125.587L53.3578 138.932L66.3139 125.587L53.3578 112.243ZM67.0659 125.587L53.7337 139.319L66.6899 152.664L79.7554 139.207V112.52L67.0659 125.587ZM67.0659 153.051L80.022 166.396L92.9782 153.051L80.022 139.707L67.0659 153.051ZM92.9782 180.515L80.2887 167.445V194.132L93.3541 207.589L106.31 194.247L92.9782 180.515ZM93.3541 180.128L106.42 166.671V139.984L93.7301 153.051L80.398 166.783L93.3541 180.128ZM80.2887 139.207L93.3541 152.664L106.31 139.319L92.9782 125.587L80.2887 112.517V139.207ZM93.3541 125.2L106.42 111.743V85.0562L93.7301 98.1235L80.398 111.855L93.3541 125.2ZM93.7301 125.587L106.686 138.932L119.642 125.587L106.686 112.243L93.7301 125.587ZM132.974 166.783L119.642 153.051L106.953 139.981V166.668L120.018 180.125L132.974 166.783ZM107.062 194.247L120.018 207.592L133.084 194.134V167.448L120.394 180.515L107.062 194.247ZM106.953 111.743L120.018 125.2L132.974 111.855L119.642 98.1235L106.953 85.0534V111.743ZM120.394 125.587L107.062 139.319L120.018 152.664L133.084 139.207V112.52L120.394 125.587ZM120.394 153.051L133.35 166.396L146.307 153.051L133.35 139.707L120.394 153.051ZM146.307 180.515L133.617 167.445V194.132L146.683 207.589L159.639 194.247L146.307 180.515ZM146.683 180.128L159.748 166.671V139.984L147.059 153.051L133.726 166.783L146.683 180.128ZM133.617 139.207L146.683 152.664L159.639 139.319L146.307 125.587L133.617 112.517V139.207ZM146.683 125.2L159.748 111.743V85.0562L147.059 98.1235L133.726 111.855L146.683 125.2ZM147.059 125.587L160.015 138.932L172.971 125.587L160.015 112.243L147.059 125.587ZM186.303 166.783L172.971 153.051L160.281 139.981V166.668L173.347 180.125L186.303 166.783ZM160.391 194.247L173.347 207.592L186.412 194.134V167.448L173.723 180.515L160.391 194.247ZM160.281 111.743L173.347 125.2L186.303 111.855L172.971 98.1235L160.281 85.0534V111.743ZM173.723 125.587L160.391 139.319L173.347 152.664L186.412 139.207V112.52L173.723 125.587ZM173.723 153.051L186.679 166.396L199.635 153.051L186.679 139.707L173.723 153.051ZM199.635 180.515L186.946 167.445V194.132L200.011 207.589L212.967 194.247L199.635 180.515ZM200.011 180.128L213.076 166.671V139.984L200.387 153.051L187.055 166.783L200.011 180.128ZM186.946 139.207L200.011 152.664L212.967 139.319L199.635 125.587L186.946 112.517V139.207ZM200.011 125.2L213.076 111.743V85.0562L200.387 98.1235L187.055 111.855L200.011 125.2ZM200.387 125.587L213.343 138.932L226.299 125.587L213.343 112.243L200.387 125.587ZM239.631 166.783L226.299 153.051L213.61 139.981V166.668L226.675 180.125L239.631 166.783ZM213.719 194.247L226.675 207.592L239.741 194.134V167.448L227.051 180.515L213.719 194.247ZM213.61 111.743L226.675 125.2L239.631 111.855L226.299 98.1235L213.61 85.0534V111.743ZM227.051 125.587L213.719 139.319L226.675 152.664L239.741 139.207V112.52L227.051 125.587ZM227.051 153.051L240.007 166.396L252.963 153.051L240.007 139.707L227.051 153.051ZM252.963 180.515L240.274 167.445V194.132L253.339 207.589L266.296 194.247L252.963 180.515ZM253.339 180.128L266.405 166.671V139.984L253.715 153.051L240.383 166.783L253.339 180.128ZM240.274 139.207L253.339 152.664L266.296 139.319L252.963 125.587L240.274 112.517V139.207ZM253.339 125.2L266.405 111.743V85.0562L253.715 98.1235L240.383 111.855L253.339 125.2ZM253.715 125.587L266.672 138.932L279.628 125.587L266.672 112.243L253.715 125.587ZM266.938 111.743L280.004 125.2L292.96 111.855L279.628 98.1235L266.938 85.0534V111.743ZM280.38 125.587L267.048 139.319L280.004 152.664L293.069 139.207V112.52L280.38 125.587ZM279.628 153.051L266.938 139.981V166.668L280.004 180.125L292.96 166.783L279.628 153.051ZM280.38 180.515L267.048 194.247L280.004 207.592L293.069 194.134V167.448L280.38 180.515ZM279.628 180.515L266.672 167.17L253.715 180.515L266.672 193.86L279.628 180.515ZM266.405 194.909L253.715 207.979L240.383 221.711L253.339 235.056L266.405 221.598V194.909ZM252.963 235.443L240.274 222.373V249.059L253.339 262.517L266.296 249.175L252.963 235.443ZM252.963 207.979L240.007 194.634L227.051 207.979L240.007 221.324L252.963 207.979ZM239.741 222.373L227.051 235.443L213.719 249.175L226.675 262.519L239.741 249.062V222.373ZM239.631 221.711L226.299 207.979L213.61 194.909V221.595L226.675 235.053L239.631 221.711ZM226.299 180.515L213.343 167.17L200.387 180.515L213.343 193.86L226.299 180.515ZM213.076 194.909L200.387 207.979L187.055 221.711L200.011 235.056L213.076 221.598V194.909ZM199.635 235.443L186.946 222.373V249.059L200.011 262.517L212.967 249.175L199.635 235.443ZM199.635 207.979L186.679 194.634L173.723 207.979L186.679 221.324L199.635 207.979ZM186.412 222.373L173.723 235.443L160.391 249.175L173.347 262.519L186.412 249.062V222.373ZM186.303 221.711L172.971 207.979L160.281 194.909V221.595L173.347 235.053L186.303 221.711ZM172.971 180.515L160.015 167.17L147.059 180.515L160.015 193.86L172.971 180.515ZM159.748 194.909L147.059 207.979L133.726 221.711L146.683 235.056L159.748 221.598V194.909ZM146.307 235.443L133.617 222.373V249.059L146.683 262.517L159.639 249.175L146.307 235.443ZM146.307 207.979L133.35 194.634L120.394 207.979L133.35 221.324L146.307 207.979ZM133.084 222.373L120.394 235.443L107.062 249.175L120.018 262.519L133.084 249.062V222.373ZM132.974 221.711L119.642 207.979L106.953 194.909V221.595L120.018 235.053L132.974 221.711ZM119.642 180.515L106.686 167.17L93.7301 180.515L106.686 193.86L119.642 180.515ZM106.42 194.909L93.7301 207.979L80.398 221.711L93.3541 235.056L106.42 221.598V194.909ZM92.9782 235.443L80.2887 222.373V249.059L93.3541 262.517L106.31 249.175L92.9782 235.443ZM92.9782 207.979L80.022 194.634L67.0659 207.979L80.022 221.324L92.9782 207.979ZM79.7554 222.373L67.0659 235.443L53.7337 249.175L66.6899 262.519L79.7554 249.062V222.373ZM79.6461 221.711L66.3139 207.979L53.6244 194.909V221.595L66.6899 235.053L79.6461 221.711ZM66.3139 180.515L53.3578 167.17L40.4016 180.515L53.3578 193.86L66.3139 180.515ZM52.9818 194.247L39.6497 180.515L26.9602 167.445V194.132L40.0257 207.589L52.9818 194.247ZM40.0257 180.128L53.0912 166.671V139.984L40.4016 153.054L27.0695 166.786L40.0257 180.128ZM52.9818 139.319L39.6497 125.587L26.9602 112.517V139.204L40.0257 152.661L52.9818 139.319ZM40.0257 125.2L53.0912 111.743V85.0562L40.4016 98.1262L27.0695 111.858L40.0257 125.2ZM52.9818 84.3916L39.6497 70.6596L26.9602 57.5896V84.2762L40.0257 97.7335L52.9818 84.3916ZM40.0257 70.2724L53.0912 56.8151V30.1285L40.4016 43.1985L27.0695 56.9305L40.0257 70.2724ZM40.4016 70.6596L53.3578 84.0043L66.3139 70.6596L53.3578 57.3149L40.4016 70.6596ZM53.6244 56.8151L66.6899 70.2724L79.6461 56.9277L66.3139 43.1958L53.6244 30.1257V56.8151ZM67.0659 70.6596L53.7337 84.3916L66.6899 97.7362L79.7554 84.279V57.5923L67.0659 70.6596ZM67.0659 98.1235L80.022 111.468L92.9782 98.1235L80.022 84.7788L67.0659 98.1235ZM80.2887 84.279L93.3541 97.7362L106.31 84.3916L92.9782 70.6596L80.2887 57.5896V84.279ZM93.3541 70.2724L106.42 56.8151V30.1285L93.7301 43.1958L80.398 56.9277L93.3541 70.2724ZM93.7301 70.6596L106.686 84.0043L119.642 70.6596L106.686 57.3149L93.7301 70.6596ZM106.953 56.8151L120.018 70.2724L132.974 56.9277L119.642 43.1958L106.953 30.1257V56.8151ZM120.394 70.6596L107.062 84.3916L120.018 97.7362L133.084 84.279V57.5923L120.394 70.6596ZM120.394 98.1235L133.35 111.468L146.307 98.1235L133.35 84.7788L120.394 98.1235ZM133.617 84.279L146.683 97.7362L159.639 84.3916L146.307 70.6596L133.617 57.5896V84.279ZM146.683 70.2724L159.748 56.8151V30.1285L147.059 43.1958L133.726 56.9277L146.683 70.2724ZM147.059 70.6596L160.015 84.0043L172.971 70.6596L160.015 57.3149L147.059 70.6596ZM160.281 56.8151L173.347 70.2724L186.303 56.9277L172.971 43.1958L160.281 30.1257V56.8151ZM173.723 70.6596L160.391 84.3916L173.347 97.7362L186.412 84.279V57.5923L173.723 70.6596ZM173.723 98.1235L186.679 111.468L199.635 98.1235L186.679 84.7788L173.723 98.1235ZM186.946 84.279L200.011 97.7362L212.967 84.3916L199.635 70.6596L186.946 57.5896V84.279ZM200.011 70.2724L213.076 56.8151V30.1285L200.387 43.1958L187.055 56.9277L200.011 70.2724ZM200.387 70.6596L213.343 84.0043L226.299 70.6596L213.343 57.3149L200.387 70.6596ZM213.61 56.8151L226.675 70.2724L239.631 56.9277L226.299 43.1958L213.61 30.1257V56.8151ZM227.051 70.6596L213.719 84.3916L226.675 97.7362L239.741 84.279V57.5923L227.051 70.6596ZM227.051 98.1235L240.007 111.468L252.963 98.1235L240.007 84.7788L227.051 98.1235ZM240.274 84.279L253.339 97.7362L266.296 84.3916L252.963 70.6596L240.274 57.5896V84.279ZM253.339 70.2724L266.405 56.8151V30.1285L253.715 43.1958L240.383 56.9277L253.339 70.2724ZM253.715 70.6596L266.672 84.0043L279.628 70.6596L266.672 57.3149L253.715 70.6596ZM266.938 56.8151L280.004 70.2724L292.96 56.9277L279.628 43.1958L266.938 30.1257V56.8151ZM280.38 70.6596L267.048 84.3916L280.004 97.7362L293.069 84.279V57.5923L280.38 70.6596ZM280.38 98.1235L293.336 111.468L306.292 98.1235L293.336 84.7788L280.38 98.1235ZM280.38 153.051L293.336 166.396L306.292 153.051L293.336 139.707L280.38 153.051ZM280.38 207.979L293.336 221.324L306.292 207.979L293.336 194.634L280.38 207.979ZM280.38 262.907L293.336 276.251L306.292 262.907L293.336 249.562L280.38 262.907ZM279.628 262.907L266.938 249.837V276.523L280.004 289.98L292.96 276.639L279.628 262.907ZM279.628 235.443L266.672 222.098L253.715 235.443L266.672 248.787L279.628 235.443ZM266.405 249.837L253.715 262.907L240.383 276.639L253.339 289.983L266.405 276.526V249.837ZM252.963 262.907L240.007 249.562L227.051 262.907L240.007 276.251L252.963 262.907ZM226.299 262.907L213.61 249.837V276.523L226.675 289.98L239.631 276.639L226.299 262.907ZM226.299 235.443L213.343 222.098L200.387 235.443L213.343 248.787L226.299 235.443ZM213.076 249.837L200.387 262.907L187.055 276.639L200.011 289.983L213.076 276.526V249.837ZM199.635 262.907L186.679 249.562L173.723 262.907L186.679 276.251L199.635 262.907ZM172.971 262.907L160.281 249.837V276.523L173.347 289.98L186.303 276.639L172.971 262.907ZM172.971 235.443L160.015 222.098L147.059 235.443L160.015 248.787L172.971 235.443ZM159.748 249.837L147.059 262.907L133.726 276.639L146.683 289.983L159.748 276.526V249.837ZM146.307 262.907L133.35 249.562L120.394 262.907L133.35 276.251L146.307 262.907ZM119.642 262.907L106.953 249.837V276.523L120.018 289.98L132.974 276.639L119.642 262.907ZM119.642 235.443L106.686 222.098L93.7301 235.443L106.686 248.787L119.642 235.443ZM106.42 249.837L93.7301 262.907L80.398 276.639L93.3541 289.983L106.42 276.526V249.837ZM92.9782 262.907L80.022 249.562L67.0659 262.907L80.022 276.251L92.9782 262.907ZM66.3139 262.907L53.6244 249.837V276.523L66.6899 289.98L79.6461 276.639L66.3139 262.907ZM66.3139 235.443L53.3578 222.098L40.4016 235.443L53.3578 248.787L66.3139 235.443ZM53.0912 249.837L40.4016 262.907L27.0695 276.639L40.0257 289.983L53.0912 276.526V249.837ZM39.6497 262.907L26.6936 249.562L13.7374 262.907L26.6936 276.251L39.6497 262.907ZM39.6497 207.979L26.6936 194.634L13.7374 207.979L26.6936 221.324L39.6497 207.979ZM39.6497 153.051L26.6936 139.707L13.7374 153.051L26.6936 166.396L39.6497 153.051ZM39.6497 98.1235L26.6936 84.7788L13.7374 98.1235L26.6936 111.468L39.6497 98.1235ZM39.6497 43.1958L26.6936 29.8511L13.7374 43.1958L26.6936 56.5405L39.6497 43.1958ZM39.6497 15.7319L26.9602 2.66188V29.3485L40.0257 42.8058L52.9818 29.4639L39.6497 15.7319ZM53.3578 2.38724L40.4016 15.7319L53.3578 29.0766L66.3139 15.7319L53.3578 2.38724ZM79.7554 2.66188L67.0659 15.7319L53.7337 29.4639L66.6899 42.8085L79.7554 29.3512V2.66188ZM67.0659 43.1958L80.022 56.5405L92.9782 43.1958L80.022 29.8511L67.0659 43.1958ZM92.9782 15.7319L80.2887 2.66188V29.3485L93.3541 42.8058L106.31 29.4639L92.9782 15.7319ZM106.686 2.38724L93.7301 15.7319L106.686 29.0766L119.642 15.7319L106.686 2.38724ZM133.084 2.66188L120.394 15.7319L107.062 29.4639L120.018 42.8085L133.084 29.3512V2.66188ZM120.394 43.1958L133.35 56.5405L146.307 43.1958L133.35 29.8511L120.394 43.1958ZM146.307 15.7319L133.617 2.66188V29.3485L146.683 42.8058L159.639 29.4639L146.307 15.7319ZM160.015 2.38724L147.059 15.7319L160.015 29.0766L172.971 15.7319L160.015 2.38724ZM186.412 2.66188L173.723 15.7319L160.391 29.4639L173.347 42.8085L186.412 29.3512V2.66188ZM173.723 43.1958L186.679 56.5405L199.635 43.1958L186.679 29.8511L173.723 43.1958ZM199.635 15.7319L186.946 2.66188V29.3485L200.011 42.8058L212.967 29.4639L199.635 15.7319ZM213.343 2.38724L200.387 15.7319L213.343 29.0766L226.299 15.7319L213.343 2.38724ZM239.741 2.66188L227.051 15.7319L213.719 29.4639L226.675 42.8085L239.741 29.3512V2.66188ZM227.051 43.1958L240.007 56.5405L252.963 43.1958L240.007 29.8511L227.051 43.1958ZM252.963 15.7319L240.274 2.66188V29.3485L253.339 42.8058L266.296 29.4639L252.963 15.7319ZM266.672 2.38724L253.715 15.7319L266.672 29.0766L279.628 15.7319L266.672 2.38724ZM293.069 2.66188L280.38 15.7319L267.048 29.4639L280.004 42.8085L293.069 29.3512V2.66188ZM280.38 43.1958L293.336 56.5405L306.292 43.1958L293.336 29.8511L280.38 43.1958ZM306.292 15.7319L293.602 2.66188V29.3485L306.668 42.8058L319.624 29.4639L306.292 15.7319ZM319.733 56.8151V30.1285L307.044 43.1958L293.712 56.9277L306.668 70.2724L319.733 56.8151ZM306.292 70.6596L293.602 57.5896V84.2762L306.668 97.7335L319.624 84.3916L306.292 70.6596ZM319.733 111.743V85.0562L307.044 98.1235L293.712 111.855L306.668 125.2L319.733 111.743ZM306.292 125.587L293.602 112.517V139.204L306.668 152.661L319.624 139.319L306.292 125.587ZM319.733 166.671V139.984L307.044 153.051L293.712 166.783L306.668 180.128L319.733 166.671ZM306.292 180.515L293.602 167.445V194.132L306.668 207.589L319.624 194.247L306.292 180.515ZM319.733 221.598V194.912L307.044 207.979L293.712 221.711L306.668 235.056L319.733 221.598ZM306.292 235.443L293.602 222.373V249.059L306.668 262.517L319.624 249.175L306.292 235.443ZM319.733 276.526V249.839L307.044 262.907L293.712 276.639L306.668 289.983L319.733 276.526ZM319.624 304.102L306.292 290.37L293.602 277.3V303.987L306.668 317.444L319.624 304.102ZM293.336 331.179L306.292 317.834L293.336 304.49L280.38 317.834L293.336 331.179ZM280.004 317.447L293.069 303.99V277.303L280.38 290.373L267.048 304.105L280.004 317.447ZM266.672 303.715L279.628 290.37L266.672 277.026L253.715 290.37L266.672 303.715ZM266.296 304.102L252.963 290.37L240.274 277.3V303.987L253.339 317.444L266.296 304.102ZM240.007 331.179L252.963 317.834L240.007 304.49L227.051 317.834L240.007 331.179ZM226.675 317.447L239.741 303.99V277.303L227.051 290.373L213.719 304.105L226.675 317.447ZM213.343 303.715L226.299 290.37L213.343 277.026L200.387 290.37L213.343 303.715ZM212.967 304.102L199.635 290.37L186.946 277.3V303.987L200.011 317.444L212.967 304.102ZM186.679 331.179L199.635 317.834L186.679 304.49L173.723 317.834L186.679 331.179ZM173.347 317.447L186.412 303.99V277.303L173.723 290.373L160.391 304.105L173.347 317.447ZM160.015 303.715L172.971 290.37L160.015 277.026L147.059 290.37L160.015 303.715ZM159.639 304.102L146.307 290.37L133.617 277.3V303.987L146.683 317.444L159.639 304.102ZM133.35 331.179L146.307 317.834L133.35 304.49L120.394 317.834L133.35 331.179ZM120.018 317.447L133.084 303.99V277.303L120.394 290.373L107.062 304.105L120.018 317.447ZM106.686 303.715L119.642 290.37L106.686 277.026L93.7301 290.37L106.686 303.715ZM106.31 304.102L92.9782 290.37L80.2887 277.3V303.987L93.3541 317.444L106.31 304.102ZM80.022 331.179L92.9782 317.834L80.022 304.49L67.0659 317.834L80.022 331.179ZM66.6899 317.447L79.7554 303.99V277.303L67.0659 290.373L53.7337 304.105L66.6899 317.447ZM53.3578 303.715L66.3139 290.37L53.3578 277.026L40.4016 290.37L53.3578 303.715ZM52.9818 304.102L39.6497 290.37L26.9602 277.3V303.987L40.0257 317.444L52.9818 304.102ZM26.6936 331.179L39.6497 317.834L26.6936 304.49L13.7374 317.834L26.6936 331.179ZM0.405304 304.102L13.3615 317.447L26.4269 303.99V277.303L13.7374 290.373L0.405304 304.102ZM0.29599 276.526L13.3615 289.983L26.3176 276.639L12.9855 262.907L0.29599 249.837V276.526ZM0.405304 249.175L13.3615 262.519L26.4269 249.062V222.375L13.7374 235.445L0.405304 249.175ZM0.29599 221.598L13.3615 235.056L26.3176 221.711L12.9855 207.979L0.29599 194.909V221.598ZM0.405304 194.247L13.3615 207.592L26.4269 194.134V167.448L13.7374 180.518L0.405304 194.247ZM0.29599 166.671L13.3615 180.128L26.3176 166.783L12.9855 153.051L0.29599 139.981V166.671ZM0.405304 139.319L13.3615 152.664L26.4269 139.207V112.52L13.7374 125.59L0.405304 139.319ZM0.29599 111.743L13.3615 125.2L26.3176 111.855L12.9855 98.1235L0.29599 85.0534V111.743ZM0.405304 84.3916L13.3615 97.7362L26.4269 84.279V57.5923L13.7374 70.6624L0.405304 84.3916ZM0.29599 56.8151L13.3615 70.2724L26.3176 56.9277L12.9855 43.1958L0.29599 30.1257V56.8151ZM0.405304 29.4639L13.3615 42.8085L26.4269 29.3512V2.66188L13.7374 15.7319L0.405304 29.4639Z" fill="#3A5691"/>
</g>
<g opacity="0.8">
<rect y="2" width="320" height="655" fill="url(#paint2_linear)" fill-opacity="0.8"/>
<rect y="2" width="320" height="655" fill="url(#paint3_linear)"/>
</g>
</g>
<defs>
<filter id="filter0_f" x="-1.3625" y="330.204" width="322.725" height="328.159" filterUnits="userSpaceOnUse" color-interpolation-filters="sRGB">
<feFlood flood-opacity="0" result="BackgroundImageFix"/>
<feBlend mode="normal" in="SourceGraphic" in2="BackgroundImageFix" result="shape"/>
<feGaussianBlur stdDeviation="0.681249" result="effect1_foregroundBlur"/>
</filter>
<filter id="filter1_f" x="-1.3625" y="0.637501" width="322.725" height="332.291" filterUnits="userSpaceOnUse" color-interpolation-filters="sRGB">
<feFlood flood-opacity="0" result="BackgroundImageFix"/>
<feBlend mode="normal" in="SourceGraphic" in2="BackgroundImageFix" result="shape"/>
<feGaussianBlur stdDeviation="0.681249" result="effect1_foregroundBlur"/>
</filter>
<linearGradient id="paint0_linear" x1="320" y1="494.283" x2="0.0293323" y2="494.283" gradientUnits="userSpaceOnUse">
<stop stop-color="#BE965D"/>
<stop offset="0.2784" stop-color="#976F40"/>
<stop offset="0.4259" stop-color="#C99B61"/>
<stop offset="0.5584" stop-color="#F0BE7B"/>
<stop offset="0.6275" stop-color="#FFCB85"/>
<stop offset="0.7085" stop-color="#EEBC79"/>
<stop offset="0.8693" stop-color="#C0935B"/>
<stop offset="1" stop-color="#976F40"/>
</linearGradient>
<linearGradient id="paint1_linear" x1="320" y1="166.783" x2="0.0293323" y2="166.783" gradientUnits="userSpaceOnUse">
<stop stop-color="#BE965D"/>
<stop offset="0.2784" stop-color="#976F40"/>
<stop offset="0.4259" stop-color="#C99B61"/>
<stop offset="0.5584" stop-color="#F0BE7B"/>
<stop offset="0.6275" stop-color="#FFCB85"/>
<stop offset="0.7085" stop-color="#EEBC79"/>
<stop offset="0.8693" stop-color="#C0935B"/>
<stop offset="1" stop-color="#976F40"/>
</linearGradient>
<linearGradient id="paint2_linear" x1="160" y1="2" x2="160" y2="657" gradientUnits="userSpaceOnUse">
<stop stop-color="#E7EAF6"/>
<stop offset="0.5" stop-color="#E7EAF6" stop-opacity="0"/>
<stop offset="1" stop-color="#E7EAF7"/>
</linearGradient>
<linearGradient id="paint3_linear" x1="-2.25" y1="303.414" x2="320" y2="303.414" gradientUnits="userSpaceOnUse">
<stop stop-color="white" stop-opacity="0"/>
<stop offset="0.324276" stop-color="#E7EAF6"/>
<stop offset="0.691488" stop-color="#E7EAF6"/>
<stop offset="1" stop-color="white" stop-opacity="0"/>
</linearGradient>
</defs>
</svg>
