<svg width="320" height="682" viewBox="0 0 320 682" fill="none" xmlns="http://www.w3.org/2000/svg">
<g opacity="0.3">
<g filter="url(#filter0_f)">
<path d="M-0.970642 340.527H-0.594696L12.3615 354.063L25.3176 340.527H26.0722L39.0257 354.063L51.9818 340.527H52.7364L65.6899 354.063L78.6461 340.527H79.4006L92.3541 354.063L105.31 340.527H106.065L119.018 354.063L131.974 340.527H132.729L145.683 354.063L158.639 340.527H159.393L172.347 354.063L185.303 340.527H186.058L199.011 354.063L211.967 340.527H212.722L225.675 354.063L238.631 340.527H239.386L252.339 354.063L265.296 340.527H266.05L279.004 354.063L291.96 340.527H292.714L305.668 354.063L318.624 340.527H319V340.92L306.044 354.456L319 367.991V396.637L306.044 410.17L319 423.705V452.35L306.044 465.883L319 479.419V508.064L306.044 521.597L319 535.133V563.778L306.044 577.311L319 590.846V619.492L306.044 633.024L319 646.56V674.81H318.624L318.733 674.696V647.627L306.044 660.881L292.712 674.81H291.957L278.625 660.881L265.936 647.624V674.693L266.045 674.807H265.29L265.4 674.693V647.624L252.71 660.881L239.378 674.81H238.623L225.291 660.881L212.602 647.624V674.693L212.711 674.807H211.956L212.066 674.693V647.624L199.376 660.881L186.044 674.81H185.29L171.957 660.881L159.268 647.624V674.693L159.377 674.807H158.623L158.732 674.693V647.624L146.043 660.881L132.71 674.81H131.956L118.624 660.881L105.934 647.624V674.693L106.044 674.807H105.289L105.398 674.693V647.624L92.7088 660.881L79.3766 674.81H78.622L65.2899 660.881L52.6004 647.624V674.693L52.7097 674.807H51.9552L52.0645 674.693V647.624L39.375 660.881L26.0429 674.81H25.2883L11.9561 660.881L-0.733337 647.624V674.693L-0.623993 674.807H-0.999969V646.557L11.9561 633.022L-0.999969 619.486V590.846L11.9855 577.311L-0.970642 563.775V535.133L11.9855 521.597L-0.970642 508.061V479.419L11.9855 465.883L-0.970642 452.348V423.705L11.9855 410.17L-0.970642 396.634V367.991L11.9855 354.456L-0.970642 340.92V340.527ZM39.0257 576.918L52.0912 563.268V536.2L39.4016 549.457L26.0695 563.385L39.0257 576.918ZM25.9602 564.054V591.122L39.0257 604.772L51.9818 591.239L38.6497 577.311L25.9602 564.054ZM291.96 563.382L278.628 549.454L265.938 536.197V563.265L279.004 576.915L291.96 563.382ZM266.048 591.239L279.004 604.775L292.069 591.125V564.056L279.38 577.311L266.048 591.239ZM78.6461 507.669L65.3139 493.74L52.6244 480.483V507.552L65.6899 521.201L78.6461 507.669ZM52.7337 535.525L65.6899 549.061L78.7554 535.411V508.343L66.0659 521.597L52.7337 535.525ZM52.6244 451.841L65.6899 465.49L78.6461 451.955L65.3139 438.026L52.6244 424.769V451.841ZM52.3578 452.348L39.4016 465.883L52.3578 479.419L65.3139 465.883L52.3578 452.348ZM66.0659 465.883L52.7337 479.812L65.6899 493.347L78.7554 479.697V452.629L66.0659 465.883ZM66.0659 493.74L79.022 507.276L91.9782 493.74L79.022 480.204L66.0659 493.74ZM91.9782 521.597L79.2887 508.34V535.408L92.3541 549.058L105.31 535.525L91.9782 521.597ZM92.3541 521.204L105.42 507.554V480.486L92.7301 493.74L79.398 507.669L92.3541 521.204ZM79.2887 479.697L92.3541 493.347L105.31 479.812L91.9782 465.883L79.2887 452.626V479.697ZM92.3541 465.49L105.42 451.841V424.772L92.7301 438.026L79.398 451.955L92.3541 465.49ZM92.7301 465.883L105.686 479.419L118.642 465.883L105.686 452.348L92.7301 465.883ZM131.974 507.669L118.642 493.74L105.953 480.483V507.552L119.018 521.201L131.974 507.669ZM106.062 535.525L119.018 549.061L132.084 535.411V508.343L119.394 521.597L106.062 535.525ZM105.953 451.841L119.018 465.49L131.974 451.955L118.642 438.026L105.953 424.769V451.841ZM119.394 465.883L106.062 479.812L119.018 493.347L132.084 479.697V452.629L119.394 465.883ZM119.394 493.74L132.35 507.276L145.307 493.74L132.35 480.204L119.394 493.74ZM145.307 521.597L132.617 508.34V535.408L145.683 549.058L158.639 535.525L145.307 521.597ZM145.683 521.204L158.748 507.554V480.486L146.059 493.74L132.726 507.669L145.683 521.204ZM132.617 479.697L145.683 493.347L158.639 479.812L145.307 465.883L132.617 452.626V479.697ZM145.683 465.49L158.748 451.841V424.772L146.059 438.026L132.726 451.955L145.683 465.49ZM146.059 465.883L159.015 479.419L171.971 465.883L159.015 452.348L146.059 465.883ZM185.303 507.669L171.971 493.74L159.281 480.483V507.552L172.347 521.201L185.303 507.669ZM159.391 535.525L172.347 549.061L185.412 535.411V508.343L172.723 521.597L159.391 535.525ZM159.281 451.841L172.347 465.49L185.303 451.955L171.971 438.026L159.281 424.769V451.841ZM172.723 465.883L159.391 479.812L172.347 493.347L185.412 479.697V452.629L172.723 465.883ZM172.723 493.74L185.679 507.276L198.635 493.74L185.679 480.204L172.723 493.74ZM198.635 521.597L185.946 508.34V535.408L199.011 549.058L211.967 535.525L198.635 521.597ZM199.011 521.204L212.076 507.554V480.486L199.387 493.74L186.055 507.669L199.011 521.204ZM185.946 479.697L199.011 493.347L211.967 479.812L198.635 465.883L185.946 452.626V479.697ZM199.011 465.49L212.076 451.841V424.772L199.387 438.026L186.055 451.955L199.011 465.49ZM199.387 465.883L212.343 479.419L225.299 465.883L212.343 452.348L199.387 465.883ZM238.631 507.669L225.299 493.74L212.61 480.483V507.552L225.675 521.201L238.631 507.669ZM212.719 535.525L225.675 549.061L238.741 535.411V508.343L226.051 521.597L212.719 535.525ZM212.61 451.841L225.675 465.49L238.631 451.955L225.299 438.026L212.61 424.769V451.841ZM226.051 465.883L212.719 479.812L225.675 493.347L238.741 479.697V452.629L226.051 465.883ZM226.051 493.74L239.007 507.276L251.963 493.74L239.007 480.204L226.051 493.74ZM251.963 521.597L239.274 508.34V535.408L252.339 549.058L265.296 535.525L251.963 521.597ZM252.339 521.204L265.405 507.554V480.486L252.715 493.74L239.383 507.669L252.339 521.204ZM239.274 479.697L252.339 493.347L265.296 479.812L251.963 465.883L239.274 452.626V479.697ZM252.339 465.49L265.405 451.841V424.772L252.715 438.026L239.383 451.955L252.339 465.49ZM252.715 465.883L265.672 479.419L278.628 465.883L265.672 452.348L252.715 465.883ZM265.938 451.841L279.004 465.49L291.96 451.955L278.628 438.026L265.938 424.769V451.841ZM279.38 465.883L266.048 479.812L279.004 493.347L292.069 479.697V452.629L279.38 465.883ZM278.628 493.74L265.938 480.483V507.552L279.004 521.201L291.96 507.669L278.628 493.74ZM279.38 521.597L266.048 535.525L279.004 549.061L292.069 535.411V508.343L279.38 521.597ZM278.628 521.597L265.672 508.061L252.715 521.597L265.672 535.133L278.628 521.597ZM265.405 536.197L252.715 549.454L239.383 563.382L252.339 576.918L265.405 563.268V536.197ZM251.963 577.311L239.274 564.054V591.122L252.339 604.772L265.296 591.239L251.963 577.311ZM251.963 549.454L239.007 535.918L226.051 549.454L239.007 562.99L251.963 549.454ZM238.741 564.054L226.051 577.311L212.719 591.239L225.675 604.775L238.741 591.125V564.054ZM238.631 563.382L225.299 549.454L212.61 536.197V563.265L225.675 576.915L238.631 563.382ZM225.299 521.597L212.343 508.061L199.387 521.597L212.343 535.133L225.299 521.597ZM212.076 536.197L199.387 549.454L186.055 563.382L199.011 576.918L212.076 563.268V536.197ZM198.635 577.311L185.946 564.054V591.122L199.011 604.772L211.967 591.239L198.635 577.311ZM198.635 549.454L185.679 535.918L172.723 549.454L185.679 562.99L198.635 549.454ZM185.412 564.054L172.723 577.311L159.391 591.239L172.347 604.775L185.412 591.125V564.054ZM185.303 563.382L171.971 549.454L159.281 536.197V563.265L172.347 576.915L185.303 563.382ZM171.971 521.597L159.015 508.061L146.059 521.597L159.015 535.133L171.971 521.597ZM158.748 536.197L146.059 549.454L132.726 563.382L145.683 576.918L158.748 563.268V536.197ZM145.307 577.311L132.617 564.054V591.122L145.683 604.772L158.639 591.239L145.307 577.311ZM145.307 549.454L132.35 535.918L119.394 549.454L132.35 562.99L145.307 549.454ZM132.084 564.054L119.394 577.311L106.062 591.239L119.018 604.775L132.084 591.125V564.054ZM131.974 563.382L118.642 549.454L105.953 536.197V563.265L119.018 576.915L131.974 563.382ZM118.642 521.597L105.686 508.061L92.7301 521.597L105.686 535.133L118.642 521.597ZM105.42 536.197L92.7301 549.454L79.398 563.382L92.3541 576.918L105.42 563.268V536.197ZM91.9782 577.311L79.2887 564.054V591.122L92.3541 604.772L105.31 591.239L91.9782 577.311ZM91.9782 549.454L79.022 535.918L66.0659 549.454L79.022 562.99L91.9782 549.454ZM78.7554 564.054L66.0659 577.311L52.7337 591.239L65.6899 604.775L78.7554 591.125V564.054ZM78.6461 563.382L65.3139 549.454L52.6244 536.197V563.265L65.6899 576.915L78.6461 563.382ZM65.3139 521.597L52.3578 508.061L39.4016 521.597L52.3578 535.133L65.3139 521.597ZM51.9818 535.525L38.6497 521.597L25.9602 508.34V535.408L39.0257 549.058L51.9818 535.525ZM39.0257 521.204L52.0912 507.554V480.486L39.4016 493.743L26.0695 507.671L39.0257 521.204ZM51.9818 479.812L38.6497 465.883L25.9602 452.626V479.695L39.0257 493.345L51.9818 479.812ZM39.0257 465.49L52.0912 451.841V424.772L39.4016 438.029L26.0695 451.958L39.0257 465.49ZM51.9818 424.098L38.6497 410.17L25.9602 396.912V423.981L39.0257 437.631L51.9818 424.098ZM39.0257 409.777L52.0912 396.127V369.058L39.4016 382.315L26.0695 396.244L39.0257 409.777ZM39.4016 410.17L52.3578 423.705L65.3139 410.17L52.3578 396.634L39.4016 410.17ZM52.6244 396.127L65.6899 409.777L78.6461 396.241L65.3139 382.313L52.6244 369.056V396.127ZM66.0659 410.17L52.7337 424.098L65.6899 437.634L78.7554 423.984V396.915L66.0659 410.17ZM66.0659 438.026L79.022 451.562L91.9782 438.026L79.022 424.491L66.0659 438.026ZM79.2887 423.984L92.3541 437.634L105.31 424.098L91.9782 410.17L79.2887 396.912V423.984ZM92.3541 409.777L105.42 396.127V369.058L92.7301 382.313L79.398 396.241L92.3541 409.777ZM92.7301 410.17L105.686 423.705L118.642 410.17L105.686 396.634L92.7301 410.17ZM105.953 396.127L119.018 409.777L131.974 396.241L118.642 382.313L105.953 369.056V396.127ZM119.394 410.17L106.062 424.098L119.018 437.634L132.084 423.984V396.915L119.394 410.17ZM119.394 438.026L132.35 451.562L145.307 438.026L132.35 424.491L119.394 438.026ZM132.617 423.984L145.683 437.634L158.639 424.098L145.307 410.17L132.617 396.912V423.984ZM145.683 409.777L158.748 396.127V369.058L146.059 382.313L132.726 396.241L145.683 409.777ZM146.059 410.17L159.015 423.705L171.971 410.17L159.015 396.634L146.059 410.17ZM159.281 396.127L172.347 409.777L185.303 396.241L171.971 382.313L159.281 369.056V396.127ZM172.723 410.17L159.391 424.098L172.347 437.634L185.412 423.984V396.915L172.723 410.17ZM172.723 438.026L185.679 451.562L198.635 438.026L185.679 424.491L172.723 438.026ZM185.946 423.984L199.011 437.634L211.967 424.098L198.635 410.17L185.946 396.912V423.984ZM199.011 409.777L212.076 396.127V369.058L199.387 382.313L186.055 396.241L199.011 409.777ZM199.387 410.17L212.343 423.705L225.299 410.17L212.343 396.634L199.387 410.17ZM212.61 396.127L225.675 409.777L238.631 396.241L225.299 382.313L212.61 369.056V396.127ZM226.051 410.17L212.719 424.098L225.675 437.634L238.741 423.984V396.915L226.051 410.17ZM226.051 438.026L239.007 451.562L251.963 438.026L239.007 424.491L226.051 438.026ZM239.274 423.984L252.339 437.634L265.296 424.098L251.963 410.17L239.274 396.912V423.984ZM252.339 409.777L265.405 396.127V369.058L252.715 382.313L239.383 396.241L252.339 409.777ZM252.715 410.17L265.672 423.705L278.628 410.17L265.672 396.634L252.715 410.17ZM265.938 396.127L279.004 409.777L291.96 396.241L278.628 382.313L265.938 369.056V396.127ZM279.38 410.17L266.048 424.098L279.004 437.634L292.069 423.984V396.915L279.38 410.17ZM279.38 438.026L292.336 451.562L305.292 438.026L292.336 424.491L279.38 438.026ZM279.38 493.74L292.336 507.276L305.292 493.74L292.336 480.204L279.38 493.74ZM279.38 549.454L292.336 562.99L305.292 549.454L292.336 535.918L279.38 549.454ZM279.38 605.168L292.336 618.703L305.292 605.168L292.336 591.632L279.38 605.168ZM278.628 605.168L265.938 591.911V618.979L279.004 632.629L291.96 619.096L278.628 605.168ZM278.628 577.311L265.672 563.775L252.715 577.311L265.672 590.846L278.628 577.311ZM265.405 591.911L252.715 605.168L239.383 619.096L252.339 632.632L265.405 618.982V591.911ZM251.963 605.168L239.007 591.632L226.051 605.168L239.007 618.703L251.963 605.168ZM225.299 605.168L212.61 591.911V618.979L225.675 632.629L238.631 619.096L225.299 605.168ZM225.299 577.311L212.343 563.775L199.387 577.311L212.343 590.846L225.299 577.311ZM212.076 591.911L199.387 605.168L186.055 619.096L199.011 632.632L212.076 618.982V591.911ZM198.635 605.168L185.679 591.632L172.723 605.168L185.679 618.703L198.635 605.168ZM171.971 605.168L159.281 591.911V618.979L172.347 632.629L185.303 619.096L171.971 605.168ZM171.971 577.311L159.015 563.775L146.059 577.311L159.015 590.846L171.971 577.311ZM158.748 591.911L146.059 605.168L132.726 619.096L145.683 632.632L158.748 618.982V591.911ZM145.307 605.168L132.35 591.632L119.394 605.168L132.35 618.703L145.307 605.168ZM118.642 605.168L105.953 591.911V618.979L119.018 632.629L131.974 619.096L118.642 605.168ZM118.642 577.311L105.686 563.775L92.7301 577.311L105.686 590.846L118.642 577.311ZM105.42 591.911L92.7301 605.168L79.398 619.096L92.3541 632.632L105.42 618.982V591.911ZM91.9782 605.168L79.022 591.632L66.0659 605.168L79.022 618.703L91.9782 605.168ZM65.3139 605.168L52.6244 591.911V618.979L65.6899 632.629L78.6461 619.096L65.3139 605.168ZM65.3139 577.311L52.3578 563.775L39.4016 577.311L52.3578 590.846L65.3139 577.311ZM52.0912 591.911L39.4016 605.168L26.0695 619.096L39.0257 632.632L52.0912 618.982V591.911ZM38.6497 605.168L25.6936 591.632L12.7374 605.168L25.6936 618.703L38.6497 605.168ZM38.6497 549.454L25.6936 535.918L12.7374 549.454L25.6936 562.99L38.6497 549.454ZM38.6497 493.74L25.6936 480.204L12.7374 493.74L25.6936 507.276L38.6497 493.74ZM38.6497 438.026L25.6936 424.491L12.7374 438.026L25.6936 451.562L38.6497 438.026ZM38.6497 382.313L25.6936 368.777L12.7374 382.313L25.6936 395.848L38.6497 382.313ZM38.6497 354.456L25.9602 341.199V368.267L39.0257 381.917L51.9818 368.384L38.6497 354.456ZM52.3578 340.92L39.4016 354.456L52.3578 367.991L65.3139 354.456L52.3578 340.92ZM78.7554 341.199L66.0659 354.456L52.7337 368.384L65.6899 381.92L78.7554 368.27V341.199ZM66.0659 382.313L79.022 395.848L91.9782 382.313L79.022 368.777L66.0659 382.313ZM91.9782 354.456L79.2887 341.199V368.267L92.3541 381.917L105.31 368.384L91.9782 354.456ZM105.686 340.92L92.7301 354.456L105.686 367.991L118.642 354.456L105.686 340.92ZM132.084 341.199L119.394 354.456L106.062 368.384L119.018 381.92L132.084 368.27V341.199ZM119.394 382.313L132.35 395.848L145.307 382.313L132.35 368.777L119.394 382.313ZM145.307 354.456L132.617 341.199V368.267L145.683 381.917L158.639 368.384L145.307 354.456ZM159.015 340.92L146.059 354.456L159.015 367.991L171.971 354.456L159.015 340.92ZM185.412 341.199L172.723 354.456L159.391 368.384L172.347 381.92L185.412 368.27V341.199ZM172.723 382.313L185.679 395.848L198.635 382.313L185.679 368.777L172.723 382.313ZM198.635 354.456L185.946 341.199V368.267L199.011 381.917L211.967 368.384L198.635 354.456ZM212.343 340.92L199.387 354.456L212.343 367.991L225.299 354.456L212.343 340.92ZM238.741 341.199L226.051 354.456L212.719 368.384L225.675 381.92L238.741 368.27V341.199ZM226.051 382.313L239.007 395.848L251.963 382.313L239.007 368.777L226.051 382.313ZM251.963 354.456L239.274 341.199V368.267L252.339 381.917L265.296 368.384L251.963 354.456ZM265.672 340.92L252.715 354.456L265.672 367.991L278.628 354.456L265.672 340.92ZM292.069 341.199L279.38 354.456L266.048 368.384L279.004 381.92L292.069 368.27V341.199ZM279.38 382.313L292.336 395.848L305.292 382.313L292.336 368.777L279.38 382.313ZM305.292 354.456L292.602 341.199V368.267L305.668 381.917L318.624 368.384L305.292 354.456ZM318.733 396.127V369.058L306.044 382.313L292.712 396.241L305.668 409.777L318.733 396.127ZM305.292 410.17L292.602 396.912V423.981L305.668 437.631L318.624 424.098L305.292 410.17ZM318.733 451.841V424.772L306.044 438.026L292.712 451.955L305.668 465.49L318.733 451.841ZM305.292 465.883L292.602 452.626V479.695L305.668 493.345L318.624 479.812L305.292 465.883ZM318.733 507.554V480.486L306.044 493.74L292.712 507.669L305.668 521.204L318.733 507.554ZM305.292 521.597L292.602 508.34V535.408L305.668 549.058L318.624 535.525L305.292 521.597ZM318.733 563.268V536.2L306.044 549.454L292.712 563.382L305.668 576.918L318.733 563.268ZM305.292 577.311L292.602 564.054V591.122L305.668 604.772L318.624 591.239L305.292 577.311ZM318.733 618.982V591.913L306.044 605.168L292.712 619.096L305.668 632.632L318.733 618.982ZM318.624 646.953L305.292 633.024L292.602 619.767V646.836L305.668 660.486L318.624 646.953ZM292.336 674.417L305.292 660.881L292.336 647.346L279.38 660.881L292.336 674.417ZM279.004 660.489L292.069 646.839V619.77L279.38 633.027L266.048 646.956L279.004 660.489ZM265.672 646.56L278.628 633.024L265.672 619.489L252.715 633.024L265.672 646.56ZM265.296 646.953L251.963 633.024L239.274 619.767V646.836L252.339 660.486L265.296 646.953ZM239.007 674.417L251.963 660.881L239.007 647.346L226.051 660.881L239.007 674.417ZM225.675 660.489L238.741 646.839V619.77L226.051 633.027L212.719 646.956L225.675 660.489ZM212.343 646.56L225.299 633.024L212.343 619.489L199.387 633.024L212.343 646.56ZM211.967 646.953L198.635 633.024L185.946 619.767V646.836L199.011 660.486L211.967 646.953ZM185.679 674.417L198.635 660.881L185.679 647.346L172.723 660.881L185.679 674.417ZM172.347 660.489L185.412 646.839V619.77L172.723 633.027L159.391 646.956L172.347 660.489ZM159.015 646.56L171.971 633.024L159.015 619.489L146.059 633.024L159.015 646.56ZM158.639 646.953L145.307 633.024L132.617 619.767V646.836L145.683 660.486L158.639 646.953ZM132.35 674.417L145.307 660.881L132.35 647.346L119.394 660.881L132.35 674.417ZM119.018 660.489L132.084 646.839V619.77L119.394 633.027L106.062 646.956L119.018 660.489ZM105.686 646.56L118.642 633.024L105.686 619.489L92.7301 633.024L105.686 646.56ZM105.31 646.953L91.9782 633.024L79.2887 619.767V646.836L92.3541 660.486L105.31 646.953ZM79.022 674.417L91.9782 660.881L79.022 647.346L66.0659 660.881L79.022 674.417ZM65.6899 660.489L78.7554 646.839V619.77L66.0659 633.027L52.7337 646.956L65.6899 660.489ZM52.3578 646.56L65.3139 633.024L52.3578 619.489L39.4016 633.024L52.3578 646.56ZM51.9818 646.953L38.6497 633.024L25.9602 619.767V646.836L39.0257 660.486L51.9818 646.953ZM25.6936 674.417L38.6497 660.881L25.6936 647.346L12.7374 660.881L25.6936 674.417ZM-0.594696 646.953L12.3615 660.489L25.4269 646.839V619.77L12.7374 633.027L-0.594696 646.953ZM-0.70401 618.982L12.3615 632.632L25.3176 619.096L11.9855 605.168L-0.70401 591.911V618.982ZM-0.594696 591.239L12.3615 604.775L25.4269 591.125V564.056L12.7374 577.314L-0.594696 591.239ZM-0.70401 563.268L12.3615 576.918L25.3176 563.382L11.9855 549.454L-0.70401 536.197V563.268ZM-0.594696 535.525L12.3615 549.061L25.4269 535.411V508.343L12.7374 521.6L-0.594696 535.525ZM-0.70401 507.554L12.3615 521.204L25.3176 507.669L11.9855 493.74L-0.70401 480.483V507.554ZM-0.594696 479.812L12.3615 493.347L25.4269 479.697V452.629L12.7374 465.886L-0.594696 479.812ZM-0.70401 451.841L12.3615 465.49L25.3176 451.955L11.9855 438.026L-0.70401 424.769V451.841ZM-0.594696 424.098L12.3615 437.634L25.4269 423.984V396.915L12.7374 410.172L-0.594696 424.098ZM-0.70401 396.127L12.3615 409.777L25.3176 396.241L11.9855 382.313L-0.70401 369.056V396.127ZM-0.594696 368.384L12.3615 381.92L25.4269 368.27V341.199L12.7374 354.456L-0.594696 368.384Z" fill="url(#paint0_linear)"/>
<path d="M-0.970642 340.527H-0.594696L12.3615 354.063L25.3176 340.527H26.0722L39.0257 354.063L51.9818 340.527H52.7364L65.6899 354.063L78.6461 340.527H79.4006L92.3541 354.063L105.31 340.527H106.065L119.018 354.063L131.974 340.527H132.729L145.683 354.063L158.639 340.527H159.393L172.347 354.063L185.303 340.527H186.058L199.011 354.063L211.967 340.527H212.722L225.675 354.063L238.631 340.527H239.386L252.339 354.063L265.296 340.527H266.05L279.004 354.063L291.96 340.527H292.714L305.668 354.063L318.624 340.527H319V340.92L306.044 354.456L319 367.991V396.637L306.044 410.17L319 423.705V452.35L306.044 465.883L319 479.419V508.064L306.044 521.597L319 535.133V563.778L306.044 577.311L319 590.846V619.492L306.044 633.024L319 646.56V674.81H318.624L318.733 674.696V647.627L306.044 660.881L292.712 674.81H291.957L278.625 660.881L265.936 647.624V674.693L266.045 674.807H265.29L265.4 674.693V647.624L252.71 660.881L239.378 674.81H238.623L225.291 660.881L212.602 647.624V674.693L212.711 674.807H211.956L212.066 674.693V647.624L199.376 660.881L186.044 674.81H185.29L171.957 660.881L159.268 647.624V674.693L159.377 674.807H158.623L158.732 674.693V647.624L146.043 660.881L132.71 674.81H131.956L118.624 660.881L105.934 647.624V674.693L106.044 674.807H105.289L105.398 674.693V647.624L92.7088 660.881L79.3766 674.81H78.622L65.2899 660.881L52.6004 647.624V674.693L52.7097 674.807H51.9552L52.0645 674.693V647.624L39.375 660.881L26.0429 674.81H25.2883L11.9561 660.881L-0.733337 647.624V674.693L-0.623993 674.807H-0.999969V646.557L11.9561 633.022L-0.999969 619.486V590.846L11.9855 577.311L-0.970642 563.775V535.133L11.9855 521.597L-0.970642 508.061V479.419L11.9855 465.883L-0.970642 452.348V423.705L11.9855 410.17L-0.970642 396.634V367.991L11.9855 354.456L-0.970642 340.92V340.527ZM39.0257 576.918L52.0912 563.268V536.2L39.4016 549.457L26.0695 563.385L39.0257 576.918ZM25.9602 564.054V591.122L39.0257 604.772L51.9818 591.239L38.6497 577.311L25.9602 564.054ZM291.96 563.382L278.628 549.454L265.938 536.197V563.265L279.004 576.915L291.96 563.382ZM266.048 591.239L279.004 604.775L292.069 591.125V564.056L279.38 577.311L266.048 591.239ZM78.6461 507.669L65.3139 493.74L52.6244 480.483V507.552L65.6899 521.201L78.6461 507.669ZM52.7337 535.525L65.6899 549.061L78.7554 535.411V508.343L66.0659 521.597L52.7337 535.525ZM52.6244 451.841L65.6899 465.49L78.6461 451.955L65.3139 438.026L52.6244 424.769V451.841ZM52.3578 452.348L39.4016 465.883L52.3578 479.419L65.3139 465.883L52.3578 452.348ZM66.0659 465.883L52.7337 479.812L65.6899 493.347L78.7554 479.697V452.629L66.0659 465.883ZM66.0659 493.74L79.022 507.276L91.9782 493.74L79.022 480.204L66.0659 493.74ZM91.9782 521.597L79.2887 508.34V535.408L92.3541 549.058L105.31 535.525L91.9782 521.597ZM92.3541 521.204L105.42 507.554V480.486L92.7301 493.74L79.398 507.669L92.3541 521.204ZM79.2887 479.697L92.3541 493.347L105.31 479.812L91.9782 465.883L79.2887 452.626V479.697ZM92.3541 465.49L105.42 451.841V424.772L92.7301 438.026L79.398 451.955L92.3541 465.49ZM92.7301 465.883L105.686 479.419L118.642 465.883L105.686 452.348L92.7301 465.883ZM131.974 507.669L118.642 493.74L105.953 480.483V507.552L119.018 521.201L131.974 507.669ZM106.062 535.525L119.018 549.061L132.084 535.411V508.343L119.394 521.597L106.062 535.525ZM105.953 451.841L119.018 465.49L131.974 451.955L118.642 438.026L105.953 424.769V451.841ZM119.394 465.883L106.062 479.812L119.018 493.347L132.084 479.697V452.629L119.394 465.883ZM119.394 493.74L132.35 507.276L145.307 493.74L132.35 480.204L119.394 493.74ZM145.307 521.597L132.617 508.34V535.408L145.683 549.058L158.639 535.525L145.307 521.597ZM145.683 521.204L158.748 507.554V480.486L146.059 493.74L132.726 507.669L145.683 521.204ZM132.617 479.697L145.683 493.347L158.639 479.812L145.307 465.883L132.617 452.626V479.697ZM145.683 465.49L158.748 451.841V424.772L146.059 438.026L132.726 451.955L145.683 465.49ZM146.059 465.883L159.015 479.419L171.971 465.883L159.015 452.348L146.059 465.883ZM185.303 507.669L171.971 493.74L159.281 480.483V507.552L172.347 521.201L185.303 507.669ZM159.391 535.525L172.347 549.061L185.412 535.411V508.343L172.723 521.597L159.391 535.525ZM159.281 451.841L172.347 465.49L185.303 451.955L171.971 438.026L159.281 424.769V451.841ZM172.723 465.883L159.391 479.812L172.347 493.347L185.412 479.697V452.629L172.723 465.883ZM172.723 493.74L185.679 507.276L198.635 493.74L185.679 480.204L172.723 493.74ZM198.635 521.597L185.946 508.34V535.408L199.011 549.058L211.967 535.525L198.635 521.597ZM199.011 521.204L212.076 507.554V480.486L199.387 493.74L186.055 507.669L199.011 521.204ZM185.946 479.697L199.011 493.347L211.967 479.812L198.635 465.883L185.946 452.626V479.697ZM199.011 465.49L212.076 451.841V424.772L199.387 438.026L186.055 451.955L199.011 465.49ZM199.387 465.883L212.343 479.419L225.299 465.883L212.343 452.348L199.387 465.883ZM238.631 507.669L225.299 493.74L212.61 480.483V507.552L225.675 521.201L238.631 507.669ZM212.719 535.525L225.675 549.061L238.741 535.411V508.343L226.051 521.597L212.719 535.525ZM212.61 451.841L225.675 465.49L238.631 451.955L225.299 438.026L212.61 424.769V451.841ZM226.051 465.883L212.719 479.812L225.675 493.347L238.741 479.697V452.629L226.051 465.883ZM226.051 493.74L239.007 507.276L251.963 493.74L239.007 480.204L226.051 493.74ZM251.963 521.597L239.274 508.34V535.408L252.339 549.058L265.296 535.525L251.963 521.597ZM252.339 521.204L265.405 507.554V480.486L252.715 493.74L239.383 507.669L252.339 521.204ZM239.274 479.697L252.339 493.347L265.296 479.812L251.963 465.883L239.274 452.626V479.697ZM252.339 465.49L265.405 451.841V424.772L252.715 438.026L239.383 451.955L252.339 465.49ZM252.715 465.883L265.672 479.419L278.628 465.883L265.672 452.348L252.715 465.883ZM265.938 451.841L279.004 465.49L291.96 451.955L278.628 438.026L265.938 424.769V451.841ZM279.38 465.883L266.048 479.812L279.004 493.347L292.069 479.697V452.629L279.38 465.883ZM278.628 493.74L265.938 480.483V507.552L279.004 521.201L291.96 507.669L278.628 493.74ZM279.38 521.597L266.048 535.525L279.004 549.061L292.069 535.411V508.343L279.38 521.597ZM278.628 521.597L265.672 508.061L252.715 521.597L265.672 535.133L278.628 521.597ZM265.405 536.197L252.715 549.454L239.383 563.382L252.339 576.918L265.405 563.268V536.197ZM251.963 577.311L239.274 564.054V591.122L252.339 604.772L265.296 591.239L251.963 577.311ZM251.963 549.454L239.007 535.918L226.051 549.454L239.007 562.99L251.963 549.454ZM238.741 564.054L226.051 577.311L212.719 591.239L225.675 604.775L238.741 591.125V564.054ZM238.631 563.382L225.299 549.454L212.61 536.197V563.265L225.675 576.915L238.631 563.382ZM225.299 521.597L212.343 508.061L199.387 521.597L212.343 535.133L225.299 521.597ZM212.076 536.197L199.387 549.454L186.055 563.382L199.011 576.918L212.076 563.268V536.197ZM198.635 577.311L185.946 564.054V591.122L199.011 604.772L211.967 591.239L198.635 577.311ZM198.635 549.454L185.679 535.918L172.723 549.454L185.679 562.99L198.635 549.454ZM185.412 564.054L172.723 577.311L159.391 591.239L172.347 604.775L185.412 591.125V564.054ZM185.303 563.382L171.971 549.454L159.281 536.197V563.265L172.347 576.915L185.303 563.382ZM171.971 521.597L159.015 508.061L146.059 521.597L159.015 535.133L171.971 521.597ZM158.748 536.197L146.059 549.454L132.726 563.382L145.683 576.918L158.748 563.268V536.197ZM145.307 577.311L132.617 564.054V591.122L145.683 604.772L158.639 591.239L145.307 577.311ZM145.307 549.454L132.35 535.918L119.394 549.454L132.35 562.99L145.307 549.454ZM132.084 564.054L119.394 577.311L106.062 591.239L119.018 604.775L132.084 591.125V564.054ZM131.974 563.382L118.642 549.454L105.953 536.197V563.265L119.018 576.915L131.974 563.382ZM118.642 521.597L105.686 508.061L92.7301 521.597L105.686 535.133L118.642 521.597ZM105.42 536.197L92.7301 549.454L79.398 563.382L92.3541 576.918L105.42 563.268V536.197ZM91.9782 577.311L79.2887 564.054V591.122L92.3541 604.772L105.31 591.239L91.9782 577.311ZM91.9782 549.454L79.022 535.918L66.0659 549.454L79.022 562.99L91.9782 549.454ZM78.7554 564.054L66.0659 577.311L52.7337 591.239L65.6899 604.775L78.7554 591.125V564.054ZM78.6461 563.382L65.3139 549.454L52.6244 536.197V563.265L65.6899 576.915L78.6461 563.382ZM65.3139 521.597L52.3578 508.061L39.4016 521.597L52.3578 535.133L65.3139 521.597ZM51.9818 535.525L38.6497 521.597L25.9602 508.34V535.408L39.0257 549.058L51.9818 535.525ZM39.0257 521.204L52.0912 507.554V480.486L39.4016 493.743L26.0695 507.671L39.0257 521.204ZM51.9818 479.812L38.6497 465.883L25.9602 452.626V479.695L39.0257 493.345L51.9818 479.812ZM39.0257 465.49L52.0912 451.841V424.772L39.4016 438.029L26.0695 451.958L39.0257 465.49ZM51.9818 424.098L38.6497 410.17L25.9602 396.912V423.981L39.0257 437.631L51.9818 424.098ZM39.0257 409.777L52.0912 396.127V369.058L39.4016 382.315L26.0695 396.244L39.0257 409.777ZM39.4016 410.17L52.3578 423.705L65.3139 410.17L52.3578 396.634L39.4016 410.17ZM52.6244 396.127L65.6899 409.777L78.6461 396.241L65.3139 382.313L52.6244 369.056V396.127ZM66.0659 410.17L52.7337 424.098L65.6899 437.634L78.7554 423.984V396.915L66.0659 410.17ZM66.0659 438.026L79.022 451.562L91.9782 438.026L79.022 424.491L66.0659 438.026ZM79.2887 423.984L92.3541 437.634L105.31 424.098L91.9782 410.17L79.2887 396.912V423.984ZM92.3541 409.777L105.42 396.127V369.058L92.7301 382.313L79.398 396.241L92.3541 409.777ZM92.7301 410.17L105.686 423.705L118.642 410.17L105.686 396.634L92.7301 410.17ZM105.953 396.127L119.018 409.777L131.974 396.241L118.642 382.313L105.953 369.056V396.127ZM119.394 410.17L106.062 424.098L119.018 437.634L132.084 423.984V396.915L119.394 410.17ZM119.394 438.026L132.35 451.562L145.307 438.026L132.35 424.491L119.394 438.026ZM132.617 423.984L145.683 437.634L158.639 424.098L145.307 410.17L132.617 396.912V423.984ZM145.683 409.777L158.748 396.127V369.058L146.059 382.313L132.726 396.241L145.683 409.777ZM146.059 410.17L159.015 423.705L171.971 410.17L159.015 396.634L146.059 410.17ZM159.281 396.127L172.347 409.777L185.303 396.241L171.971 382.313L159.281 369.056V396.127ZM172.723 410.17L159.391 424.098L172.347 437.634L185.412 423.984V396.915L172.723 410.17ZM172.723 438.026L185.679 451.562L198.635 438.026L185.679 424.491L172.723 438.026ZM185.946 423.984L199.011 437.634L211.967 424.098L198.635 410.17L185.946 396.912V423.984ZM199.011 409.777L212.076 396.127V369.058L199.387 382.313L186.055 396.241L199.011 409.777ZM199.387 410.17L212.343 423.705L225.299 410.17L212.343 396.634L199.387 410.17ZM212.61 396.127L225.675 409.777L238.631 396.241L225.299 382.313L212.61 369.056V396.127ZM226.051 410.17L212.719 424.098L225.675 437.634L238.741 423.984V396.915L226.051 410.17ZM226.051 438.026L239.007 451.562L251.963 438.026L239.007 424.491L226.051 438.026ZM239.274 423.984L252.339 437.634L265.296 424.098L251.963 410.17L239.274 396.912V423.984ZM252.339 409.777L265.405 396.127V369.058L252.715 382.313L239.383 396.241L252.339 409.777ZM252.715 410.17L265.672 423.705L278.628 410.17L265.672 396.634L252.715 410.17ZM265.938 396.127L279.004 409.777L291.96 396.241L278.628 382.313L265.938 369.056V396.127ZM279.38 410.17L266.048 424.098L279.004 437.634L292.069 423.984V396.915L279.38 410.17ZM279.38 438.026L292.336 451.562L305.292 438.026L292.336 424.491L279.38 438.026ZM279.38 493.74L292.336 507.276L305.292 493.74L292.336 480.204L279.38 493.74ZM279.38 549.454L292.336 562.99L305.292 549.454L292.336 535.918L279.38 549.454ZM279.38 605.168L292.336 618.703L305.292 605.168L292.336 591.632L279.38 605.168ZM278.628 605.168L265.938 591.911V618.979L279.004 632.629L291.96 619.096L278.628 605.168ZM278.628 577.311L265.672 563.775L252.715 577.311L265.672 590.846L278.628 577.311ZM265.405 591.911L252.715 605.168L239.383 619.096L252.339 632.632L265.405 618.982V591.911ZM251.963 605.168L239.007 591.632L226.051 605.168L239.007 618.703L251.963 605.168ZM225.299 605.168L212.61 591.911V618.979L225.675 632.629L238.631 619.096L225.299 605.168ZM225.299 577.311L212.343 563.775L199.387 577.311L212.343 590.846L225.299 577.311ZM212.076 591.911L199.387 605.168L186.055 619.096L199.011 632.632L212.076 618.982V591.911ZM198.635 605.168L185.679 591.632L172.723 605.168L185.679 618.703L198.635 605.168ZM171.971 605.168L159.281 591.911V618.979L172.347 632.629L185.303 619.096L171.971 605.168ZM171.971 577.311L159.015 563.775L146.059 577.311L159.015 590.846L171.971 577.311ZM158.748 591.911L146.059 605.168L132.726 619.096L145.683 632.632L158.748 618.982V591.911ZM145.307 605.168L132.35 591.632L119.394 605.168L132.35 618.703L145.307 605.168ZM118.642 605.168L105.953 591.911V618.979L119.018 632.629L131.974 619.096L118.642 605.168ZM118.642 577.311L105.686 563.775L92.7301 577.311L105.686 590.846L118.642 577.311ZM105.42 591.911L92.7301 605.168L79.398 619.096L92.3541 632.632L105.42 618.982V591.911ZM91.9782 605.168L79.022 591.632L66.0659 605.168L79.022 618.703L91.9782 605.168ZM65.3139 605.168L52.6244 591.911V618.979L65.6899 632.629L78.6461 619.096L65.3139 605.168ZM65.3139 577.311L52.3578 563.775L39.4016 577.311L52.3578 590.846L65.3139 577.311ZM52.0912 591.911L39.4016 605.168L26.0695 619.096L39.0257 632.632L52.0912 618.982V591.911ZM38.6497 605.168L25.6936 591.632L12.7374 605.168L25.6936 618.703L38.6497 605.168ZM38.6497 549.454L25.6936 535.918L12.7374 549.454L25.6936 562.99L38.6497 549.454ZM38.6497 493.74L25.6936 480.204L12.7374 493.74L25.6936 507.276L38.6497 493.74ZM38.6497 438.026L25.6936 424.491L12.7374 438.026L25.6936 451.562L38.6497 438.026ZM38.6497 382.313L25.6936 368.777L12.7374 382.313L25.6936 395.848L38.6497 382.313ZM38.6497 354.456L25.9602 341.199V368.267L39.0257 381.917L51.9818 368.384L38.6497 354.456ZM52.3578 340.92L39.4016 354.456L52.3578 367.991L65.3139 354.456L52.3578 340.92ZM78.7554 341.199L66.0659 354.456L52.7337 368.384L65.6899 381.92L78.7554 368.27V341.199ZM66.0659 382.313L79.022 395.848L91.9782 382.313L79.022 368.777L66.0659 382.313ZM91.9782 354.456L79.2887 341.199V368.267L92.3541 381.917L105.31 368.384L91.9782 354.456ZM105.686 340.92L92.7301 354.456L105.686 367.991L118.642 354.456L105.686 340.92ZM132.084 341.199L119.394 354.456L106.062 368.384L119.018 381.92L132.084 368.27V341.199ZM119.394 382.313L132.35 395.848L145.307 382.313L132.35 368.777L119.394 382.313ZM145.307 354.456L132.617 341.199V368.267L145.683 381.917L158.639 368.384L145.307 354.456ZM159.015 340.92L146.059 354.456L159.015 367.991L171.971 354.456L159.015 340.92ZM185.412 341.199L172.723 354.456L159.391 368.384L172.347 381.92L185.412 368.27V341.199ZM172.723 382.313L185.679 395.848L198.635 382.313L185.679 368.777L172.723 382.313ZM198.635 354.456L185.946 341.199V368.267L199.011 381.917L211.967 368.384L198.635 354.456ZM212.343 340.92L199.387 354.456L212.343 367.991L225.299 354.456L212.343 340.92ZM238.741 341.199L226.051 354.456L212.719 368.384L225.675 381.92L238.741 368.27V341.199ZM226.051 382.313L239.007 395.848L251.963 382.313L239.007 368.777L226.051 382.313ZM251.963 354.456L239.274 341.199V368.267L252.339 381.917L265.296 368.384L251.963 354.456ZM265.672 340.92L252.715 354.456L265.672 367.991L278.628 354.456L265.672 340.92ZM292.069 341.199L279.38 354.456L266.048 368.384L279.004 381.92L292.069 368.27V341.199ZM279.38 382.313L292.336 395.848L305.292 382.313L292.336 368.777L279.38 382.313ZM305.292 354.456L292.602 341.199V368.267L305.668 381.917L318.624 368.384L305.292 354.456ZM318.733 396.127V369.058L306.044 382.313L292.712 396.241L305.668 409.777L318.733 396.127ZM305.292 410.17L292.602 396.912V423.981L305.668 437.631L318.624 424.098L305.292 410.17ZM318.733 451.841V424.772L306.044 438.026L292.712 451.955L305.668 465.49L318.733 451.841ZM305.292 465.883L292.602 452.626V479.695L305.668 493.345L318.624 479.812L305.292 465.883ZM318.733 507.554V480.486L306.044 493.74L292.712 507.669L305.668 521.204L318.733 507.554ZM305.292 521.597L292.602 508.34V535.408L305.668 549.058L318.624 535.525L305.292 521.597ZM318.733 563.268V536.2L306.044 549.454L292.712 563.382L305.668 576.918L318.733 563.268ZM305.292 577.311L292.602 564.054V591.122L305.668 604.772L318.624 591.239L305.292 577.311ZM318.733 618.982V591.913L306.044 605.168L292.712 619.096L305.668 632.632L318.733 618.982ZM318.624 646.953L305.292 633.024L292.602 619.767V646.836L305.668 660.486L318.624 646.953ZM292.336 674.417L305.292 660.881L292.336 647.346L279.38 660.881L292.336 674.417ZM279.004 660.489L292.069 646.839V619.77L279.38 633.027L266.048 646.956L279.004 660.489ZM265.672 646.56L278.628 633.024L265.672 619.489L252.715 633.024L265.672 646.56ZM265.296 646.953L251.963 633.024L239.274 619.767V646.836L252.339 660.486L265.296 646.953ZM239.007 674.417L251.963 660.881L239.007 647.346L226.051 660.881L239.007 674.417ZM225.675 660.489L238.741 646.839V619.77L226.051 633.027L212.719 646.956L225.675 660.489ZM212.343 646.56L225.299 633.024L212.343 619.489L199.387 633.024L212.343 646.56ZM211.967 646.953L198.635 633.024L185.946 619.767V646.836L199.011 660.486L211.967 646.953ZM185.679 674.417L198.635 660.881L185.679 647.346L172.723 660.881L185.679 674.417ZM172.347 660.489L185.412 646.839V619.77L172.723 633.027L159.391 646.956L172.347 660.489ZM159.015 646.56L171.971 633.024L159.015 619.489L146.059 633.024L159.015 646.56ZM158.639 646.953L145.307 633.024L132.617 619.767V646.836L145.683 660.486L158.639 646.953ZM132.35 674.417L145.307 660.881L132.35 647.346L119.394 660.881L132.35 674.417ZM119.018 660.489L132.084 646.839V619.77L119.394 633.027L106.062 646.956L119.018 660.489ZM105.686 646.56L118.642 633.024L105.686 619.489L92.7301 633.024L105.686 646.56ZM105.31 646.953L91.9782 633.024L79.2887 619.767V646.836L92.3541 660.486L105.31 646.953ZM79.022 674.417L91.9782 660.881L79.022 647.346L66.0659 660.881L79.022 674.417ZM65.6899 660.489L78.7554 646.839V619.77L66.0659 633.027L52.7337 646.956L65.6899 660.489ZM52.3578 646.56L65.3139 633.024L52.3578 619.489L39.4016 633.024L52.3578 646.56ZM51.9818 646.953L38.6497 633.024L25.9602 619.767V646.836L39.0257 660.486L51.9818 646.953ZM25.6936 674.417L38.6497 660.881L25.6936 647.346L12.7374 660.881L25.6936 674.417ZM-0.594696 646.953L12.3615 660.489L25.4269 646.839V619.77L12.7374 633.027L-0.594696 646.953ZM-0.70401 618.982L12.3615 632.632L25.3176 619.096L11.9855 605.168L-0.70401 591.911V618.982ZM-0.594696 591.239L12.3615 604.775L25.4269 591.125V564.056L12.7374 577.314L-0.594696 591.239ZM-0.70401 563.268L12.3615 576.918L25.3176 563.382L11.9855 549.454L-0.70401 536.197V563.268ZM-0.594696 535.525L12.3615 549.061L25.4269 535.411V508.343L12.7374 521.6L-0.594696 535.525ZM-0.70401 507.554L12.3615 521.204L25.3176 507.669L11.9855 493.74L-0.70401 480.483V507.554ZM-0.594696 479.812L12.3615 493.347L25.4269 479.697V452.629L12.7374 465.886L-0.594696 479.812ZM-0.70401 451.841L12.3615 465.49L25.3176 451.955L11.9855 438.026L-0.70401 424.769V451.841ZM-0.594696 424.098L12.3615 437.634L25.4269 423.984V396.915L12.7374 410.172L-0.594696 424.098ZM-0.70401 396.127L12.3615 409.777L25.3176 396.241L11.9855 382.313L-0.70401 369.056V396.127ZM-0.594696 368.384L12.3615 381.92L25.4269 368.27V341.199L12.7374 354.456L-0.594696 368.384Z" fill="#3A5691"/>
</g>
<g filter="url(#filter1_f)">
<path d="M-0.970642 2H-0.594696L12.3615 15.7075L25.3176 2H26.0722L39.0257 15.7075L51.9818 2H52.7364L65.6899 15.7075L78.6461 2H79.4006L92.3541 15.7075L105.31 2H106.065L119.018 15.7075L131.974 2H132.729L145.683 15.7075L158.639 2H159.393L172.347 15.7075L185.303 2H186.058L199.011 15.7075L211.967 2H212.722L225.675 15.7075L238.631 2H239.386L252.339 15.7075L265.296 2H266.05L279.004 15.7075L291.96 2H292.714L305.668 15.7075L318.624 2H319V2.39777L306.044 16.1053L319 29.8128V58.8218L306.044 72.5265L319 86.2341V115.243L306.044 128.948L319 142.655V171.664L306.044 185.369L319 199.076V228.085L306.044 241.79L319 255.498V284.507L306.044 298.211L319 311.919V340.527H318.624L318.733 340.412V312.999L306.044 326.422L292.712 340.527H291.957L278.625 326.422L265.936 312.997V340.409L266.045 340.524H265.29L265.4 340.409V312.997L252.71 326.422L239.378 340.527H238.623L225.291 326.422L212.602 312.997V340.409L212.711 340.524H211.956L212.066 340.409V312.997L199.376 326.422L186.044 340.527H185.29L171.957 326.422L159.268 312.997V340.409L159.377 340.524H158.623L158.732 340.409V312.997L146.043 326.422L132.71 340.527H131.956L118.624 326.422L105.934 312.997V340.409L106.044 340.524H105.289L105.398 340.409V312.997L92.7088 326.422L79.3766 340.527H78.622L65.2899 326.422L52.6004 312.997V340.409L52.7097 340.524H51.9552L52.0645 340.409V312.997L39.375 326.422L26.0429 340.527H25.2883L11.9561 326.422L-0.733337 312.997V340.409L-0.623993 340.524H-0.999969V311.916L11.9561 298.209L-0.999969 284.501V255.498L11.9855 241.79L-0.970642 228.083V199.076L11.9855 185.369L-0.970642 171.661V142.655L11.9855 128.948L-0.970642 115.24V86.2341L11.9855 72.5265L-0.970642 58.819V29.8128L11.9855 16.1053L-0.970642 2.39777V2ZM39.0257 241.392L52.0912 227.569V200.157L39.4016 213.582L26.0695 227.688L39.0257 241.392ZM25.9602 228.365V255.777L39.0257 269.6L51.9818 255.895L38.6497 241.79L25.9602 228.365ZM291.96 227.685L278.628 213.58L265.938 200.154V227.566L279.004 241.39L291.96 227.685ZM266.048 255.895L279.004 269.603L292.069 255.78V228.368L279.38 241.79L266.048 255.895ZM78.6461 171.264L65.3139 157.158L52.6244 143.733V171.145L65.6899 184.968L78.6461 171.264ZM52.7337 199.474L65.6899 213.182L78.7554 199.359V171.946L66.0659 185.369L52.7337 199.474ZM52.6244 114.727L65.6899 128.55L78.6461 114.842L65.3139 100.737L52.6244 87.3117V114.727ZM52.3578 115.24L39.4016 128.948L52.3578 142.655L65.3139 128.948L52.3578 115.24ZM66.0659 128.948L52.7337 143.053L65.6899 156.761L78.7554 142.937V115.525L66.0659 128.948ZM66.0659 157.158L79.022 170.866L91.9782 157.158L79.022 143.451L66.0659 157.158ZM91.9782 185.369L79.2887 171.944V199.356L92.3541 213.179L105.31 199.474L91.9782 185.369ZM92.3541 184.971L105.42 171.148V143.736L92.7301 157.158L79.398 171.264L92.3541 184.971ZM79.2887 142.937L92.3541 156.761L105.31 143.053L91.9782 128.948L79.2887 115.522V142.937ZM92.3541 128.55L105.42 114.727V87.3145L92.7301 100.737L79.398 114.842L92.3541 128.55ZM92.7301 128.948L105.686 142.655L118.642 128.948L105.686 115.24L92.7301 128.948ZM131.974 171.264L118.642 157.158L105.953 143.733V171.145L119.018 184.968L131.974 171.264ZM106.062 199.474L119.018 213.182L132.084 199.359V171.946L119.394 185.369L106.062 199.474ZM105.953 114.727L119.018 128.55L131.974 114.842L118.642 100.737L105.953 87.3117V114.727ZM119.394 128.948L106.062 143.053L119.018 156.761L132.084 142.937V115.525L119.394 128.948ZM119.394 157.158L132.35 170.866L145.307 157.158L132.35 143.451L119.394 157.158ZM145.307 185.369L132.617 171.944V199.356L145.683 213.179L158.639 199.474L145.307 185.369ZM145.683 184.971L158.748 171.148V143.736L146.059 157.158L132.726 171.264L145.683 184.971ZM132.617 142.937L145.683 156.761L158.639 143.053L145.307 128.948L132.617 115.522V142.937ZM145.683 128.55L158.748 114.727V87.3145L146.059 100.737L132.726 114.842L145.683 128.55ZM146.059 128.948L159.015 142.655L171.971 128.948L159.015 115.24L146.059 128.948ZM185.303 171.264L171.971 157.158L159.281 143.733V171.145L172.347 184.968L185.303 171.264ZM159.391 199.474L172.347 213.182L185.412 199.359V171.946L172.723 185.369L159.391 199.474ZM159.281 114.727L172.347 128.55L185.303 114.842L171.971 100.737L159.281 87.3117V114.727ZM172.723 128.948L159.391 143.053L172.347 156.761L185.412 142.937V115.525L172.723 128.948ZM172.723 157.158L185.679 170.866L198.635 157.158L185.679 143.451L172.723 157.158ZM198.635 185.369L185.946 171.944V199.356L199.011 213.179L211.967 199.474L198.635 185.369ZM199.011 184.971L212.076 171.148V143.736L199.387 157.158L186.055 171.264L199.011 184.971ZM185.946 142.937L199.011 156.761L211.967 143.053L198.635 128.948L185.946 115.522V142.937ZM199.011 128.55L212.076 114.727V87.3145L199.387 100.737L186.055 114.842L199.011 128.55ZM199.387 128.948L212.343 142.655L225.299 128.948L212.343 115.24L199.387 128.948ZM238.631 171.264L225.299 157.158L212.61 143.733V171.145L225.675 184.968L238.631 171.264ZM212.719 199.474L225.675 213.182L238.741 199.359V171.946L226.051 185.369L212.719 199.474ZM212.61 114.727L225.675 128.55L238.631 114.842L225.299 100.737L212.61 87.3117V114.727ZM226.051 128.948L212.719 143.053L225.675 156.761L238.741 142.937V115.525L226.051 128.948ZM226.051 157.158L239.007 170.866L251.963 157.158L239.007 143.451L226.051 157.158ZM251.963 185.369L239.274 171.944V199.356L252.339 213.179L265.296 199.474L251.963 185.369ZM252.339 184.971L265.405 171.148V143.736L252.715 157.158L239.383 171.264L252.339 184.971ZM239.274 142.937L252.339 156.761L265.296 143.053L251.963 128.948L239.274 115.522V142.937ZM252.339 128.55L265.405 114.727V87.3145L252.715 100.737L239.383 114.842L252.339 128.55ZM252.715 128.948L265.672 142.655L278.628 128.948L265.672 115.24L252.715 128.948ZM265.938 114.727L279.004 128.55L291.96 114.842L278.628 100.737L265.938 87.3117V114.727ZM279.38 128.948L266.048 143.053L279.004 156.761L292.069 142.937V115.525L279.38 128.948ZM278.628 157.158L265.938 143.733V171.145L279.004 184.968L291.96 171.264L278.628 157.158ZM279.38 185.369L266.048 199.474L279.004 213.182L292.069 199.359V171.946L279.38 185.369ZM278.628 185.369L265.672 171.661L252.715 185.369L265.672 199.076L278.628 185.369ZM265.405 200.154L252.715 213.58L239.383 227.685L252.339 241.392L265.405 227.569V200.154ZM251.963 241.79L239.274 228.365V255.777L252.339 269.6L265.296 255.895L251.963 241.79ZM251.963 213.58L239.007 199.872L226.051 213.58L239.007 227.287L251.963 213.58ZM238.741 228.365L226.051 241.79L212.719 255.895L225.675 269.603L238.741 255.78V228.365ZM238.631 227.685L225.299 213.58L212.61 200.154V227.566L225.675 241.39L238.631 227.685ZM225.299 185.369L212.343 171.661L199.387 185.369L212.343 199.076L225.299 185.369ZM212.076 200.154L199.387 213.58L186.055 227.685L199.011 241.392L212.076 227.569V200.154ZM198.635 241.79L185.946 228.365V255.777L199.011 269.6L211.967 255.895L198.635 241.79ZM198.635 213.58L185.679 199.872L172.723 213.58L185.679 227.287L198.635 213.58ZM185.412 228.365L172.723 241.79L159.391 255.895L172.347 269.603L185.412 255.78V228.365ZM185.303 227.685L171.971 213.58L159.281 200.154V227.566L172.347 241.39L185.303 227.685ZM171.971 185.369L159.015 171.661L146.059 185.369L159.015 199.076L171.971 185.369ZM158.748 200.154L146.059 213.58L132.726 227.685L145.683 241.392L158.748 227.569V200.154ZM145.307 241.79L132.617 228.365V255.777L145.683 269.6L158.639 255.895L145.307 241.79ZM145.307 213.58L132.35 199.872L119.394 213.58L132.35 227.287L145.307 213.58ZM132.084 228.365L119.394 241.79L106.062 255.895L119.018 269.603L132.084 255.78V228.365ZM131.974 227.685L118.642 213.58L105.953 200.154V227.566L119.018 241.39L131.974 227.685ZM118.642 185.369L105.686 171.661L92.7301 185.369L105.686 199.076L118.642 185.369ZM105.42 200.154L92.7301 213.58L79.398 227.685L92.3541 241.392L105.42 227.569V200.154ZM91.9782 241.79L79.2887 228.365V255.777L92.3541 269.6L105.31 255.895L91.9782 241.79ZM91.9782 213.58L79.022 199.872L66.0659 213.58L79.022 227.287L91.9782 213.58ZM78.7554 228.365L66.0659 241.79L52.7337 255.895L65.6899 269.603L78.7554 255.78V228.365ZM78.6461 227.685L65.3139 213.58L52.6244 200.154V227.566L65.6899 241.39L78.6461 227.685ZM65.3139 185.369L52.3578 171.661L39.4016 185.369L52.3578 199.076L65.3139 185.369ZM51.9818 199.474L38.6497 185.369L25.9602 171.944V199.356L39.0257 213.179L51.9818 199.474ZM39.0257 184.971L52.0912 171.148V143.736L39.4016 157.161L26.0695 171.266L39.0257 184.971ZM51.9818 143.053L38.6497 128.948L25.9602 115.522V142.935L39.0257 156.758L51.9818 143.053ZM39.0257 128.55L52.0912 114.727V87.3145L39.4016 100.74L26.0695 114.845L39.0257 128.55ZM51.9818 86.6318L38.6497 72.5265L25.9602 59.1011V86.5133L39.0257 100.337L51.9818 86.6318ZM39.0257 72.1287L52.0912 58.3055V30.8933L39.4016 44.3187L26.0695 58.424L39.0257 72.1287ZM39.4016 72.5265L52.3578 86.2341L65.3139 72.5265L52.3578 58.819L39.4016 72.5265ZM52.6244 58.3055L65.6899 72.1287L78.6461 58.4212L65.3139 44.3159L52.6244 30.8905V58.3055ZM66.0659 72.5265L52.7337 86.6318L65.6899 100.339L78.7554 86.5162V59.1039L66.0659 72.5265ZM66.0659 100.737L79.022 114.445L91.9782 100.737L79.022 87.0296L66.0659 100.737ZM79.2887 86.5162L92.3541 100.339L105.31 86.6318L91.9782 72.5265L79.2887 59.1011V86.5162ZM92.3541 72.1287L105.42 58.3055V30.8933L92.7301 44.3159L79.398 58.4212L92.3541 72.1287ZM92.7301 72.5265L105.686 86.2341L118.642 72.5265L105.686 58.819L92.7301 72.5265ZM105.953 58.3055L119.018 72.1287L131.974 58.4212L118.642 44.3159L105.953 30.8905V58.3055ZM119.394 72.5265L106.062 86.6318L119.018 100.339L132.084 86.5162V59.1039L119.394 72.5265ZM119.394 100.737L132.35 114.445L145.307 100.737L132.35 87.0296L119.394 100.737ZM132.617 86.5162L145.683 100.339L158.639 86.6318L145.307 72.5265L132.617 59.1011V86.5162ZM145.683 72.1287L158.748 58.3055V30.8933L146.059 44.3159L132.726 58.4212L145.683 72.1287ZM146.059 72.5265L159.015 86.2341L171.971 72.5265L159.015 58.819L146.059 72.5265ZM159.281 58.3055L172.347 72.1287L185.303 58.4212L171.971 44.3159L159.281 30.8905V58.3055ZM172.723 72.5265L159.391 86.6318L172.347 100.339L185.412 86.5162V59.1039L172.723 72.5265ZM172.723 100.737L185.679 114.445L198.635 100.737L185.679 87.0296L172.723 100.737ZM185.946 86.5162L199.011 100.339L211.967 86.6318L198.635 72.5265L185.946 59.1011V86.5162ZM199.011 72.1287L212.076 58.3055V30.8933L199.387 44.3159L186.055 58.4212L199.011 72.1287ZM199.387 72.5265L212.343 86.2341L225.299 72.5265L212.343 58.819L199.387 72.5265ZM212.61 58.3055L225.675 72.1287L238.631 58.4212L225.299 44.3159L212.61 30.8905V58.3055ZM226.051 72.5265L212.719 86.6318L225.675 100.339L238.741 86.5162V59.1039L226.051 72.5265ZM226.051 100.737L239.007 114.445L251.963 100.737L239.007 87.0296L226.051 100.737ZM239.274 86.5162L252.339 100.339L265.296 86.6318L251.963 72.5265L239.274 59.1011V86.5162ZM252.339 72.1287L265.405 58.3055V30.8933L252.715 44.3159L239.383 58.4212L252.339 72.1287ZM252.715 72.5265L265.672 86.2341L278.628 72.5265L265.672 58.819L252.715 72.5265ZM265.938 58.3055L279.004 72.1287L291.96 58.4212L278.628 44.3159L265.938 30.8905V58.3055ZM279.38 72.5265L266.048 86.6318L279.004 100.339L292.069 86.5162V59.1039L279.38 72.5265ZM279.38 100.737L292.336 114.445L305.292 100.737L292.336 87.0296L279.38 100.737ZM279.38 157.158L292.336 170.866L305.292 157.158L292.336 143.451L279.38 157.158ZM279.38 213.58L292.336 227.287L305.292 213.58L292.336 199.872L279.38 213.58ZM279.38 270.001L292.336 283.708L305.292 270.001L292.336 256.293L279.38 270.001ZM278.628 270.001L265.938 256.575V283.988L279.004 297.811L291.96 284.106L278.628 270.001ZM278.628 241.79L265.672 228.083L252.715 241.79L265.672 255.498L278.628 241.79ZM265.405 256.575L252.715 270.001L239.383 284.106L252.339 297.814L265.405 283.99V256.575ZM251.963 270.001L239.007 256.293L226.051 270.001L239.007 283.708L251.963 270.001ZM225.299 270.001L212.61 256.575V283.988L225.675 297.811L238.631 284.106L225.299 270.001ZM225.299 241.79L212.343 228.083L199.387 241.79L212.343 255.498L225.299 241.79ZM212.076 256.575L199.387 270.001L186.055 284.106L199.011 297.814L212.076 283.99V256.575ZM198.635 270.001L185.679 256.293L172.723 270.001L185.679 283.708L198.635 270.001ZM171.971 270.001L159.281 256.575V283.988L172.347 297.811L185.303 284.106L171.971 270.001ZM171.971 241.79L159.015 228.083L146.059 241.79L159.015 255.498L171.971 241.79ZM158.748 256.575L146.059 270.001L132.726 284.106L145.683 297.814L158.748 283.99V256.575ZM145.307 270.001L132.35 256.293L119.394 270.001L132.35 283.708L145.307 270.001ZM118.642 270.001L105.953 256.575V283.988L119.018 297.811L131.974 284.106L118.642 270.001ZM118.642 241.79L105.686 228.083L92.7301 241.79L105.686 255.498L118.642 241.79ZM105.42 256.575L92.7301 270.001L79.398 284.106L92.3541 297.814L105.42 283.99V256.575ZM91.9782 270.001L79.022 256.293L66.0659 270.001L79.022 283.708L91.9782 270.001ZM65.3139 270.001L52.6244 256.575V283.988L65.6899 297.811L78.6461 284.106L65.3139 270.001ZM65.3139 241.79L52.3578 228.083L39.4016 241.79L52.3578 255.498L65.3139 241.79ZM52.0912 256.575L39.4016 270.001L26.0695 284.106L39.0257 297.814L52.0912 283.99V256.575ZM38.6497 270.001L25.6936 256.293L12.7374 270.001L25.6936 283.708L38.6497 270.001ZM38.6497 213.58L25.6936 199.872L12.7374 213.58L25.6936 227.287L38.6497 213.58ZM38.6497 157.158L25.6936 143.451L12.7374 157.158L25.6936 170.866L38.6497 157.158ZM38.6497 100.737L25.6936 87.0296L12.7374 100.737L25.6936 114.445L38.6497 100.737ZM38.6497 44.3159L25.6936 30.6084L12.7374 44.3159L25.6936 58.0234L38.6497 44.3159ZM38.6497 16.1053L25.9602 2.67988V30.0921L39.0257 43.9153L51.9818 30.2106L38.6497 16.1053ZM52.3578 2.39777L39.4016 16.1053L52.3578 29.8128L65.3139 16.1053L52.3578 2.39777ZM78.7554 2.67988L66.0659 16.1053L52.7337 30.2106L65.6899 43.9181L78.7554 30.0949V2.67988ZM66.0659 44.3159L79.022 58.0234L91.9782 44.3159L79.022 30.6084L66.0659 44.3159ZM91.9782 16.1053L79.2887 2.67988V30.0921L92.3541 43.9153L105.31 30.2106L91.9782 16.1053ZM105.686 2.39777L92.7301 16.1053L105.686 29.8128L118.642 16.1053L105.686 2.39777ZM132.084 2.67988L119.394 16.1053L106.062 30.2106L119.018 43.9181L132.084 30.0949V2.67988ZM119.394 44.3159L132.35 58.0234L145.307 44.3159L132.35 30.6084L119.394 44.3159ZM145.307 16.1053L132.617 2.67988V30.0921L145.683 43.9153L158.639 30.2106L145.307 16.1053ZM159.015 2.39777L146.059 16.1053L159.015 29.8128L171.971 16.1053L159.015 2.39777ZM185.412 2.67988L172.723 16.1053L159.391 30.2106L172.347 43.9181L185.412 30.0949V2.67988ZM172.723 44.3159L185.679 58.0234L198.635 44.3159L185.679 30.6084L172.723 44.3159ZM198.635 16.1053L185.946 2.67988V30.0921L199.011 43.9153L211.967 30.2106L198.635 16.1053ZM212.343 2.39777L199.387 16.1053L212.343 29.8128L225.299 16.1053L212.343 2.39777ZM238.741 2.67988L226.051 16.1053L212.719 30.2106L225.675 43.9181L238.741 30.0949V2.67988ZM226.051 44.3159L239.007 58.0234L251.963 44.3159L239.007 30.6084L226.051 44.3159ZM251.963 16.1053L239.274 2.67988V30.0921L252.339 43.9153L265.296 30.2106L251.963 16.1053ZM265.672 2.39777L252.715 16.1053L265.672 29.8128L278.628 16.1053L265.672 2.39777ZM292.069 2.67988L279.38 16.1053L266.048 30.2106L279.004 43.9181L292.069 30.0949V2.67988ZM279.38 44.3159L292.336 58.0234L305.292 44.3159L292.336 30.6084L279.38 44.3159ZM305.292 16.1053L292.602 2.67988V30.0921L305.668 43.9153L318.624 30.2106L305.292 16.1053ZM318.733 58.3055V30.8933L306.044 44.3159L292.712 58.4212L305.668 72.1287L318.733 58.3055ZM305.292 72.5265L292.602 59.1011V86.5133L305.668 100.337L318.624 86.6318L305.292 72.5265ZM318.733 114.727V87.3145L306.044 100.737L292.712 114.842L305.668 128.55L318.733 114.727ZM305.292 128.948L292.602 115.522V142.935L305.668 156.758L318.624 143.053L305.292 128.948ZM318.733 171.148V143.736L306.044 157.158L292.712 171.264L305.668 184.971L318.733 171.148ZM305.292 185.369L292.602 171.944V199.356L305.668 213.179L318.624 199.474L305.292 185.369ZM318.733 227.569V200.157L306.044 213.58L292.712 227.685L305.668 241.392L318.733 227.569ZM305.292 241.79L292.602 228.365V255.777L305.668 269.6L318.624 255.895L305.292 241.79ZM318.733 283.99V256.578L306.044 270.001L292.712 284.106L305.668 297.814L318.733 283.99ZM318.624 312.317L305.292 298.211L292.602 284.786V312.198L305.668 326.021L318.624 312.317ZM292.336 340.13L305.292 326.422L292.336 312.714L279.38 326.422L292.336 340.13ZM279.004 326.024L292.069 312.201V284.789L279.38 298.214L266.048 312.319L279.004 326.024ZM265.672 311.919L278.628 298.211L265.672 284.504L252.715 298.211L265.672 311.919ZM265.296 312.317L251.963 298.211L239.274 284.786V312.198L252.339 326.021L265.296 312.317ZM239.007 340.13L251.963 326.422L239.007 312.714L226.051 326.422L239.007 340.13ZM225.675 326.024L238.741 312.201V284.789L226.051 298.214L212.719 312.319L225.675 326.024ZM212.343 311.919L225.299 298.211L212.343 284.504L199.387 298.211L212.343 311.919ZM211.967 312.317L198.635 298.211L185.946 284.786V312.198L199.011 326.021L211.967 312.317ZM185.679 340.13L198.635 326.422L185.679 312.714L172.723 326.422L185.679 340.13ZM172.347 326.024L185.412 312.201V284.789L172.723 298.214L159.391 312.319L172.347 326.024ZM159.015 311.919L171.971 298.211L159.015 284.504L146.059 298.211L159.015 311.919ZM158.639 312.317L145.307 298.211L132.617 284.786V312.198L145.683 326.021L158.639 312.317ZM132.35 340.13L145.307 326.422L132.35 312.714L119.394 326.422L132.35 340.13ZM119.018 326.024L132.084 312.201V284.789L119.394 298.214L106.062 312.319L119.018 326.024ZM105.686 311.919L118.642 298.211L105.686 284.504L92.7301 298.211L105.686 311.919ZM105.31 312.317L91.9782 298.211L79.2887 284.786V312.198L92.3541 326.021L105.31 312.317ZM79.022 340.13L91.9782 326.422L79.022 312.714L66.0659 326.422L79.022 340.13ZM65.6899 326.024L78.7554 312.201V284.789L66.0659 298.214L52.7337 312.319L65.6899 326.024ZM52.3578 311.919L65.3139 298.211L52.3578 284.504L39.4016 298.211L52.3578 311.919ZM51.9818 312.317L38.6497 298.211L25.9602 284.786V312.198L39.0257 326.021L51.9818 312.317ZM25.6936 340.13L38.6497 326.422L25.6936 312.714L12.7374 326.422L25.6936 340.13ZM-0.594696 312.317L12.3615 326.024L25.4269 312.201V284.789L12.7374 298.214L-0.594696 312.317ZM-0.70401 283.99L12.3615 297.814L25.3176 284.106L11.9855 270.001L-0.70401 256.575V283.99ZM-0.594696 255.895L12.3615 269.603L25.4269 255.78V228.368L12.7374 241.793L-0.594696 255.895ZM-0.70401 227.569L12.3615 241.392L25.3176 227.685L11.9855 213.58L-0.70401 200.154V227.569ZM-0.594696 199.474L12.3615 213.182L25.4269 199.359V171.946L12.7374 185.372L-0.594696 199.474ZM-0.70401 171.148L12.3615 184.971L25.3176 171.264L11.9855 157.158L-0.70401 143.733V171.148ZM-0.594696 143.053L12.3615 156.761L25.4269 142.937V115.525L12.7374 128.951L-0.594696 143.053ZM-0.70401 114.727L12.3615 128.55L25.3176 114.842L11.9855 100.737L-0.70401 87.3117V114.727ZM-0.594696 86.6318L12.3615 100.339L25.4269 86.5162V59.1039L12.7374 72.5293L-0.594696 86.6318ZM-0.70401 58.3055L12.3615 72.1287L25.3176 58.4212L11.9855 44.3159L-0.70401 30.8905V58.3055ZM-0.594696 30.2106L12.3615 43.9181L25.4269 30.0949V2.67988L12.7374 16.1053L-0.594696 30.2106Z" fill="url(#paint1_linear)"/>
<path d="M-0.970642 2H-0.594696L12.3615 15.7075L25.3176 2H26.0722L39.0257 15.7075L51.9818 2H52.7364L65.6899 15.7075L78.6461 2H79.4006L92.3541 15.7075L105.31 2H106.065L119.018 15.7075L131.974 2H132.729L145.683 15.7075L158.639 2H159.393L172.347 15.7075L185.303 2H186.058L199.011 15.7075L211.967 2H212.722L225.675 15.7075L238.631 2H239.386L252.339 15.7075L265.296 2H266.05L279.004 15.7075L291.96 2H292.714L305.668 15.7075L318.624 2H319V2.39777L306.044 16.1053L319 29.8128V58.8218L306.044 72.5265L319 86.2341V115.243L306.044 128.948L319 142.655V171.664L306.044 185.369L319 199.076V228.085L306.044 241.79L319 255.498V284.507L306.044 298.211L319 311.919V340.527H318.624L318.733 340.412V312.999L306.044 326.422L292.712 340.527H291.957L278.625 326.422L265.936 312.997V340.409L266.045 340.524H265.29L265.4 340.409V312.997L252.71 326.422L239.378 340.527H238.623L225.291 326.422L212.602 312.997V340.409L212.711 340.524H211.956L212.066 340.409V312.997L199.376 326.422L186.044 340.527H185.29L171.957 326.422L159.268 312.997V340.409L159.377 340.524H158.623L158.732 340.409V312.997L146.043 326.422L132.71 340.527H131.956L118.624 326.422L105.934 312.997V340.409L106.044 340.524H105.289L105.398 340.409V312.997L92.7088 326.422L79.3766 340.527H78.622L65.2899 326.422L52.6004 312.997V340.409L52.7097 340.524H51.9552L52.0645 340.409V312.997L39.375 326.422L26.0429 340.527H25.2883L11.9561 326.422L-0.733337 312.997V340.409L-0.623993 340.524H-0.999969V311.916L11.9561 298.209L-0.999969 284.501V255.498L11.9855 241.79L-0.970642 228.083V199.076L11.9855 185.369L-0.970642 171.661V142.655L11.9855 128.948L-0.970642 115.24V86.2341L11.9855 72.5265L-0.970642 58.819V29.8128L11.9855 16.1053L-0.970642 2.39777V2ZM39.0257 241.392L52.0912 227.569V200.157L39.4016 213.582L26.0695 227.688L39.0257 241.392ZM25.9602 228.365V255.777L39.0257 269.6L51.9818 255.895L38.6497 241.79L25.9602 228.365ZM291.96 227.685L278.628 213.58L265.938 200.154V227.566L279.004 241.39L291.96 227.685ZM266.048 255.895L279.004 269.603L292.069 255.78V228.368L279.38 241.79L266.048 255.895ZM78.6461 171.264L65.3139 157.158L52.6244 143.733V171.145L65.6899 184.968L78.6461 171.264ZM52.7337 199.474L65.6899 213.182L78.7554 199.359V171.946L66.0659 185.369L52.7337 199.474ZM52.6244 114.727L65.6899 128.55L78.6461 114.842L65.3139 100.737L52.6244 87.3117V114.727ZM52.3578 115.24L39.4016 128.948L52.3578 142.655L65.3139 128.948L52.3578 115.24ZM66.0659 128.948L52.7337 143.053L65.6899 156.761L78.7554 142.937V115.525L66.0659 128.948ZM66.0659 157.158L79.022 170.866L91.9782 157.158L79.022 143.451L66.0659 157.158ZM91.9782 185.369L79.2887 171.944V199.356L92.3541 213.179L105.31 199.474L91.9782 185.369ZM92.3541 184.971L105.42 171.148V143.736L92.7301 157.158L79.398 171.264L92.3541 184.971ZM79.2887 142.937L92.3541 156.761L105.31 143.053L91.9782 128.948L79.2887 115.522V142.937ZM92.3541 128.55L105.42 114.727V87.3145L92.7301 100.737L79.398 114.842L92.3541 128.55ZM92.7301 128.948L105.686 142.655L118.642 128.948L105.686 115.24L92.7301 128.948ZM131.974 171.264L118.642 157.158L105.953 143.733V171.145L119.018 184.968L131.974 171.264ZM106.062 199.474L119.018 213.182L132.084 199.359V171.946L119.394 185.369L106.062 199.474ZM105.953 114.727L119.018 128.55L131.974 114.842L118.642 100.737L105.953 87.3117V114.727ZM119.394 128.948L106.062 143.053L119.018 156.761L132.084 142.937V115.525L119.394 128.948ZM119.394 157.158L132.35 170.866L145.307 157.158L132.35 143.451L119.394 157.158ZM145.307 185.369L132.617 171.944V199.356L145.683 213.179L158.639 199.474L145.307 185.369ZM145.683 184.971L158.748 171.148V143.736L146.059 157.158L132.726 171.264L145.683 184.971ZM132.617 142.937L145.683 156.761L158.639 143.053L145.307 128.948L132.617 115.522V142.937ZM145.683 128.55L158.748 114.727V87.3145L146.059 100.737L132.726 114.842L145.683 128.55ZM146.059 128.948L159.015 142.655L171.971 128.948L159.015 115.24L146.059 128.948ZM185.303 171.264L171.971 157.158L159.281 143.733V171.145L172.347 184.968L185.303 171.264ZM159.391 199.474L172.347 213.182L185.412 199.359V171.946L172.723 185.369L159.391 199.474ZM159.281 114.727L172.347 128.55L185.303 114.842L171.971 100.737L159.281 87.3117V114.727ZM172.723 128.948L159.391 143.053L172.347 156.761L185.412 142.937V115.525L172.723 128.948ZM172.723 157.158L185.679 170.866L198.635 157.158L185.679 143.451L172.723 157.158ZM198.635 185.369L185.946 171.944V199.356L199.011 213.179L211.967 199.474L198.635 185.369ZM199.011 184.971L212.076 171.148V143.736L199.387 157.158L186.055 171.264L199.011 184.971ZM185.946 142.937L199.011 156.761L211.967 143.053L198.635 128.948L185.946 115.522V142.937ZM199.011 128.55L212.076 114.727V87.3145L199.387 100.737L186.055 114.842L199.011 128.55ZM199.387 128.948L212.343 142.655L225.299 128.948L212.343 115.24L199.387 128.948ZM238.631 171.264L225.299 157.158L212.61 143.733V171.145L225.675 184.968L238.631 171.264ZM212.719 199.474L225.675 213.182L238.741 199.359V171.946L226.051 185.369L212.719 199.474ZM212.61 114.727L225.675 128.55L238.631 114.842L225.299 100.737L212.61 87.3117V114.727ZM226.051 128.948L212.719 143.053L225.675 156.761L238.741 142.937V115.525L226.051 128.948ZM226.051 157.158L239.007 170.866L251.963 157.158L239.007 143.451L226.051 157.158ZM251.963 185.369L239.274 171.944V199.356L252.339 213.179L265.296 199.474L251.963 185.369ZM252.339 184.971L265.405 171.148V143.736L252.715 157.158L239.383 171.264L252.339 184.971ZM239.274 142.937L252.339 156.761L265.296 143.053L251.963 128.948L239.274 115.522V142.937ZM252.339 128.55L265.405 114.727V87.3145L252.715 100.737L239.383 114.842L252.339 128.55ZM252.715 128.948L265.672 142.655L278.628 128.948L265.672 115.24L252.715 128.948ZM265.938 114.727L279.004 128.55L291.96 114.842L278.628 100.737L265.938 87.3117V114.727ZM279.38 128.948L266.048 143.053L279.004 156.761L292.069 142.937V115.525L279.38 128.948ZM278.628 157.158L265.938 143.733V171.145L279.004 184.968L291.96 171.264L278.628 157.158ZM279.38 185.369L266.048 199.474L279.004 213.182L292.069 199.359V171.946L279.38 185.369ZM278.628 185.369L265.672 171.661L252.715 185.369L265.672 199.076L278.628 185.369ZM265.405 200.154L252.715 213.58L239.383 227.685L252.339 241.392L265.405 227.569V200.154ZM251.963 241.79L239.274 228.365V255.777L252.339 269.6L265.296 255.895L251.963 241.79ZM251.963 213.58L239.007 199.872L226.051 213.58L239.007 227.287L251.963 213.58ZM238.741 228.365L226.051 241.79L212.719 255.895L225.675 269.603L238.741 255.78V228.365ZM238.631 227.685L225.299 213.58L212.61 200.154V227.566L225.675 241.39L238.631 227.685ZM225.299 185.369L212.343 171.661L199.387 185.369L212.343 199.076L225.299 185.369ZM212.076 200.154L199.387 213.58L186.055 227.685L199.011 241.392L212.076 227.569V200.154ZM198.635 241.79L185.946 228.365V255.777L199.011 269.6L211.967 255.895L198.635 241.79ZM198.635 213.58L185.679 199.872L172.723 213.58L185.679 227.287L198.635 213.58ZM185.412 228.365L172.723 241.79L159.391 255.895L172.347 269.603L185.412 255.78V228.365ZM185.303 227.685L171.971 213.58L159.281 200.154V227.566L172.347 241.39L185.303 227.685ZM171.971 185.369L159.015 171.661L146.059 185.369L159.015 199.076L171.971 185.369ZM158.748 200.154L146.059 213.58L132.726 227.685L145.683 241.392L158.748 227.569V200.154ZM145.307 241.79L132.617 228.365V255.777L145.683 269.6L158.639 255.895L145.307 241.79ZM145.307 213.58L132.35 199.872L119.394 213.58L132.35 227.287L145.307 213.58ZM132.084 228.365L119.394 241.79L106.062 255.895L119.018 269.603L132.084 255.78V228.365ZM131.974 227.685L118.642 213.58L105.953 200.154V227.566L119.018 241.39L131.974 227.685ZM118.642 185.369L105.686 171.661L92.7301 185.369L105.686 199.076L118.642 185.369ZM105.42 200.154L92.7301 213.58L79.398 227.685L92.3541 241.392L105.42 227.569V200.154ZM91.9782 241.79L79.2887 228.365V255.777L92.3541 269.6L105.31 255.895L91.9782 241.79ZM91.9782 213.58L79.022 199.872L66.0659 213.58L79.022 227.287L91.9782 213.58ZM78.7554 228.365L66.0659 241.79L52.7337 255.895L65.6899 269.603L78.7554 255.78V228.365ZM78.6461 227.685L65.3139 213.58L52.6244 200.154V227.566L65.6899 241.39L78.6461 227.685ZM65.3139 185.369L52.3578 171.661L39.4016 185.369L52.3578 199.076L65.3139 185.369ZM51.9818 199.474L38.6497 185.369L25.9602 171.944V199.356L39.0257 213.179L51.9818 199.474ZM39.0257 184.971L52.0912 171.148V143.736L39.4016 157.161L26.0695 171.266L39.0257 184.971ZM51.9818 143.053L38.6497 128.948L25.9602 115.522V142.935L39.0257 156.758L51.9818 143.053ZM39.0257 128.55L52.0912 114.727V87.3145L39.4016 100.74L26.0695 114.845L39.0257 128.55ZM51.9818 86.6318L38.6497 72.5265L25.9602 59.1011V86.5133L39.0257 100.337L51.9818 86.6318ZM39.0257 72.1287L52.0912 58.3055V30.8933L39.4016 44.3187L26.0695 58.424L39.0257 72.1287ZM39.4016 72.5265L52.3578 86.2341L65.3139 72.5265L52.3578 58.819L39.4016 72.5265ZM52.6244 58.3055L65.6899 72.1287L78.6461 58.4212L65.3139 44.3159L52.6244 30.8905V58.3055ZM66.0659 72.5265L52.7337 86.6318L65.6899 100.339L78.7554 86.5162V59.1039L66.0659 72.5265ZM66.0659 100.737L79.022 114.445L91.9782 100.737L79.022 87.0296L66.0659 100.737ZM79.2887 86.5162L92.3541 100.339L105.31 86.6318L91.9782 72.5265L79.2887 59.1011V86.5162ZM92.3541 72.1287L105.42 58.3055V30.8933L92.7301 44.3159L79.398 58.4212L92.3541 72.1287ZM92.7301 72.5265L105.686 86.2341L118.642 72.5265L105.686 58.819L92.7301 72.5265ZM105.953 58.3055L119.018 72.1287L131.974 58.4212L118.642 44.3159L105.953 30.8905V58.3055ZM119.394 72.5265L106.062 86.6318L119.018 100.339L132.084 86.5162V59.1039L119.394 72.5265ZM119.394 100.737L132.35 114.445L145.307 100.737L132.35 87.0296L119.394 100.737ZM132.617 86.5162L145.683 100.339L158.639 86.6318L145.307 72.5265L132.617 59.1011V86.5162ZM145.683 72.1287L158.748 58.3055V30.8933L146.059 44.3159L132.726 58.4212L145.683 72.1287ZM146.059 72.5265L159.015 86.2341L171.971 72.5265L159.015 58.819L146.059 72.5265ZM159.281 58.3055L172.347 72.1287L185.303 58.4212L171.971 44.3159L159.281 30.8905V58.3055ZM172.723 72.5265L159.391 86.6318L172.347 100.339L185.412 86.5162V59.1039L172.723 72.5265ZM172.723 100.737L185.679 114.445L198.635 100.737L185.679 87.0296L172.723 100.737ZM185.946 86.5162L199.011 100.339L211.967 86.6318L198.635 72.5265L185.946 59.1011V86.5162ZM199.011 72.1287L212.076 58.3055V30.8933L199.387 44.3159L186.055 58.4212L199.011 72.1287ZM199.387 72.5265L212.343 86.2341L225.299 72.5265L212.343 58.819L199.387 72.5265ZM212.61 58.3055L225.675 72.1287L238.631 58.4212L225.299 44.3159L212.61 30.8905V58.3055ZM226.051 72.5265L212.719 86.6318L225.675 100.339L238.741 86.5162V59.1039L226.051 72.5265ZM226.051 100.737L239.007 114.445L251.963 100.737L239.007 87.0296L226.051 100.737ZM239.274 86.5162L252.339 100.339L265.296 86.6318L251.963 72.5265L239.274 59.1011V86.5162ZM252.339 72.1287L265.405 58.3055V30.8933L252.715 44.3159L239.383 58.4212L252.339 72.1287ZM252.715 72.5265L265.672 86.2341L278.628 72.5265L265.672 58.819L252.715 72.5265ZM265.938 58.3055L279.004 72.1287L291.96 58.4212L278.628 44.3159L265.938 30.8905V58.3055ZM279.38 72.5265L266.048 86.6318L279.004 100.339L292.069 86.5162V59.1039L279.38 72.5265ZM279.38 100.737L292.336 114.445L305.292 100.737L292.336 87.0296L279.38 100.737ZM279.38 157.158L292.336 170.866L305.292 157.158L292.336 143.451L279.38 157.158ZM279.38 213.58L292.336 227.287L305.292 213.58L292.336 199.872L279.38 213.58ZM279.38 270.001L292.336 283.708L305.292 270.001L292.336 256.293L279.38 270.001ZM278.628 270.001L265.938 256.575V283.988L279.004 297.811L291.96 284.106L278.628 270.001ZM278.628 241.79L265.672 228.083L252.715 241.79L265.672 255.498L278.628 241.79ZM265.405 256.575L252.715 270.001L239.383 284.106L252.339 297.814L265.405 283.99V256.575ZM251.963 270.001L239.007 256.293L226.051 270.001L239.007 283.708L251.963 270.001ZM225.299 270.001L212.61 256.575V283.988L225.675 297.811L238.631 284.106L225.299 270.001ZM225.299 241.79L212.343 228.083L199.387 241.79L212.343 255.498L225.299 241.79ZM212.076 256.575L199.387 270.001L186.055 284.106L199.011 297.814L212.076 283.99V256.575ZM198.635 270.001L185.679 256.293L172.723 270.001L185.679 283.708L198.635 270.001ZM171.971 270.001L159.281 256.575V283.988L172.347 297.811L185.303 284.106L171.971 270.001ZM171.971 241.79L159.015 228.083L146.059 241.79L159.015 255.498L171.971 241.79ZM158.748 256.575L146.059 270.001L132.726 284.106L145.683 297.814L158.748 283.99V256.575ZM145.307 270.001L132.35 256.293L119.394 270.001L132.35 283.708L145.307 270.001ZM118.642 270.001L105.953 256.575V283.988L119.018 297.811L131.974 284.106L118.642 270.001ZM118.642 241.79L105.686 228.083L92.7301 241.79L105.686 255.498L118.642 241.79ZM105.42 256.575L92.7301 270.001L79.398 284.106L92.3541 297.814L105.42 283.99V256.575ZM91.9782 270.001L79.022 256.293L66.0659 270.001L79.022 283.708L91.9782 270.001ZM65.3139 270.001L52.6244 256.575V283.988L65.6899 297.811L78.6461 284.106L65.3139 270.001ZM65.3139 241.79L52.3578 228.083L39.4016 241.79L52.3578 255.498L65.3139 241.79ZM52.0912 256.575L39.4016 270.001L26.0695 284.106L39.0257 297.814L52.0912 283.99V256.575ZM38.6497 270.001L25.6936 256.293L12.7374 270.001L25.6936 283.708L38.6497 270.001ZM38.6497 213.58L25.6936 199.872L12.7374 213.58L25.6936 227.287L38.6497 213.58ZM38.6497 157.158L25.6936 143.451L12.7374 157.158L25.6936 170.866L38.6497 157.158ZM38.6497 100.737L25.6936 87.0296L12.7374 100.737L25.6936 114.445L38.6497 100.737ZM38.6497 44.3159L25.6936 30.6084L12.7374 44.3159L25.6936 58.0234L38.6497 44.3159ZM38.6497 16.1053L25.9602 2.67988V30.0921L39.0257 43.9153L51.9818 30.2106L38.6497 16.1053ZM52.3578 2.39777L39.4016 16.1053L52.3578 29.8128L65.3139 16.1053L52.3578 2.39777ZM78.7554 2.67988L66.0659 16.1053L52.7337 30.2106L65.6899 43.9181L78.7554 30.0949V2.67988ZM66.0659 44.3159L79.022 58.0234L91.9782 44.3159L79.022 30.6084L66.0659 44.3159ZM91.9782 16.1053L79.2887 2.67988V30.0921L92.3541 43.9153L105.31 30.2106L91.9782 16.1053ZM105.686 2.39777L92.7301 16.1053L105.686 29.8128L118.642 16.1053L105.686 2.39777ZM132.084 2.67988L119.394 16.1053L106.062 30.2106L119.018 43.9181L132.084 30.0949V2.67988ZM119.394 44.3159L132.35 58.0234L145.307 44.3159L132.35 30.6084L119.394 44.3159ZM145.307 16.1053L132.617 2.67988V30.0921L145.683 43.9153L158.639 30.2106L145.307 16.1053ZM159.015 2.39777L146.059 16.1053L159.015 29.8128L171.971 16.1053L159.015 2.39777ZM185.412 2.67988L172.723 16.1053L159.391 30.2106L172.347 43.9181L185.412 30.0949V2.67988ZM172.723 44.3159L185.679 58.0234L198.635 44.3159L185.679 30.6084L172.723 44.3159ZM198.635 16.1053L185.946 2.67988V30.0921L199.011 43.9153L211.967 30.2106L198.635 16.1053ZM212.343 2.39777L199.387 16.1053L212.343 29.8128L225.299 16.1053L212.343 2.39777ZM238.741 2.67988L226.051 16.1053L212.719 30.2106L225.675 43.9181L238.741 30.0949V2.67988ZM226.051 44.3159L239.007 58.0234L251.963 44.3159L239.007 30.6084L226.051 44.3159ZM251.963 16.1053L239.274 2.67988V30.0921L252.339 43.9153L265.296 30.2106L251.963 16.1053ZM265.672 2.39777L252.715 16.1053L265.672 29.8128L278.628 16.1053L265.672 2.39777ZM292.069 2.67988L279.38 16.1053L266.048 30.2106L279.004 43.9181L292.069 30.0949V2.67988ZM279.38 44.3159L292.336 58.0234L305.292 44.3159L292.336 30.6084L279.38 44.3159ZM305.292 16.1053L292.602 2.67988V30.0921L305.668 43.9153L318.624 30.2106L305.292 16.1053ZM318.733 58.3055V30.8933L306.044 44.3159L292.712 58.4212L305.668 72.1287L318.733 58.3055ZM305.292 72.5265L292.602 59.1011V86.5133L305.668 100.337L318.624 86.6318L305.292 72.5265ZM318.733 114.727V87.3145L306.044 100.737L292.712 114.842L305.668 128.55L318.733 114.727ZM305.292 128.948L292.602 115.522V142.935L305.668 156.758L318.624 143.053L305.292 128.948ZM318.733 171.148V143.736L306.044 157.158L292.712 171.264L305.668 184.971L318.733 171.148ZM305.292 185.369L292.602 171.944V199.356L305.668 213.179L318.624 199.474L305.292 185.369ZM318.733 227.569V200.157L306.044 213.58L292.712 227.685L305.668 241.392L318.733 227.569ZM305.292 241.79L292.602 228.365V255.777L305.668 269.6L318.624 255.895L305.292 241.79ZM318.733 283.99V256.578L306.044 270.001L292.712 284.106L305.668 297.814L318.733 283.99ZM318.624 312.317L305.292 298.211L292.602 284.786V312.198L305.668 326.021L318.624 312.317ZM292.336 340.13L305.292 326.422L292.336 312.714L279.38 326.422L292.336 340.13ZM279.004 326.024L292.069 312.201V284.789L279.38 298.214L266.048 312.319L279.004 326.024ZM265.672 311.919L278.628 298.211L265.672 284.504L252.715 298.211L265.672 311.919ZM265.296 312.317L251.963 298.211L239.274 284.786V312.198L252.339 326.021L265.296 312.317ZM239.007 340.13L251.963 326.422L239.007 312.714L226.051 326.422L239.007 340.13ZM225.675 326.024L238.741 312.201V284.789L226.051 298.214L212.719 312.319L225.675 326.024ZM212.343 311.919L225.299 298.211L212.343 284.504L199.387 298.211L212.343 311.919ZM211.967 312.317L198.635 298.211L185.946 284.786V312.198L199.011 326.021L211.967 312.317ZM185.679 340.13L198.635 326.422L185.679 312.714L172.723 326.422L185.679 340.13ZM172.347 326.024L185.412 312.201V284.789L172.723 298.214L159.391 312.319L172.347 326.024ZM159.015 311.919L171.971 298.211L159.015 284.504L146.059 298.211L159.015 311.919ZM158.639 312.317L145.307 298.211L132.617 284.786V312.198L145.683 326.021L158.639 312.317ZM132.35 340.13L145.307 326.422L132.35 312.714L119.394 326.422L132.35 340.13ZM119.018 326.024L132.084 312.201V284.789L119.394 298.214L106.062 312.319L119.018 326.024ZM105.686 311.919L118.642 298.211L105.686 284.504L92.7301 298.211L105.686 311.919ZM105.31 312.317L91.9782 298.211L79.2887 284.786V312.198L92.3541 326.021L105.31 312.317ZM79.022 340.13L91.9782 326.422L79.022 312.714L66.0659 326.422L79.022 340.13ZM65.6899 326.024L78.7554 312.201V284.789L66.0659 298.214L52.7337 312.319L65.6899 326.024ZM52.3578 311.919L65.3139 298.211L52.3578 284.504L39.4016 298.211L52.3578 311.919ZM51.9818 312.317L38.6497 298.211L25.9602 284.786V312.198L39.0257 326.021L51.9818 312.317ZM25.6936 340.13L38.6497 326.422L25.6936 312.714L12.7374 326.422L25.6936 340.13ZM-0.594696 312.317L12.3615 326.024L25.4269 312.201V284.789L12.7374 298.214L-0.594696 312.317ZM-0.70401 283.99L12.3615 297.814L25.3176 284.106L11.9855 270.001L-0.70401 256.575V283.99ZM-0.594696 255.895L12.3615 269.603L25.4269 255.78V228.368L12.7374 241.793L-0.594696 255.895ZM-0.70401 227.569L12.3615 241.392L25.3176 227.685L11.9855 213.58L-0.70401 200.154V227.569ZM-0.594696 199.474L12.3615 213.182L25.4269 199.359V171.946L12.7374 185.372L-0.594696 199.474ZM-0.70401 171.148L12.3615 184.971L25.3176 171.264L11.9855 157.158L-0.70401 143.733V171.148ZM-0.594696 143.053L12.3615 156.761L25.4269 142.937V115.525L12.7374 128.951L-0.594696 143.053ZM-0.70401 114.727L12.3615 128.55L25.3176 114.842L11.9855 100.737L-0.70401 87.3117V114.727ZM-0.594696 86.6318L12.3615 100.339L25.4269 86.5162V59.1039L12.7374 72.5293L-0.594696 86.6318ZM-0.70401 58.3055L12.3615 72.1287L25.3176 58.4212L11.9855 44.3159L-0.70401 30.8905V58.3055ZM-0.594696 30.2106L12.3615 43.9181L25.4269 30.0949V2.67988L12.7374 16.1053L-0.594696 30.2106Z" fill="#3A5691"/>
</g>
<rect x="-1" y="44.1147" width="320" height="637.885" fill="url(#paint2_linear)" fill-opacity="0.8"/>
<rect x="-1" y="44.1147" width="320" height="637.885" fill="url(#paint3_linear)"/>
</g>
<defs>
<filter id="filter0_f" x="-2.3625" y="339.165" width="322.725" height="337.007" filterUnits="userSpaceOnUse" color-interpolation-filters="sRGB">
<feFlood flood-opacity="0" result="BackgroundImageFix"/>
<feBlend mode="normal" in="SourceGraphic" in2="BackgroundImageFix" result="shape"/>
<feGaussianBlur stdDeviation="0.681249" result="effect1_foregroundBlur"/>
</filter>
<filter id="filter1_f" x="-2.3625" y="0.637501" width="322.725" height="341.252" filterUnits="userSpaceOnUse" color-interpolation-filters="sRGB">
<feFlood flood-opacity="0" result="BackgroundImageFix"/>
<feBlend mode="normal" in="SourceGraphic" in2="BackgroundImageFix" result="shape"/>
<feGaussianBlur stdDeviation="0.681249" result="effect1_foregroundBlur"/>
</filter>
<linearGradient id="paint0_linear" x1="319" y1="507.669" x2="-0.970668" y2="507.669" gradientUnits="userSpaceOnUse">
<stop stop-color="#BE965D"/>
<stop offset="0.2784" stop-color="#976F40"/>
<stop offset="0.4259" stop-color="#C99B61"/>
<stop offset="0.5584" stop-color="#F0BE7B"/>
<stop offset="0.6275" stop-color="#FFCB85"/>
<stop offset="0.7085" stop-color="#EEBC79"/>
<stop offset="0.8693" stop-color="#C0935B"/>
<stop offset="1" stop-color="#976F40"/>
</linearGradient>
<linearGradient id="paint1_linear" x1="319" y1="171.264" x2="-0.970668" y2="171.264" gradientUnits="userSpaceOnUse">
<stop stop-color="#BE965D"/>
<stop offset="0.2784" stop-color="#976F40"/>
<stop offset="0.4259" stop-color="#C99B61"/>
<stop offset="0.5584" stop-color="#F0BE7B"/>
<stop offset="0.6275" stop-color="#FFCB85"/>
<stop offset="0.7085" stop-color="#EEBC79"/>
<stop offset="0.8693" stop-color="#C0935B"/>
<stop offset="1" stop-color="#976F40"/>
</linearGradient>
<linearGradient id="paint2_linear" x1="159" y1="44.1147" x2="159" y2="682" gradientUnits="userSpaceOnUse">
<stop stop-color="#E7EAF6"/>
<stop offset="0.5" stop-color="#E7EAF6" stop-opacity="0"/>
<stop offset="1" stop-color="#E7EAF6"/>
</linearGradient>
<linearGradient id="paint3_linear" x1="-3.25" y1="337.653" x2="319" y2="337.653" gradientUnits="userSpaceOnUse">
<stop stop-color="white" stop-opacity="0"/>
<stop offset="0.184009" stop-color="white"/>
<stop offset="0.858525" stop-color="white"/>
<stop offset="1" stop-color="white" stop-opacity="0"/>
</linearGradient>
</defs>
</svg>
