<svg width="1920" height="1101" viewBox="0 0 1920 1101" fill="none" xmlns="http://www.w3.org/2000/svg">
<rect width="2072" height="1091.95" transform="matrix(-1 0 0 1 2012 5.052)" fill="url(#paint0_linear)"/>
<g filter="url(#filter0_f)">
<path d="M888.906 4H887.707L846.369 48.2574L805.03 4H802.623L761.293 48.2574L719.955 4H717.547L676.218 48.2574L634.879 4H632.472L591.142 48.2574L549.804 4H547.396L506.067 48.2574L464.728 4H462.321L420.991 48.2574L379.653 4H377.245L335.915 48.2574L294.577 4H292.17L250.84 48.2574L209.502 4H207.094L165.764 48.2574L124.426 4H122.019L80.6888 48.2574L39.3506 4H36.943L-4.3867 48.2574L-45.7249 4H-48.1325L-89.4622 48.2574L-130.8 4H-132V5.28428L-90.6618 49.5417L-132 93.7991V187.46L-90.6618 231.708L-132 275.966V369.627L-90.6618 413.875L-132 458.132V551.793L-90.6618 596.042L-132 640.299V733.96L-90.6618 778.208L-132 822.466V916.127L-90.6618 960.375L-132 1004.63V1097H-130.8L-131.149 1096.63V1008.12L-90.6618 1051.46L-48.124 1097H-45.7164L-3.17863 1051.46L37.3088 1008.11V1096.62L36.96 1096.99H39.3676L39.0188 1096.62V1008.11L79.5063 1051.46L122.044 1097H124.452L166.989 1051.46L207.477 1008.11V1096.62L207.128 1096.99H209.536L209.187 1096.62V1008.11L249.674 1051.46L292.212 1097H294.62L337.158 1051.46L377.645 1008.11V1096.62L377.296 1096.99H379.704L379.355 1096.62V1008.11L419.842 1051.46L462.38 1097H464.788L507.326 1051.46L547.813 1008.11V1096.62L547.464 1096.99H549.872L549.523 1096.62V1008.11L590.01 1051.46L632.548 1097H634.956L677.494 1051.46L717.981 1008.11V1096.62L717.632 1096.99H720.04L719.691 1096.62V1008.11L760.179 1051.46L802.716 1097H805.124L847.662 1051.46L888.149 1008.11V1096.62L887.8 1096.99H889V1004.62L847.662 960.366L889 916.109V822.466L847.568 778.208L888.906 733.951V640.299L847.568 596.042L888.906 551.784V458.132L847.568 413.875L888.906 369.618V275.966L847.568 231.708L888.906 187.451V93.7991L847.568 49.5417L888.906 5.28428V4ZM761.293 776.924L719.606 732.293V643.788L760.094 687.134L802.631 732.676L761.293 776.924ZM802.98 734.862V823.367L761.293 867.998L719.955 823.75L762.493 778.208L802.98 734.862ZM-45.7249 732.667L-3.18713 687.125L37.3003 643.778V732.284L-4.3867 776.915L-45.7249 732.667ZM36.9515 823.75L-4.3867 868.007L-46.0737 823.377V734.871L-5.58627 778.208L36.9515 823.75ZM634.879 550.5L677.417 504.958L717.905 461.612V550.117L676.218 594.748L634.879 550.5ZM717.556 641.583L676.218 685.841L634.531 641.21V552.704L675.018 596.042L717.556 641.583ZM717.905 367.96L676.218 412.591L634.879 368.333L677.417 322.792L717.905 279.445V367.96ZM718.755 369.618L760.094 413.875L718.755 458.132L677.417 413.875L718.755 369.618ZM675.018 413.875L717.556 459.417L676.218 503.674L634.531 459.043V370.538L675.018 413.875ZM675.018 504.958L633.68 549.216L592.342 504.958L633.68 460.701L675.018 504.958ZM592.342 596.042L632.829 552.695V641.201L591.142 685.832L549.804 641.583L592.342 596.042ZM591.142 594.757L549.455 550.127V461.621L589.943 504.958L632.48 550.5L591.142 594.757ZM632.829 459.043L591.142 503.674L549.804 459.417L592.342 413.875L632.829 370.528V459.043ZM591.142 412.591L549.455 367.96V279.454L589.943 322.792L632.48 368.333L591.142 412.591ZM589.943 413.875L548.604 458.132L507.266 413.875L548.604 369.618L589.943 413.875ZM464.728 550.5L507.266 504.958L547.754 461.612V550.117L506.067 594.748L464.728 550.5ZM547.405 641.583L506.067 685.841L464.38 641.21V552.704L504.867 596.042L547.405 641.583ZM547.754 367.96L506.067 412.591L464.728 368.333L507.266 322.792L547.754 279.445V367.96ZM504.867 413.875L547.405 459.417L506.067 503.674L464.38 459.043V370.538L504.867 413.875ZM504.867 504.958L463.529 549.216L422.19 504.958L463.529 460.701L504.867 504.958ZM422.19 596.042L462.678 552.695V641.201L420.991 685.832L379.653 641.583L422.19 596.042ZM420.991 594.757L379.304 550.127V461.621L419.791 504.958L462.329 550.5L420.991 594.757ZM462.678 459.043L420.991 503.674L379.653 459.417L422.19 413.875L462.678 370.528V459.043ZM420.991 412.591L379.304 367.96V279.454L419.791 322.792L462.329 368.333L420.991 412.591ZM419.791 413.875L378.453 458.132L337.115 413.875L378.453 369.618L419.791 413.875ZM294.577 550.5L337.115 504.958L377.602 461.612V550.117L335.915 594.748L294.577 550.5ZM377.254 641.583L335.915 685.841L294.228 641.21V552.704L334.716 596.042L377.254 641.583ZM377.602 367.96L335.915 412.591L294.577 368.333L337.115 322.792L377.602 279.445V367.96ZM334.716 413.875L377.254 459.417L335.915 503.674L294.228 459.043V370.538L334.716 413.875ZM334.716 504.958L293.378 549.216L252.039 504.958L293.378 460.701L334.716 504.958ZM252.039 596.042L292.527 552.695V641.201L250.84 685.832L209.502 641.583L252.039 596.042ZM250.84 594.757L209.153 550.127V461.621L249.64 504.958L292.178 550.5L250.84 594.757ZM292.527 459.043L250.84 503.674L209.502 459.417L252.039 413.875L292.527 370.528V459.043ZM250.84 412.591L209.153 367.96V279.454L249.64 322.792L292.178 368.333L250.84 412.591ZM249.64 413.875L208.302 458.132L166.964 413.875L208.302 369.618L249.64 413.875ZM124.426 550.5L166.964 504.958L207.451 461.612V550.117L165.764 594.748L124.426 550.5ZM207.103 641.583L165.764 685.841L124.077 641.21V552.704L164.565 596.042L207.103 641.583ZM207.451 367.96L165.764 412.591L124.426 368.333L166.964 322.792L207.451 279.445V367.96ZM164.565 413.875L207.103 459.417L165.764 503.674L124.077 459.043V370.538L164.565 413.875ZM164.565 504.958L123.227 549.216L81.8884 504.958L123.227 460.701L164.565 504.958ZM81.8884 596.042L122.376 552.695V641.201L80.6888 685.832L39.3506 641.583L81.8884 596.042ZM80.6888 594.757L39.0018 550.127V461.621L79.4893 504.958L122.027 550.5L80.6888 594.757ZM122.376 459.043L80.6888 503.674L39.3506 459.417L81.8884 413.875L122.376 370.528V459.043ZM80.6888 412.591L39.0018 367.96V279.454L79.4893 322.792L122.027 368.333L80.6888 412.591ZM79.4893 413.875L38.1511 458.132L-3.18713 413.875L38.1511 369.618L79.4893 413.875ZM37.3003 367.96L-4.3867 412.591L-45.7249 368.333L-3.18713 322.792L37.3003 279.445V367.96ZM-5.58627 413.875L36.9515 459.417L-4.3867 503.674L-46.0737 459.043V370.538L-5.58627 413.875ZM-3.18713 504.958L37.3003 461.612V550.117L-4.3867 594.748L-45.7249 550.5L-3.18713 504.958ZM-5.58627 596.042L36.9515 641.583L-4.3867 685.841L-46.0737 641.21V552.704L-5.58627 596.042ZM-3.18713 596.042L38.1511 551.784L79.4893 596.042L38.1511 640.299L-3.18713 596.042ZM39.0018 643.778L79.4893 687.125L122.027 732.667L80.6888 776.924L39.0018 732.293V643.778ZM81.8884 778.208L122.376 734.862V823.367L80.6888 867.998L39.3506 823.75L81.8884 778.208ZM81.8884 687.125L123.227 642.868L164.565 687.125L123.227 731.382L81.8884 687.125ZM124.077 734.862L164.565 778.208L207.103 823.75L165.764 868.007L124.077 823.377V734.862ZM124.426 732.667L166.964 687.125L207.451 643.778V732.284L165.764 776.915L124.426 732.667ZM166.964 596.042L208.302 551.784L249.64 596.042L208.302 640.299L166.964 596.042ZM209.153 643.778L249.64 687.125L292.178 732.667L250.84 776.924L209.153 732.293V643.778ZM252.039 778.208L292.527 734.862V823.367L250.84 867.998L209.502 823.75L252.039 778.208ZM252.039 687.125L293.378 642.868L334.716 687.125L293.378 731.382L252.039 687.125ZM294.228 734.862L334.716 778.208L377.254 823.75L335.915 868.007L294.228 823.377V734.862ZM294.577 732.667L337.115 687.125L377.602 643.778V732.284L335.915 776.915L294.577 732.667ZM337.115 596.042L378.453 551.784L419.791 596.042L378.453 640.299L337.115 596.042ZM379.304 643.778L419.791 687.125L462.329 732.667L420.991 776.924L379.304 732.293V643.778ZM422.19 778.208L462.678 734.862V823.367L420.991 867.998L379.653 823.75L422.19 778.208ZM422.19 687.125L463.529 642.868L504.867 687.125L463.529 731.382L422.19 687.125ZM464.38 734.862L504.867 778.208L547.405 823.75L506.067 868.007L464.38 823.377V734.862ZM464.728 732.667L507.266 687.125L547.754 643.778V732.284L506.067 776.915L464.728 732.667ZM507.266 596.042L548.604 551.784L589.943 596.042L548.604 640.299L507.266 596.042ZM549.455 643.778L589.943 687.125L632.48 732.667L591.142 776.924L549.455 732.293V643.778ZM592.342 778.208L632.829 734.862V823.367L591.142 867.998L549.804 823.75L592.342 778.208ZM592.342 687.125L633.68 642.868L675.018 687.125L633.68 731.382L592.342 687.125ZM634.531 734.862L675.018 778.208L717.556 823.75L676.218 868.007L634.531 823.377V734.862ZM634.879 732.667L677.417 687.125L717.905 643.778V732.284L676.218 776.915L634.879 732.667ZM677.417 596.042L718.755 551.784L760.094 596.042L718.755 640.299L677.417 596.042ZM719.955 641.583L762.493 596.042L802.98 552.695V641.201L761.293 685.832L719.955 641.583ZM761.293 594.757L719.606 550.127V461.621L760.094 504.967L802.631 550.509L761.293 594.757ZM719.955 459.417L762.493 413.875L802.98 370.528V459.034L761.293 503.665L719.955 459.417ZM761.293 412.591L719.606 367.96V279.454L760.094 322.801L802.631 368.342L761.293 412.591ZM719.955 277.25L762.493 231.708L802.98 188.362V276.867L761.293 321.498L719.955 277.25ZM761.293 230.424L719.606 185.793V97.2876L760.094 140.634L802.631 186.176L761.293 230.424ZM760.094 231.708L718.755 275.966L677.417 231.708L718.755 187.451L760.094 231.708ZM717.905 185.793L676.218 230.424L634.879 186.167L677.417 140.625L717.905 97.2785V185.793ZM675.018 231.708L717.556 277.25L676.218 321.507L634.531 276.877V188.371L675.018 231.708ZM675.018 322.792L633.68 367.049L592.342 322.792L633.68 278.534L675.018 322.792ZM632.829 276.877L591.142 321.507L549.804 277.25L592.342 231.708L632.829 188.362V276.877ZM591.142 230.424L549.455 185.793V97.2876L589.943 140.625L632.48 186.167L591.142 230.424ZM589.943 231.708L548.604 275.966L507.266 231.708L548.604 187.451L589.943 231.708ZM547.754 185.793L506.067 230.424L464.728 186.167L507.266 140.625L547.754 97.2785V185.793ZM504.867 231.708L547.405 277.25L506.067 321.507L464.38 276.877V188.371L504.867 231.708ZM504.867 322.792L463.529 367.049L422.19 322.792L463.529 278.534L504.867 322.792ZM462.678 276.877L420.991 321.507L379.653 277.25L422.19 231.708L462.678 188.362V276.877ZM420.991 230.424L379.304 185.793V97.2876L419.791 140.625L462.329 186.167L420.991 230.424ZM419.791 231.708L378.453 275.966L337.115 231.708L378.453 187.451L419.791 231.708ZM377.602 185.793L335.915 230.424L294.577 186.167L337.115 140.625L377.602 97.2785V185.793ZM334.716 231.708L377.254 277.25L335.915 321.507L294.228 276.877V188.371L334.716 231.708ZM334.716 322.792L293.378 367.049L252.039 322.792L293.378 278.534L334.716 322.792ZM292.527 276.877L250.84 321.507L209.502 277.25L252.039 231.708L292.527 188.362V276.877ZM250.84 230.424L209.153 185.793V97.2876L249.64 140.625L292.178 186.167L250.84 230.424ZM249.64 231.708L208.302 275.966L166.964 231.708L208.302 187.451L249.64 231.708ZM207.451 185.793L165.764 230.424L124.426 186.167L166.964 140.625L207.451 97.2785V185.793ZM164.565 231.708L207.103 277.25L165.764 321.507L124.077 276.877V188.371L164.565 231.708ZM164.565 322.792L123.227 367.049L81.8884 322.792L123.227 278.534L164.565 322.792ZM122.376 276.877L80.6888 321.507L39.3506 277.25L81.8884 231.708L122.376 188.362V276.877ZM80.6888 230.424L39.0018 185.793V97.2876L79.4893 140.625L122.027 186.167L80.6888 230.424ZM79.4893 231.708L38.1511 275.966L-3.18713 231.708L38.1511 187.451L79.4893 231.708ZM37.3003 185.793L-4.3867 230.424L-45.7249 186.167L-3.18713 140.625L37.3003 97.2785V185.793ZM-5.58627 231.708L36.9515 277.25L-4.3867 321.507L-46.0737 276.877V188.371L-5.58627 231.708ZM-5.58627 322.792L-46.9245 367.049L-88.2627 322.792L-46.9245 278.534L-5.58627 322.792ZM-5.58627 504.958L-46.9245 549.216L-88.2627 504.958L-46.9245 460.701L-5.58627 504.958ZM-5.58627 687.125L-46.9245 731.382L-88.2627 687.125L-46.9245 642.868L-5.58627 687.125ZM-5.58627 869.292L-46.9245 913.549L-88.2627 869.292L-46.9245 825.034L-5.58627 869.292ZM-3.18713 869.292L37.3003 825.945V914.451L-4.3867 959.082L-45.7249 914.833L-3.18713 869.292ZM-3.18713 778.208L38.1511 733.951L79.4893 778.208L38.1511 822.466L-3.18713 778.208ZM39.0018 825.945L79.4893 869.292L122.027 914.833L80.6888 959.091L39.0018 914.46V825.945ZM81.8884 869.292L123.227 825.034L164.565 869.292L123.227 913.549L81.8884 869.292ZM166.964 869.292L207.451 825.945V914.451L165.764 959.082L124.426 914.833L166.964 869.292ZM166.964 778.208L208.302 733.951L249.64 778.208L208.302 822.466L166.964 778.208ZM209.153 825.945L249.64 869.292L292.178 914.833L250.84 959.091L209.153 914.46V825.945ZM252.039 869.292L293.378 825.034L334.716 869.292L293.378 913.549L252.039 869.292ZM337.115 869.292L377.602 825.945V914.451L335.915 959.082L294.577 914.833L337.115 869.292ZM337.115 778.208L378.453 733.951L419.791 778.208L378.453 822.466L337.115 778.208ZM379.304 825.945L419.791 869.292L462.329 914.833L420.991 959.091L379.304 914.46V825.945ZM422.19 869.292L463.529 825.034L504.867 869.292L463.529 913.549L422.19 869.292ZM507.266 869.292L547.754 825.945V914.451L506.067 959.082L464.728 914.833L507.266 869.292ZM507.266 778.208L548.604 733.951L589.943 778.208L548.604 822.466L507.266 778.208ZM549.455 825.945L589.943 869.292L632.48 914.833L591.142 959.091L549.455 914.46V825.945ZM592.342 869.292L633.68 825.034L675.018 869.292L633.68 913.549L592.342 869.292ZM677.417 869.292L717.905 825.945V914.451L676.218 959.082L634.879 914.833L677.417 869.292ZM677.417 778.208L718.755 733.951L760.094 778.208L718.755 822.466L677.417 778.208ZM719.606 825.945L760.094 869.292L802.631 914.833L761.293 959.091L719.606 914.46V825.945ZM762.493 869.292L803.831 825.034L845.169 869.292L803.831 913.549L762.493 869.292ZM762.493 687.125L803.831 642.868L845.169 687.125L803.831 731.382L762.493 687.125ZM762.493 504.958L803.831 460.701L845.169 504.958L803.831 549.216L762.493 504.958ZM762.493 322.792L803.831 278.534L845.169 322.792L803.831 367.049L762.493 322.792ZM762.493 140.625L803.831 96.3676L845.169 140.625L803.831 184.882L762.493 140.625ZM762.493 49.5417L802.98 6.19511V94.7008L761.293 139.332L719.955 95.0833L762.493 49.5417ZM718.755 5.28428L760.094 49.5417L718.755 93.7991L677.417 49.5417L718.755 5.28428ZM634.531 6.19511L675.018 49.5417L717.556 95.0833L676.218 139.341L634.531 94.7099V6.19511ZM675.018 140.625L633.68 184.882L592.342 140.625L633.68 96.3676L675.018 140.625ZM592.342 49.5417L632.829 6.19511V94.7008L591.142 139.332L549.804 95.0833L592.342 49.5417ZM548.604 5.28428L589.943 49.5417L548.604 93.7991L507.266 49.5417L548.604 5.28428ZM464.38 6.19511L504.867 49.5417L547.405 95.0833L506.067 139.341L464.38 94.7099V6.19511ZM504.867 140.625L463.529 184.882L422.19 140.625L463.529 96.3676L504.867 140.625ZM422.19 49.5417L462.678 6.19511V94.7008L420.991 139.332L379.653 95.0833L422.19 49.5417ZM378.453 5.28428L419.791 49.5417L378.453 93.7991L337.115 49.5417L378.453 5.28428ZM294.228 6.19511L334.716 49.5417L377.254 95.0833L335.915 139.341L294.228 94.7099V6.19511ZM334.716 140.625L293.378 184.882L252.039 140.625L293.378 96.3676L334.716 140.625ZM252.039 49.5417L292.527 6.19511V94.7008L250.84 139.332L209.502 95.0833L252.039 49.5417ZM208.302 5.28428L249.64 49.5417L208.302 93.7991L166.964 49.5417L208.302 5.28428ZM124.077 6.19511L164.565 49.5417L207.103 95.0833L165.764 139.341L124.077 94.7099V6.19511ZM164.565 140.625L123.227 184.882L81.8884 140.625L123.227 96.3676L164.565 140.625ZM81.8884 49.5417L122.376 6.19511V94.7008L80.6888 139.332L39.3506 95.0833L81.8884 49.5417ZM38.1511 5.28428L79.4893 49.5417L38.1511 93.7991L-3.18713 49.5417L38.1511 5.28428ZM-46.0737 6.19511L-5.58627 49.5417L36.9515 95.0833L-4.3867 139.341L-46.0737 94.7099V6.19511ZM-5.58627 140.625L-46.9245 184.882L-88.2627 140.625L-46.9245 96.3676L-5.58627 140.625ZM-88.2627 49.5417L-47.7752 6.19511V94.7008L-89.4622 139.332L-130.8 95.0833L-88.2627 49.5417ZM-131.149 185.793V97.2876L-90.6618 140.625L-48.124 186.167L-89.4622 230.424L-131.149 185.793ZM-88.2627 231.708L-47.7752 188.362V276.867L-89.4622 321.498L-130.8 277.25L-88.2627 231.708ZM-131.149 367.96V279.454L-90.6618 322.792L-48.124 368.333L-89.4622 412.591L-131.149 367.96ZM-88.2627 413.875L-47.7752 370.528V459.034L-89.4622 503.665L-130.8 459.417L-88.2627 413.875ZM-131.149 550.127V461.621L-90.6618 504.958L-48.124 550.5L-89.4622 594.757L-131.149 550.127ZM-88.2627 596.042L-47.7752 552.695V641.201L-89.4622 685.832L-130.8 641.583L-88.2627 596.042ZM-131.149 732.293V643.788L-90.6618 687.125L-48.124 732.667L-89.4622 776.924L-131.149 732.293ZM-88.2627 778.208L-47.7752 734.862V823.367L-89.4622 867.998L-130.8 823.75L-88.2627 778.208ZM-131.149 914.46V825.954L-90.6618 869.292L-48.124 914.833L-89.4622 959.091L-131.149 914.46ZM-130.8 1005.92L-88.2627 960.375L-47.7752 917.028V1005.53L-89.4622 1050.16L-130.8 1005.92ZM-46.9245 1095.72L-88.2627 1051.46L-46.9245 1007.2L-5.58627 1051.46L-46.9245 1095.72ZM-4.3867 1050.17L-46.0737 1005.54V917.038L-5.58627 960.384L36.9515 1005.93L-4.3867 1050.17ZM38.1511 1004.63L-3.18713 960.375L38.1511 916.118L79.4893 960.375L38.1511 1004.63ZM39.3506 1005.92L81.8884 960.375L122.376 917.028V1005.53L80.6888 1050.16L39.3506 1005.92ZM123.227 1095.72L81.8884 1051.46L123.227 1007.2L164.565 1051.46L123.227 1095.72ZM165.764 1050.17L124.077 1005.54V917.038L164.565 960.384L207.103 1005.93L165.764 1050.17ZM208.302 1004.63L166.964 960.375L208.302 916.118L249.64 960.375L208.302 1004.63ZM209.502 1005.92L252.039 960.375L292.527 917.028V1005.53L250.84 1050.16L209.502 1005.92ZM293.378 1095.72L252.039 1051.46L293.378 1007.2L334.716 1051.46L293.378 1095.72ZM335.915 1050.17L294.228 1005.54V917.038L334.716 960.384L377.254 1005.93L335.915 1050.17ZM378.453 1004.63L337.115 960.375L378.453 916.118L419.791 960.375L378.453 1004.63ZM379.653 1005.92L422.19 960.375L462.678 917.028V1005.53L420.991 1050.16L379.653 1005.92ZM463.529 1095.72L422.19 1051.46L463.529 1007.2L504.867 1051.46L463.529 1095.72ZM506.067 1050.17L464.38 1005.54V917.038L504.867 960.384L547.405 1005.93L506.067 1050.17ZM548.604 1004.63L507.266 960.375L548.604 916.118L589.943 960.375L548.604 1004.63ZM549.804 1005.92L592.342 960.375L632.829 917.028V1005.53L591.142 1050.16L549.804 1005.92ZM633.68 1095.72L592.342 1051.46L633.68 1007.2L675.018 1051.46L633.68 1095.72ZM676.218 1050.17L634.531 1005.54V917.038L675.018 960.384L717.556 1005.93L676.218 1050.17ZM718.755 1004.63L677.417 960.375L718.755 916.118L760.094 960.375L718.755 1004.63ZM719.955 1005.92L762.493 960.375L802.98 917.028V1005.53L761.293 1050.16L719.955 1005.92ZM803.831 1095.72L762.493 1051.46L803.831 1007.2L845.169 1051.46L803.831 1095.72ZM887.707 1005.92L846.369 1050.17L804.682 1005.54V917.038L845.169 960.384L887.707 1005.92ZM888.056 914.46L846.369 959.091L805.03 914.833L847.568 869.292L888.056 825.945V914.46ZM887.707 823.75L846.369 868.007L804.682 823.377V734.871L845.169 778.217L887.707 823.75ZM888.056 732.293L846.369 776.924L805.03 732.667L847.568 687.125L888.056 643.778V732.293ZM887.707 641.583L846.369 685.841L804.682 641.21V552.704L845.169 596.051L887.707 641.583ZM888.056 550.127L846.369 594.757L805.03 550.5L847.568 504.958L888.056 461.612V550.127ZM887.707 459.417L846.369 503.674L804.682 459.043V370.538L845.169 413.884L887.707 459.417ZM888.056 367.96L846.369 412.591L805.03 368.333L847.568 322.792L888.056 279.445V367.96ZM887.707 277.25L846.369 321.507L804.682 276.877V188.371L845.169 231.717L887.707 277.25ZM888.056 185.793L846.369 230.424L805.03 186.167L847.568 140.625L888.056 97.2785V185.793ZM887.707 95.0833L846.369 139.341L804.682 94.7099V6.19511L845.169 49.5417L887.707 95.0833Z" fill="url(#paint1_linear)"/>
<path d="M888.906 4H887.707L846.369 48.2574L805.03 4H802.623L761.293 48.2574L719.955 4H717.547L676.218 48.2574L634.879 4H632.472L591.142 48.2574L549.804 4H547.396L506.067 48.2574L464.728 4H462.321L420.991 48.2574L379.653 4H377.245L335.915 48.2574L294.577 4H292.17L250.84 48.2574L209.502 4H207.094L165.764 48.2574L124.426 4H122.019L80.6888 48.2574L39.3506 4H36.943L-4.3867 48.2574L-45.7249 4H-48.1325L-89.4622 48.2574L-130.8 4H-132V5.28428L-90.6618 49.5417L-132 93.7991V187.46L-90.6618 231.708L-132 275.966V369.627L-90.6618 413.875L-132 458.132V551.793L-90.6618 596.042L-132 640.299V733.96L-90.6618 778.208L-132 822.466V916.127L-90.6618 960.375L-132 1004.63V1097H-130.8L-131.149 1096.63V1008.12L-90.6618 1051.46L-48.124 1097H-45.7164L-3.17863 1051.46L37.3088 1008.11V1096.62L36.96 1096.99H39.3676L39.0188 1096.62V1008.11L79.5063 1051.46L122.044 1097H124.452L166.989 1051.46L207.477 1008.11V1096.62L207.128 1096.99H209.536L209.187 1096.62V1008.11L249.674 1051.46L292.212 1097H294.62L337.158 1051.46L377.645 1008.11V1096.62L377.296 1096.99H379.704L379.355 1096.62V1008.11L419.842 1051.46L462.38 1097H464.788L507.326 1051.46L547.813 1008.11V1096.62L547.464 1096.99H549.872L549.523 1096.62V1008.11L590.01 1051.46L632.548 1097H634.956L677.494 1051.46L717.981 1008.11V1096.62L717.632 1096.99H720.04L719.691 1096.62V1008.11L760.179 1051.46L802.716 1097H805.124L847.662 1051.46L888.149 1008.11V1096.62L887.8 1096.99H889V1004.62L847.662 960.366L889 916.109V822.466L847.568 778.208L888.906 733.951V640.299L847.568 596.042L888.906 551.784V458.132L847.568 413.875L888.906 369.618V275.966L847.568 231.708L888.906 187.451V93.7991L847.568 49.5417L888.906 5.28428V4ZM761.293 776.924L719.606 732.293V643.788L760.094 687.134L802.631 732.676L761.293 776.924ZM802.98 734.862V823.367L761.293 867.998L719.955 823.75L762.493 778.208L802.98 734.862ZM-45.7249 732.667L-3.18713 687.125L37.3003 643.778V732.284L-4.3867 776.915L-45.7249 732.667ZM36.9515 823.75L-4.3867 868.007L-46.0737 823.377V734.871L-5.58627 778.208L36.9515 823.75ZM634.879 550.5L677.417 504.958L717.905 461.612V550.117L676.218 594.748L634.879 550.5ZM717.556 641.583L676.218 685.841L634.531 641.21V552.704L675.018 596.042L717.556 641.583ZM717.905 367.96L676.218 412.591L634.879 368.333L677.417 322.792L717.905 279.445V367.96ZM718.755 369.618L760.094 413.875L718.755 458.132L677.417 413.875L718.755 369.618ZM675.018 413.875L717.556 459.417L676.218 503.674L634.531 459.043V370.538L675.018 413.875ZM675.018 504.958L633.68 549.216L592.342 504.958L633.68 460.701L675.018 504.958ZM592.342 596.042L632.829 552.695V641.201L591.142 685.832L549.804 641.583L592.342 596.042ZM591.142 594.757L549.455 550.127V461.621L589.943 504.958L632.48 550.5L591.142 594.757ZM632.829 459.043L591.142 503.674L549.804 459.417L592.342 413.875L632.829 370.528V459.043ZM591.142 412.591L549.455 367.96V279.454L589.943 322.792L632.48 368.333L591.142 412.591ZM589.943 413.875L548.604 458.132L507.266 413.875L548.604 369.618L589.943 413.875ZM464.728 550.5L507.266 504.958L547.754 461.612V550.117L506.067 594.748L464.728 550.5ZM547.405 641.583L506.067 685.841L464.38 641.21V552.704L504.867 596.042L547.405 641.583ZM547.754 367.96L506.067 412.591L464.728 368.333L507.266 322.792L547.754 279.445V367.96ZM504.867 413.875L547.405 459.417L506.067 503.674L464.38 459.043V370.538L504.867 413.875ZM504.867 504.958L463.529 549.216L422.19 504.958L463.529 460.701L504.867 504.958ZM422.19 596.042L462.678 552.695V641.201L420.991 685.832L379.653 641.583L422.19 596.042ZM420.991 594.757L379.304 550.127V461.621L419.791 504.958L462.329 550.5L420.991 594.757ZM462.678 459.043L420.991 503.674L379.653 459.417L422.19 413.875L462.678 370.528V459.043ZM420.991 412.591L379.304 367.96V279.454L419.791 322.792L462.329 368.333L420.991 412.591ZM419.791 413.875L378.453 458.132L337.115 413.875L378.453 369.618L419.791 413.875ZM294.577 550.5L337.115 504.958L377.602 461.612V550.117L335.915 594.748L294.577 550.5ZM377.254 641.583L335.915 685.841L294.228 641.21V552.704L334.716 596.042L377.254 641.583ZM377.602 367.96L335.915 412.591L294.577 368.333L337.115 322.792L377.602 279.445V367.96ZM334.716 413.875L377.254 459.417L335.915 503.674L294.228 459.043V370.538L334.716 413.875ZM334.716 504.958L293.378 549.216L252.039 504.958L293.378 460.701L334.716 504.958ZM252.039 596.042L292.527 552.695V641.201L250.84 685.832L209.502 641.583L252.039 596.042ZM250.84 594.757L209.153 550.127V461.621L249.64 504.958L292.178 550.5L250.84 594.757ZM292.527 459.043L250.84 503.674L209.502 459.417L252.039 413.875L292.527 370.528V459.043ZM250.84 412.591L209.153 367.96V279.454L249.64 322.792L292.178 368.333L250.84 412.591ZM249.64 413.875L208.302 458.132L166.964 413.875L208.302 369.618L249.64 413.875ZM124.426 550.5L166.964 504.958L207.451 461.612V550.117L165.764 594.748L124.426 550.5ZM207.103 641.583L165.764 685.841L124.077 641.21V552.704L164.565 596.042L207.103 641.583ZM207.451 367.96L165.764 412.591L124.426 368.333L166.964 322.792L207.451 279.445V367.96ZM164.565 413.875L207.103 459.417L165.764 503.674L124.077 459.043V370.538L164.565 413.875ZM164.565 504.958L123.227 549.216L81.8884 504.958L123.227 460.701L164.565 504.958ZM81.8884 596.042L122.376 552.695V641.201L80.6888 685.832L39.3506 641.583L81.8884 596.042ZM80.6888 594.757L39.0018 550.127V461.621L79.4893 504.958L122.027 550.5L80.6888 594.757ZM122.376 459.043L80.6888 503.674L39.3506 459.417L81.8884 413.875L122.376 370.528V459.043ZM80.6888 412.591L39.0018 367.96V279.454L79.4893 322.792L122.027 368.333L80.6888 412.591ZM79.4893 413.875L38.1511 458.132L-3.18713 413.875L38.1511 369.618L79.4893 413.875ZM37.3003 367.96L-4.3867 412.591L-45.7249 368.333L-3.18713 322.792L37.3003 279.445V367.96ZM-5.58627 413.875L36.9515 459.417L-4.3867 503.674L-46.0737 459.043V370.538L-5.58627 413.875ZM-3.18713 504.958L37.3003 461.612V550.117L-4.3867 594.748L-45.7249 550.5L-3.18713 504.958ZM-5.58627 596.042L36.9515 641.583L-4.3867 685.841L-46.0737 641.21V552.704L-5.58627 596.042ZM-3.18713 596.042L38.1511 551.784L79.4893 596.042L38.1511 640.299L-3.18713 596.042ZM39.0018 643.778L79.4893 687.125L122.027 732.667L80.6888 776.924L39.0018 732.293V643.778ZM81.8884 778.208L122.376 734.862V823.367L80.6888 867.998L39.3506 823.75L81.8884 778.208ZM81.8884 687.125L123.227 642.868L164.565 687.125L123.227 731.382L81.8884 687.125ZM124.077 734.862L164.565 778.208L207.103 823.75L165.764 868.007L124.077 823.377V734.862ZM124.426 732.667L166.964 687.125L207.451 643.778V732.284L165.764 776.915L124.426 732.667ZM166.964 596.042L208.302 551.784L249.64 596.042L208.302 640.299L166.964 596.042ZM209.153 643.778L249.64 687.125L292.178 732.667L250.84 776.924L209.153 732.293V643.778ZM252.039 778.208L292.527 734.862V823.367L250.84 867.998L209.502 823.75L252.039 778.208ZM252.039 687.125L293.378 642.868L334.716 687.125L293.378 731.382L252.039 687.125ZM294.228 734.862L334.716 778.208L377.254 823.75L335.915 868.007L294.228 823.377V734.862ZM294.577 732.667L337.115 687.125L377.602 643.778V732.284L335.915 776.915L294.577 732.667ZM337.115 596.042L378.453 551.784L419.791 596.042L378.453 640.299L337.115 596.042ZM379.304 643.778L419.791 687.125L462.329 732.667L420.991 776.924L379.304 732.293V643.778ZM422.19 778.208L462.678 734.862V823.367L420.991 867.998L379.653 823.75L422.19 778.208ZM422.19 687.125L463.529 642.868L504.867 687.125L463.529 731.382L422.19 687.125ZM464.38 734.862L504.867 778.208L547.405 823.75L506.067 868.007L464.38 823.377V734.862ZM464.728 732.667L507.266 687.125L547.754 643.778V732.284L506.067 776.915L464.728 732.667ZM507.266 596.042L548.604 551.784L589.943 596.042L548.604 640.299L507.266 596.042ZM549.455 643.778L589.943 687.125L632.48 732.667L591.142 776.924L549.455 732.293V643.778ZM592.342 778.208L632.829 734.862V823.367L591.142 867.998L549.804 823.75L592.342 778.208ZM592.342 687.125L633.68 642.868L675.018 687.125L633.68 731.382L592.342 687.125ZM634.531 734.862L675.018 778.208L717.556 823.75L676.218 868.007L634.531 823.377V734.862ZM634.879 732.667L677.417 687.125L717.905 643.778V732.284L676.218 776.915L634.879 732.667ZM677.417 596.042L718.755 551.784L760.094 596.042L718.755 640.299L677.417 596.042ZM719.955 641.583L762.493 596.042L802.98 552.695V641.201L761.293 685.832L719.955 641.583ZM761.293 594.757L719.606 550.127V461.621L760.094 504.967L802.631 550.509L761.293 594.757ZM719.955 459.417L762.493 413.875L802.98 370.528V459.034L761.293 503.665L719.955 459.417ZM761.293 412.591L719.606 367.96V279.454L760.094 322.801L802.631 368.342L761.293 412.591ZM719.955 277.25L762.493 231.708L802.98 188.362V276.867L761.293 321.498L719.955 277.25ZM761.293 230.424L719.606 185.793V97.2876L760.094 140.634L802.631 186.176L761.293 230.424ZM760.094 231.708L718.755 275.966L677.417 231.708L718.755 187.451L760.094 231.708ZM717.905 185.793L676.218 230.424L634.879 186.167L677.417 140.625L717.905 97.2785V185.793ZM675.018 231.708L717.556 277.25L676.218 321.507L634.531 276.877V188.371L675.018 231.708ZM675.018 322.792L633.68 367.049L592.342 322.792L633.68 278.534L675.018 322.792ZM632.829 276.877L591.142 321.507L549.804 277.25L592.342 231.708L632.829 188.362V276.877ZM591.142 230.424L549.455 185.793V97.2876L589.943 140.625L632.48 186.167L591.142 230.424ZM589.943 231.708L548.604 275.966L507.266 231.708L548.604 187.451L589.943 231.708ZM547.754 185.793L506.067 230.424L464.728 186.167L507.266 140.625L547.754 97.2785V185.793ZM504.867 231.708L547.405 277.25L506.067 321.507L464.38 276.877V188.371L504.867 231.708ZM504.867 322.792L463.529 367.049L422.19 322.792L463.529 278.534L504.867 322.792ZM462.678 276.877L420.991 321.507L379.653 277.25L422.19 231.708L462.678 188.362V276.877ZM420.991 230.424L379.304 185.793V97.2876L419.791 140.625L462.329 186.167L420.991 230.424ZM419.791 231.708L378.453 275.966L337.115 231.708L378.453 187.451L419.791 231.708ZM377.602 185.793L335.915 230.424L294.577 186.167L337.115 140.625L377.602 97.2785V185.793ZM334.716 231.708L377.254 277.25L335.915 321.507L294.228 276.877V188.371L334.716 231.708ZM334.716 322.792L293.378 367.049L252.039 322.792L293.378 278.534L334.716 322.792ZM292.527 276.877L250.84 321.507L209.502 277.25L252.039 231.708L292.527 188.362V276.877ZM250.84 230.424L209.153 185.793V97.2876L249.64 140.625L292.178 186.167L250.84 230.424ZM249.64 231.708L208.302 275.966L166.964 231.708L208.302 187.451L249.64 231.708ZM207.451 185.793L165.764 230.424L124.426 186.167L166.964 140.625L207.451 97.2785V185.793ZM164.565 231.708L207.103 277.25L165.764 321.507L124.077 276.877V188.371L164.565 231.708ZM164.565 322.792L123.227 367.049L81.8884 322.792L123.227 278.534L164.565 322.792ZM122.376 276.877L80.6888 321.507L39.3506 277.25L81.8884 231.708L122.376 188.362V276.877ZM80.6888 230.424L39.0018 185.793V97.2876L79.4893 140.625L122.027 186.167L80.6888 230.424ZM79.4893 231.708L38.1511 275.966L-3.18713 231.708L38.1511 187.451L79.4893 231.708ZM37.3003 185.793L-4.3867 230.424L-45.7249 186.167L-3.18713 140.625L37.3003 97.2785V185.793ZM-5.58627 231.708L36.9515 277.25L-4.3867 321.507L-46.0737 276.877V188.371L-5.58627 231.708ZM-5.58627 322.792L-46.9245 367.049L-88.2627 322.792L-46.9245 278.534L-5.58627 322.792ZM-5.58627 504.958L-46.9245 549.216L-88.2627 504.958L-46.9245 460.701L-5.58627 504.958ZM-5.58627 687.125L-46.9245 731.382L-88.2627 687.125L-46.9245 642.868L-5.58627 687.125ZM-5.58627 869.292L-46.9245 913.549L-88.2627 869.292L-46.9245 825.034L-5.58627 869.292ZM-3.18713 869.292L37.3003 825.945V914.451L-4.3867 959.082L-45.7249 914.833L-3.18713 869.292ZM-3.18713 778.208L38.1511 733.951L79.4893 778.208L38.1511 822.466L-3.18713 778.208ZM39.0018 825.945L79.4893 869.292L122.027 914.833L80.6888 959.091L39.0018 914.46V825.945ZM81.8884 869.292L123.227 825.034L164.565 869.292L123.227 913.549L81.8884 869.292ZM166.964 869.292L207.451 825.945V914.451L165.764 959.082L124.426 914.833L166.964 869.292ZM166.964 778.208L208.302 733.951L249.64 778.208L208.302 822.466L166.964 778.208ZM209.153 825.945L249.64 869.292L292.178 914.833L250.84 959.091L209.153 914.46V825.945ZM252.039 869.292L293.378 825.034L334.716 869.292L293.378 913.549L252.039 869.292ZM337.115 869.292L377.602 825.945V914.451L335.915 959.082L294.577 914.833L337.115 869.292ZM337.115 778.208L378.453 733.951L419.791 778.208L378.453 822.466L337.115 778.208ZM379.304 825.945L419.791 869.292L462.329 914.833L420.991 959.091L379.304 914.46V825.945ZM422.19 869.292L463.529 825.034L504.867 869.292L463.529 913.549L422.19 869.292ZM507.266 869.292L547.754 825.945V914.451L506.067 959.082L464.728 914.833L507.266 869.292ZM507.266 778.208L548.604 733.951L589.943 778.208L548.604 822.466L507.266 778.208ZM549.455 825.945L589.943 869.292L632.48 914.833L591.142 959.091L549.455 914.46V825.945ZM592.342 869.292L633.68 825.034L675.018 869.292L633.68 913.549L592.342 869.292ZM677.417 869.292L717.905 825.945V914.451L676.218 959.082L634.879 914.833L677.417 869.292ZM677.417 778.208L718.755 733.951L760.094 778.208L718.755 822.466L677.417 778.208ZM719.606 825.945L760.094 869.292L802.631 914.833L761.293 959.091L719.606 914.46V825.945ZM762.493 869.292L803.831 825.034L845.169 869.292L803.831 913.549L762.493 869.292ZM762.493 687.125L803.831 642.868L845.169 687.125L803.831 731.382L762.493 687.125ZM762.493 504.958L803.831 460.701L845.169 504.958L803.831 549.216L762.493 504.958ZM762.493 322.792L803.831 278.534L845.169 322.792L803.831 367.049L762.493 322.792ZM762.493 140.625L803.831 96.3676L845.169 140.625L803.831 184.882L762.493 140.625ZM762.493 49.5417L802.98 6.19511V94.7008L761.293 139.332L719.955 95.0833L762.493 49.5417ZM718.755 5.28428L760.094 49.5417L718.755 93.7991L677.417 49.5417L718.755 5.28428ZM634.531 6.19511L675.018 49.5417L717.556 95.0833L676.218 139.341L634.531 94.7099V6.19511ZM675.018 140.625L633.68 184.882L592.342 140.625L633.68 96.3676L675.018 140.625ZM592.342 49.5417L632.829 6.19511V94.7008L591.142 139.332L549.804 95.0833L592.342 49.5417ZM548.604 5.28428L589.943 49.5417L548.604 93.7991L507.266 49.5417L548.604 5.28428ZM464.38 6.19511L504.867 49.5417L547.405 95.0833L506.067 139.341L464.38 94.7099V6.19511ZM504.867 140.625L463.529 184.882L422.19 140.625L463.529 96.3676L504.867 140.625ZM422.19 49.5417L462.678 6.19511V94.7008L420.991 139.332L379.653 95.0833L422.19 49.5417ZM378.453 5.28428L419.791 49.5417L378.453 93.7991L337.115 49.5417L378.453 5.28428ZM294.228 6.19511L334.716 49.5417L377.254 95.0833L335.915 139.341L294.228 94.7099V6.19511ZM334.716 140.625L293.378 184.882L252.039 140.625L293.378 96.3676L334.716 140.625ZM252.039 49.5417L292.527 6.19511V94.7008L250.84 139.332L209.502 95.0833L252.039 49.5417ZM208.302 5.28428L249.64 49.5417L208.302 93.7991L166.964 49.5417L208.302 5.28428ZM124.077 6.19511L164.565 49.5417L207.103 95.0833L165.764 139.341L124.077 94.7099V6.19511ZM164.565 140.625L123.227 184.882L81.8884 140.625L123.227 96.3676L164.565 140.625ZM81.8884 49.5417L122.376 6.19511V94.7008L80.6888 139.332L39.3506 95.0833L81.8884 49.5417ZM38.1511 5.28428L79.4893 49.5417L38.1511 93.7991L-3.18713 49.5417L38.1511 5.28428ZM-46.0737 6.19511L-5.58627 49.5417L36.9515 95.0833L-4.3867 139.341L-46.0737 94.7099V6.19511ZM-5.58627 140.625L-46.9245 184.882L-88.2627 140.625L-46.9245 96.3676L-5.58627 140.625ZM-88.2627 49.5417L-47.7752 6.19511V94.7008L-89.4622 139.332L-130.8 95.0833L-88.2627 49.5417ZM-131.149 185.793V97.2876L-90.6618 140.625L-48.124 186.167L-89.4622 230.424L-131.149 185.793ZM-88.2627 231.708L-47.7752 188.362V276.867L-89.4622 321.498L-130.8 277.25L-88.2627 231.708ZM-131.149 367.96V279.454L-90.6618 322.792L-48.124 368.333L-89.4622 412.591L-131.149 367.96ZM-88.2627 413.875L-47.7752 370.528V459.034L-89.4622 503.665L-130.8 459.417L-88.2627 413.875ZM-131.149 550.127V461.621L-90.6618 504.958L-48.124 550.5L-89.4622 594.757L-131.149 550.127ZM-88.2627 596.042L-47.7752 552.695V641.201L-89.4622 685.832L-130.8 641.583L-88.2627 596.042ZM-131.149 732.293V643.788L-90.6618 687.125L-48.124 732.667L-89.4622 776.924L-131.149 732.293ZM-88.2627 778.208L-47.7752 734.862V823.367L-89.4622 867.998L-130.8 823.75L-88.2627 778.208ZM-131.149 914.46V825.954L-90.6618 869.292L-48.124 914.833L-89.4622 959.091L-131.149 914.46ZM-130.8 1005.92L-88.2627 960.375L-47.7752 917.028V1005.53L-89.4622 1050.16L-130.8 1005.92ZM-46.9245 1095.72L-88.2627 1051.46L-46.9245 1007.2L-5.58627 1051.46L-46.9245 1095.72ZM-4.3867 1050.17L-46.0737 1005.54V917.038L-5.58627 960.384L36.9515 1005.93L-4.3867 1050.17ZM38.1511 1004.63L-3.18713 960.375L38.1511 916.118L79.4893 960.375L38.1511 1004.63ZM39.3506 1005.92L81.8884 960.375L122.376 917.028V1005.53L80.6888 1050.16L39.3506 1005.92ZM123.227 1095.72L81.8884 1051.46L123.227 1007.2L164.565 1051.46L123.227 1095.72ZM165.764 1050.17L124.077 1005.54V917.038L164.565 960.384L207.103 1005.93L165.764 1050.17ZM208.302 1004.63L166.964 960.375L208.302 916.118L249.64 960.375L208.302 1004.63ZM209.502 1005.92L252.039 960.375L292.527 917.028V1005.53L250.84 1050.16L209.502 1005.92ZM293.378 1095.72L252.039 1051.46L293.378 1007.2L334.716 1051.46L293.378 1095.72ZM335.915 1050.17L294.228 1005.54V917.038L334.716 960.384L377.254 1005.93L335.915 1050.17ZM378.453 1004.63L337.115 960.375L378.453 916.118L419.791 960.375L378.453 1004.63ZM379.653 1005.92L422.19 960.375L462.678 917.028V1005.53L420.991 1050.16L379.653 1005.92ZM463.529 1095.72L422.19 1051.46L463.529 1007.2L504.867 1051.46L463.529 1095.72ZM506.067 1050.17L464.38 1005.54V917.038L504.867 960.384L547.405 1005.93L506.067 1050.17ZM548.604 1004.63L507.266 960.375L548.604 916.118L589.943 960.375L548.604 1004.63ZM549.804 1005.92L592.342 960.375L632.829 917.028V1005.53L591.142 1050.16L549.804 1005.92ZM633.68 1095.72L592.342 1051.46L633.68 1007.2L675.018 1051.46L633.68 1095.72ZM676.218 1050.17L634.531 1005.54V917.038L675.018 960.384L717.556 1005.93L676.218 1050.17ZM718.755 1004.63L677.417 960.375L718.755 916.118L760.094 960.375L718.755 1004.63ZM719.955 1005.92L762.493 960.375L802.98 917.028V1005.53L761.293 1050.16L719.955 1005.92ZM803.831 1095.72L762.493 1051.46L803.831 1007.2L845.169 1051.46L803.831 1095.72ZM887.707 1005.92L846.369 1050.17L804.682 1005.54V917.038L845.169 960.384L887.707 1005.92ZM888.056 914.46L846.369 959.091L805.03 914.833L847.568 869.292L888.056 825.945V914.46ZM887.707 823.75L846.369 868.007L804.682 823.377V734.871L845.169 778.217L887.707 823.75ZM888.056 732.293L846.369 776.924L805.03 732.667L847.568 687.125L888.056 643.778V732.293ZM887.707 641.583L846.369 685.841L804.682 641.21V552.704L845.169 596.051L887.707 641.583ZM888.056 550.127L846.369 594.757L805.03 550.5L847.568 504.958L888.056 461.612V550.127ZM887.707 459.417L846.369 503.674L804.682 459.043V370.538L845.169 413.884L887.707 459.417ZM888.056 367.96L846.369 412.591L805.03 368.333L847.568 322.792L888.056 279.445V367.96ZM887.707 277.25L846.369 321.507L804.682 276.877V188.371L845.169 231.717L887.707 277.25ZM888.056 185.793L846.369 230.424L805.03 186.167L847.568 140.625L888.056 97.2785V185.793ZM887.707 95.0833L846.369 139.341L804.682 94.7099V6.19511L845.169 49.5417L887.707 95.0833Z" fill="#3A5691"/>
</g>
<g filter="url(#filter1_f)">
<path d="M990.097 11.3638H991.341L1034.22 55.323L1077.09 11.3638H1079.59L1122.46 55.323L1165.34 11.3638H1167.83L1210.7 55.323L1253.58 11.3638H1256.08L1298.94 55.323L1341.82 11.3638H1344.32L1387.19 55.323L1430.06 11.3638H1432.56L1475.43 55.323L1518.3 11.3638H1520.8L1563.67 55.323L1606.55 11.3638H1609.04L1651.91 55.323L1694.79 11.3638H1697.29L1740.15 55.323L1783.03 11.3638H1785.53L1828.4 55.323L1871.27 11.3638H1873.77L1916.64 55.323L1959.51 11.3638H1962.01L2004.88 55.323L2047.76 11.3638H2049V12.6394L2006.12 56.5986L2049 100.558V193.588L2006.12 237.538L2049 281.497V374.527L2006.12 418.477L2049 462.437V555.467L2006.12 599.417L2049 643.376V736.406L2006.12 780.356L2049 824.315V917.345L2006.12 961.295L2049 1005.25V1097H2047.76L2048.12 1096.63V1008.72L2006.12 1051.77L1962 1097H1959.51L1915.38 1051.77L1873.39 1008.71V1096.62L1873.75 1096.99H1871.25L1871.62 1096.62V1008.71L1829.62 1051.77L1785.5 1097H1783L1738.88 1051.77L1696.89 1008.71V1096.62L1697.25 1096.99H1694.75L1695.11 1096.62V1008.71L1653.12 1051.77L1609 1097H1606.5L1562.38 1051.77L1520.39 1008.71V1096.62L1520.75 1096.99H1518.25L1518.61 1096.62V1008.71L1476.62 1051.77L1432.5 1097H1430L1385.88 1051.77L1343.89 1008.71V1096.62L1344.25 1096.99H1341.75L1342.11 1096.62V1008.71L1300.12 1051.77L1256 1097H1253.5L1209.38 1051.77L1167.38 1008.71V1096.62L1167.75 1096.99H1165.25L1165.61 1096.62V1008.71L1123.62 1051.77L1079.49 1097H1077L1032.88 1051.77L990.882 1008.71V1096.62L991.244 1096.99H990V1005.25L1032.88 961.286L990 917.327V824.315L1032.97 780.356L990.097 736.397V643.376L1032.97 599.417L990.097 555.458V462.437L1032.97 418.477L990.097 374.518V281.497L1032.97 237.538L990.097 193.579V100.558L1032.97 56.5986L990.097 12.6394V11.3638ZM1122.46 779.081L1165.7 734.75V646.841L1123.7 689.896L1079.58 735.13L1122.46 779.081ZM1079.22 737.302V825.211L1122.46 869.541L1165.34 825.591L1121.22 780.356L1079.22 737.302ZM1959.51 735.121L1915.39 689.886L1873.4 646.832V734.741L1916.64 779.071L1959.51 735.121ZM1873.76 825.591L1916.64 869.55L1959.88 825.22V737.311L1917.88 780.356L1873.76 825.591ZM1253.58 554.182L1209.46 508.947L1167.46 465.893V553.802L1210.7 598.132L1253.58 554.182ZM1167.83 644.652L1210.7 688.611L1253.94 644.281V556.371L1211.95 599.417L1167.83 644.652ZM1167.46 372.872L1210.7 417.202L1253.58 373.243L1209.46 328.008L1167.46 284.953V372.872ZM1166.58 374.518L1123.7 418.477L1166.58 462.437L1209.46 418.477L1166.58 374.518ZM1211.95 418.477L1167.83 463.712L1210.7 507.671L1253.94 463.341V375.432L1211.95 418.477ZM1211.95 508.947L1254.82 552.906L1297.7 508.947L1254.82 464.988L1211.95 508.947ZM1297.7 599.417L1255.71 556.362V644.272L1298.94 688.602L1341.82 644.652L1297.7 599.417ZM1298.94 598.141L1342.18 553.811V465.902L1300.19 508.947L1256.07 554.182L1298.94 598.141ZM1255.71 463.341L1298.94 507.671L1341.82 463.712L1297.7 418.477L1255.71 375.423V463.341ZM1298.94 417.202L1342.18 372.872V284.962L1300.19 328.008L1256.07 373.243L1298.94 417.202ZM1300.19 418.477L1343.06 462.437L1385.94 418.477L1343.06 374.518L1300.19 418.477ZM1430.06 554.182L1385.94 508.947L1343.95 465.893V553.802L1387.19 598.132L1430.06 554.182ZM1344.31 644.652L1387.19 688.611L1430.42 644.281V556.371L1388.43 599.417L1344.31 644.652ZM1343.95 372.872L1387.19 417.202L1430.06 373.243L1385.94 328.008L1343.95 284.953V372.872ZM1388.43 418.477L1344.31 463.712L1387.19 507.671L1430.42 463.341V375.432L1388.43 418.477ZM1388.43 508.947L1431.31 552.906L1474.18 508.947L1431.31 464.988L1388.43 508.947ZM1474.18 599.417L1432.19 556.362V644.272L1475.43 688.602L1518.3 644.652L1474.18 599.417ZM1475.43 598.141L1518.67 553.811V465.902L1476.67 508.947L1432.55 554.182L1475.43 598.141ZM1432.19 463.341L1475.43 507.671L1518.3 463.712L1474.18 418.477L1432.19 375.423V463.341ZM1475.43 417.202L1518.67 372.872V284.962L1476.67 328.008L1432.55 373.243L1475.43 417.202ZM1476.67 418.477L1519.55 462.437L1562.43 418.477L1519.55 374.518L1476.67 418.477ZM1606.55 554.182L1562.43 508.947L1520.43 465.893V553.802L1563.67 598.132L1606.55 554.182ZM1520.79 644.652L1563.67 688.611L1606.91 644.281V556.371L1564.91 599.417L1520.79 644.652ZM1520.43 372.872L1563.67 417.202L1606.55 373.243L1562.43 328.008L1520.43 284.953V372.872ZM1564.91 418.477L1520.79 463.712L1563.67 507.671L1606.91 463.341V375.432L1564.91 418.477ZM1564.91 508.947L1607.79 552.906L1650.67 508.947L1607.79 464.988L1564.91 508.947ZM1650.67 599.417L1608.67 556.362V644.272L1651.91 688.602L1694.79 644.652L1650.67 599.417ZM1651.91 598.141L1695.15 553.811V465.902L1653.16 508.947L1609.03 554.182L1651.91 598.141ZM1608.67 463.341L1651.91 507.671L1694.79 463.712L1650.67 418.477L1608.67 375.423V463.341ZM1651.91 417.202L1695.15 372.872V284.962L1653.16 328.008L1609.03 373.243L1651.91 417.202ZM1653.16 418.477L1696.03 462.437L1738.91 418.477L1696.03 374.518L1653.16 418.477ZM1783.03 554.182L1738.91 508.947L1696.91 465.893V553.802L1740.15 598.132L1783.03 554.182ZM1697.28 644.652L1740.15 688.611L1783.39 644.281V556.371L1741.4 599.417L1697.28 644.652ZM1696.91 372.872L1740.15 417.202L1783.03 373.243L1738.91 328.008L1696.91 284.953V372.872ZM1741.4 418.477L1697.28 463.712L1740.15 507.671L1783.39 463.341V375.432L1741.4 418.477ZM1741.4 508.947L1784.27 552.906L1827.15 508.947L1784.27 464.988L1741.4 508.947ZM1827.15 599.417L1785.16 556.362V644.272L1828.4 688.602L1871.27 644.652L1827.15 599.417ZM1828.4 598.141L1871.63 553.811V465.902L1829.64 508.947L1785.52 554.182L1828.4 598.141ZM1785.16 463.341L1828.4 507.671L1871.27 463.712L1827.15 418.477L1785.16 375.423V463.341ZM1828.4 417.202L1871.63 372.872V284.962L1829.64 328.008L1785.52 373.243L1828.4 417.202ZM1829.64 418.477L1872.52 462.437L1915.39 418.477L1872.52 374.518L1829.64 418.477ZM1873.4 372.872L1916.64 417.202L1959.51 373.243L1915.39 328.008L1873.4 284.953V372.872ZM1917.88 418.477L1873.76 463.712L1916.64 507.671L1959.88 463.341V375.432L1917.88 418.477ZM1915.39 508.947L1873.4 465.893V553.802L1916.64 598.132L1959.51 554.182L1915.39 508.947ZM1917.88 599.417L1873.76 644.652L1916.64 688.611L1959.88 644.281V556.371L1917.88 599.417ZM1915.39 599.417L1872.52 555.458L1829.64 599.417L1872.52 643.376L1915.39 599.417ZM1871.63 646.832L1829.64 689.886L1785.52 735.121L1828.4 779.081L1871.63 734.75V646.832ZM1827.15 780.356L1785.16 737.302V825.211L1828.4 869.541L1871.27 825.591L1827.15 780.356ZM1827.15 689.886L1784.27 645.927L1741.4 689.886L1784.27 733.846L1827.15 689.886ZM1783.39 737.302L1741.4 780.356L1697.28 825.591L1740.15 869.55L1783.39 825.22V737.302ZM1783.03 735.121L1738.91 689.886L1696.91 646.832V734.741L1740.15 779.071L1783.03 735.121ZM1738.91 599.417L1696.03 555.458L1653.16 599.417L1696.03 643.376L1738.91 599.417ZM1695.15 646.832L1653.16 689.886L1609.03 735.121L1651.91 779.081L1695.15 734.75V646.832ZM1650.67 780.356L1608.67 737.302V825.211L1651.91 869.541L1694.79 825.591L1650.67 780.356ZM1650.67 689.886L1607.79 645.927L1564.91 689.886L1607.79 733.846L1650.67 689.886ZM1606.91 737.302L1564.91 780.356L1520.79 825.591L1563.67 869.55L1606.91 825.22V737.302ZM1606.55 735.121L1562.43 689.886L1520.43 646.832V734.741L1563.67 779.071L1606.55 735.121ZM1562.43 599.417L1519.55 555.458L1476.67 599.417L1519.55 643.376L1562.43 599.417ZM1518.67 646.832L1476.67 689.886L1432.55 735.121L1475.43 779.081L1518.67 734.75V646.832ZM1474.18 780.356L1432.19 737.302V825.211L1475.43 869.541L1518.3 825.591L1474.18 780.356ZM1474.18 689.886L1431.31 645.927L1388.43 689.886L1431.31 733.846L1474.18 689.886ZM1430.42 737.302L1388.43 780.356L1344.31 825.591L1387.19 869.55L1430.42 825.22V737.302ZM1430.06 735.121L1385.94 689.886L1343.95 646.832V734.741L1387.19 779.071L1430.06 735.121ZM1385.94 599.417L1343.06 555.458L1300.19 599.417L1343.06 643.376L1385.94 599.417ZM1342.18 646.832L1300.19 689.886L1256.07 735.121L1298.94 779.081L1342.18 734.75V646.832ZM1297.7 780.356L1255.71 737.302V825.211L1298.94 869.541L1341.82 825.591L1297.7 780.356ZM1297.7 689.886L1254.82 645.927L1211.95 689.886L1254.82 733.846L1297.7 689.886ZM1253.94 737.302L1211.95 780.356L1167.83 825.591L1210.7 869.55L1253.94 825.22V737.302ZM1253.58 735.121L1209.46 689.886L1167.46 646.832V734.741L1210.7 779.071L1253.58 735.121ZM1209.46 599.417L1166.58 555.458L1123.7 599.417L1166.58 643.376L1209.46 599.417ZM1165.34 644.652L1121.22 599.417L1079.22 556.362V644.272L1122.46 688.602L1165.34 644.652ZM1122.46 598.141L1165.7 553.811V465.902L1123.7 508.956L1079.58 554.191L1122.46 598.141ZM1165.34 463.712L1121.22 418.477L1079.22 375.423V463.332L1122.46 507.662L1165.34 463.712ZM1122.46 417.202L1165.7 372.872V284.962L1123.7 328.017L1079.58 373.252L1122.46 417.202ZM1165.34 282.773L1121.22 237.538L1079.22 194.483V282.393L1122.46 326.723L1165.34 282.773ZM1122.46 236.262L1165.7 191.932V104.023L1123.7 147.077L1079.58 192.312L1122.46 236.262ZM1123.7 237.538L1166.58 281.497L1209.46 237.538L1166.58 193.579L1123.7 237.538ZM1167.46 191.932L1210.7 236.262L1253.58 192.303L1209.46 147.068L1167.46 104.014V191.932ZM1211.95 237.538L1167.83 282.773L1210.7 326.732L1253.94 282.402V194.493L1211.95 237.538ZM1211.95 328.008L1254.82 371.967L1297.7 328.008L1254.82 284.048L1211.95 328.008ZM1255.71 282.402L1298.94 326.732L1341.82 282.773L1297.7 237.538L1255.71 194.483V282.402ZM1298.94 236.262L1342.18 191.932V104.023L1300.19 147.068L1256.07 192.303L1298.94 236.262ZM1300.19 237.538L1343.06 281.497L1385.94 237.538L1343.06 193.579L1300.19 237.538ZM1343.95 191.932L1387.19 236.262L1430.06 192.303L1385.94 147.068L1343.95 104.014V191.932ZM1388.43 237.538L1344.31 282.773L1387.19 326.732L1430.42 282.402V194.493L1388.43 237.538ZM1388.43 328.008L1431.31 371.967L1474.18 328.008L1431.31 284.048L1388.43 328.008ZM1432.19 282.402L1475.43 326.732L1518.3 282.773L1474.18 237.538L1432.19 194.483V282.402ZM1475.43 236.262L1518.67 191.932V104.023L1476.67 147.068L1432.55 192.303L1475.43 236.262ZM1476.67 237.538L1519.55 281.497L1562.43 237.538L1519.55 193.579L1476.67 237.538ZM1520.43 191.932L1563.67 236.262L1606.55 192.303L1562.43 147.068L1520.43 104.014V191.932ZM1564.91 237.538L1520.79 282.773L1563.67 326.732L1606.91 282.402V194.493L1564.91 237.538ZM1564.91 328.008L1607.79 371.967L1650.67 328.008L1607.79 284.048L1564.91 328.008ZM1608.67 282.402L1651.91 326.732L1694.79 282.773L1650.67 237.538L1608.67 194.483V282.402ZM1651.91 236.262L1695.15 191.932V104.023L1653.16 147.068L1609.03 192.303L1651.91 236.262ZM1653.16 237.538L1696.03 281.497L1738.91 237.538L1696.03 193.579L1653.16 237.538ZM1696.91 191.932L1740.15 236.262L1783.03 192.303L1738.91 147.068L1696.91 104.014V191.932ZM1741.4 237.538L1697.28 282.773L1740.15 326.732L1783.39 282.402V194.493L1741.4 237.538ZM1741.4 328.008L1784.27 371.967L1827.15 328.008L1784.27 284.048L1741.4 328.008ZM1785.16 282.402L1828.4 326.732L1871.27 282.773L1827.15 237.538L1785.16 194.483V282.402ZM1828.4 236.262L1871.63 191.932V104.023L1829.64 147.068L1785.52 192.303L1828.4 236.262ZM1829.64 237.538L1872.52 281.497L1915.39 237.538L1872.52 193.579L1829.64 237.538ZM1873.4 191.932L1916.64 236.262L1959.51 192.303L1915.39 147.068L1873.4 104.014V191.932ZM1917.88 237.538L1873.76 282.773L1916.64 326.732L1959.88 282.402V194.493L1917.88 237.538ZM1917.88 328.008L1960.76 371.967L2003.63 328.008L1960.76 284.048L1917.88 328.008ZM1917.88 508.947L1960.76 552.906L2003.63 508.947L1960.76 464.988L1917.88 508.947ZM1917.88 689.886L1960.76 733.846L2003.63 689.886L1960.76 645.927L1917.88 689.886ZM1917.88 870.826L1960.76 914.785L2003.63 870.826L1960.76 826.867L1917.88 870.826ZM1915.39 870.826L1873.4 827.771V915.681L1916.64 960.011L1959.51 916.061L1915.39 870.826ZM1915.39 780.356L1872.52 736.397L1829.64 780.356L1872.52 824.315L1915.39 780.356ZM1871.63 827.771L1829.64 870.826L1785.52 916.061L1828.4 960.02L1871.63 915.69V827.771ZM1827.15 870.826L1784.27 826.867L1741.4 870.826L1784.27 914.785L1827.15 870.826ZM1738.91 870.826L1696.91 827.771V915.681L1740.15 960.011L1783.03 916.061L1738.91 870.826ZM1738.91 780.356L1696.03 736.397L1653.16 780.356L1696.03 824.315L1738.91 780.356ZM1695.15 827.771L1653.16 870.826L1609.03 916.061L1651.91 960.02L1695.15 915.69V827.771ZM1650.67 870.826L1607.79 826.867L1564.91 870.826L1607.79 914.785L1650.67 870.826ZM1562.43 870.826L1520.43 827.771V915.681L1563.67 960.011L1606.55 916.061L1562.43 870.826ZM1562.43 780.356L1519.55 736.397L1476.67 780.356L1519.55 824.315L1562.43 780.356ZM1518.67 827.771L1476.67 870.826L1432.55 916.061L1475.43 960.02L1518.67 915.69V827.771ZM1474.18 870.826L1431.31 826.867L1388.43 870.826L1431.31 914.785L1474.18 870.826ZM1385.94 870.826L1343.95 827.771V915.681L1387.19 960.011L1430.06 916.061L1385.94 870.826ZM1385.94 780.356L1343.06 736.397L1300.19 780.356L1343.06 824.315L1385.94 780.356ZM1342.18 827.771L1300.19 870.826L1256.07 916.061L1298.94 960.02L1342.18 915.69V827.771ZM1297.7 870.826L1254.82 826.867L1211.95 870.826L1254.82 914.785L1297.7 870.826ZM1209.46 870.826L1167.46 827.771V915.681L1210.7 960.011L1253.58 916.061L1209.46 870.826ZM1209.46 780.356L1166.58 736.397L1123.7 780.356L1166.58 824.315L1209.46 780.356ZM1165.7 827.771L1123.7 870.826L1079.58 916.061L1122.46 960.02L1165.7 915.69V827.771ZM1121.22 870.826L1078.34 826.867L1035.46 870.826L1078.34 914.785L1121.22 870.826ZM1121.22 689.886L1078.34 645.927L1035.46 689.886L1078.34 733.846L1121.22 689.886ZM1121.22 508.947L1078.34 464.988L1035.46 508.947L1078.34 552.906L1121.22 508.947ZM1121.22 328.008L1078.34 284.048L1035.46 328.008L1078.34 371.967L1121.22 328.008ZM1121.22 147.068L1078.34 103.109L1035.46 147.068L1078.34 191.028L1121.22 147.068ZM1121.22 56.5986L1079.22 13.5441V101.453L1122.46 145.784L1165.34 101.833L1121.22 56.5986ZM1166.58 12.6394L1123.7 56.5986L1166.58 100.558L1209.46 56.5986L1166.58 12.6394ZM1253.94 13.5441L1211.95 56.5986L1167.83 101.833L1210.7 145.793L1253.94 101.463V13.5441ZM1211.95 147.068L1254.82 191.028L1297.7 147.068L1254.82 103.109L1211.95 147.068ZM1297.7 56.5986L1255.71 13.5441V101.453L1298.94 145.784L1341.82 101.833L1297.7 56.5986ZM1343.06 12.6394L1300.19 56.5986L1343.06 100.558L1385.94 56.5986L1343.06 12.6394ZM1430.42 13.5441L1388.43 56.5986L1344.31 101.833L1387.19 145.793L1430.42 101.463V13.5441ZM1388.43 147.068L1431.31 191.028L1474.18 147.068L1431.31 103.109L1388.43 147.068ZM1474.18 56.5986L1432.19 13.5441V101.453L1475.43 145.784L1518.3 101.833L1474.18 56.5986ZM1519.55 12.6394L1476.67 56.5986L1519.55 100.558L1562.43 56.5986L1519.55 12.6394ZM1606.91 13.5441L1564.91 56.5986L1520.79 101.833L1563.67 145.793L1606.91 101.463V13.5441ZM1564.91 147.068L1607.79 191.028L1650.67 147.068L1607.79 103.109L1564.91 147.068ZM1650.67 56.5986L1608.67 13.5441V101.453L1651.91 145.784L1694.79 101.833L1650.67 56.5986ZM1696.03 12.6394L1653.16 56.5986L1696.03 100.558L1738.91 56.5986L1696.03 12.6394ZM1783.39 13.5441L1741.4 56.5986L1697.28 101.833L1740.15 145.793L1783.39 101.463V13.5441ZM1741.4 147.068L1784.27 191.028L1827.15 147.068L1784.27 103.109L1741.4 147.068ZM1827.15 56.5986L1785.16 13.5441V101.453L1828.4 145.784L1871.27 101.833L1827.15 56.5986ZM1872.52 12.6394L1829.64 56.5986L1872.52 100.558L1915.39 56.5986L1872.52 12.6394ZM1959.88 13.5441L1917.88 56.5986L1873.76 101.833L1916.64 145.793L1959.88 101.463V13.5441ZM1917.88 147.068L1960.76 191.028L2003.63 147.068L1960.76 103.109L1917.88 147.068ZM2003.63 56.5986L1961.64 13.5441V101.453L2004.88 145.784L2047.76 101.833L2003.63 56.5986ZM2048.12 191.932V104.023L2006.12 147.068L1962 192.303L2004.88 236.262L2048.12 191.932ZM2003.63 237.538L1961.64 194.483V282.393L2004.88 326.723L2047.76 282.773L2003.63 237.538ZM2048.12 372.872V284.962L2006.12 328.008L1962 373.243L2004.88 417.202L2048.12 372.872ZM2003.63 418.477L1961.64 375.423V463.332L2004.88 507.662L2047.76 463.712L2003.63 418.477ZM2048.12 553.811V465.902L2006.12 508.947L1962 554.182L2004.88 598.141L2048.12 553.811ZM2003.63 599.417L1961.64 556.362V644.272L2004.88 688.602L2047.76 644.652L2003.63 599.417ZM2048.12 734.75V646.841L2006.12 689.886L1962 735.121L2004.88 779.081L2048.12 734.75ZM2003.63 780.356L1961.64 737.302V825.211L2004.88 869.541L2047.76 825.591L2003.63 780.356ZM2048.12 915.69V827.78L2006.12 870.826L1962 916.061L2004.88 960.02L2048.12 915.69ZM2047.76 1006.53L2003.63 961.295L1961.64 918.241V1006.15L2004.88 1050.48L2047.76 1006.53ZM1960.76 1095.72L2003.63 1051.77L1960.76 1007.81L1917.88 1051.77L1960.76 1095.72ZM1916.64 1050.49L1959.88 1006.16V918.25L1917.88 961.305L1873.76 1006.54L1916.64 1050.49ZM1872.52 1005.25L1915.39 961.295L1872.52 917.336L1829.64 961.295L1872.52 1005.25ZM1871.27 1006.53L1827.15 961.295L1785.16 918.241V1006.15L1828.4 1050.48L1871.27 1006.53ZM1784.27 1095.72L1827.15 1051.77L1784.27 1007.81L1741.4 1051.77L1784.27 1095.72ZM1740.15 1050.49L1783.39 1006.16V918.25L1741.4 961.305L1697.28 1006.54L1740.15 1050.49ZM1696.03 1005.25L1738.91 961.295L1696.03 917.336L1653.16 961.295L1696.03 1005.25ZM1694.79 1006.53L1650.67 961.295L1608.67 918.241V1006.15L1651.91 1050.48L1694.79 1006.53ZM1607.79 1095.72L1650.67 1051.77L1607.79 1007.81L1564.91 1051.77L1607.79 1095.72ZM1563.67 1050.49L1606.91 1006.16V918.25L1564.91 961.305L1520.79 1006.54L1563.67 1050.49ZM1519.55 1005.25L1562.43 961.295L1519.55 917.336L1476.67 961.295L1519.55 1005.25ZM1518.3 1006.53L1474.18 961.295L1432.19 918.241V1006.15L1475.43 1050.48L1518.3 1006.53ZM1431.31 1095.72L1474.18 1051.77L1431.31 1007.81L1388.43 1051.77L1431.31 1095.72ZM1387.19 1050.49L1430.42 1006.16V918.25L1388.43 961.305L1344.31 1006.54L1387.19 1050.49ZM1343.06 1005.25L1385.94 961.295L1343.06 917.336L1300.19 961.295L1343.06 1005.25ZM1341.82 1006.53L1297.7 961.295L1255.71 918.241V1006.15L1298.94 1050.48L1341.82 1006.53ZM1254.82 1095.72L1297.7 1051.77L1254.82 1007.81L1211.95 1051.77L1254.82 1095.72ZM1210.7 1050.49L1253.94 1006.16V918.25L1211.95 961.305L1167.83 1006.54L1210.7 1050.49ZM1166.58 1005.25L1209.46 961.295L1166.58 917.336L1123.7 961.295L1166.58 1005.25ZM1165.34 1006.53L1121.22 961.295L1079.22 918.241V1006.15L1122.46 1050.48L1165.34 1006.53ZM1078.34 1095.72L1121.22 1051.77L1078.34 1007.81L1035.46 1051.77L1078.34 1095.72ZM991.341 1006.53L1034.22 1050.49L1077.46 1006.16V918.25L1035.46 961.305L991.341 1006.53ZM990.979 915.69L1034.22 960.02L1077.09 916.061L1032.97 870.826L990.979 827.771V915.69ZM991.341 825.591L1034.22 869.55L1077.46 825.22V737.311L1035.46 780.365L991.341 825.591ZM990.979 734.75L1034.22 779.081L1077.09 735.121L1032.97 689.886L990.979 646.832V734.75ZM991.341 644.652L1034.22 688.611L1077.46 644.281V556.371L1035.46 599.426L991.341 644.652ZM990.979 553.811L1034.22 598.141L1077.09 554.182L1032.97 508.947L990.979 465.893V553.811ZM991.341 463.712L1034.22 507.671L1077.46 463.341V375.432L1035.46 418.486L991.341 463.712ZM990.979 372.872L1034.22 417.202L1077.09 373.243L1032.97 328.008L990.979 284.953V372.872ZM991.341 282.773L1034.22 326.732L1077.46 282.402V194.493L1035.46 237.547L991.341 282.773ZM990.979 191.932L1034.22 236.262L1077.09 192.303L1032.97 147.068L990.979 104.014V191.932ZM991.341 101.833L1034.22 145.793L1077.46 101.463V13.5441L1035.46 56.5986L991.341 101.833Z" fill="url(#paint2_linear)"/>
<path d="M990.097 11.3638H991.341L1034.22 55.323L1077.09 11.3638H1079.59L1122.46 55.323L1165.34 11.3638H1167.83L1210.7 55.323L1253.58 11.3638H1256.08L1298.94 55.323L1341.82 11.3638H1344.32L1387.19 55.323L1430.06 11.3638H1432.56L1475.43 55.323L1518.3 11.3638H1520.8L1563.67 55.323L1606.55 11.3638H1609.04L1651.91 55.323L1694.79 11.3638H1697.29L1740.15 55.323L1783.03 11.3638H1785.53L1828.4 55.323L1871.27 11.3638H1873.77L1916.64 55.323L1959.51 11.3638H1962.01L2004.88 55.323L2047.76 11.3638H2049V12.6394L2006.12 56.5986L2049 100.558V193.588L2006.12 237.538L2049 281.497V374.527L2006.12 418.477L2049 462.437V555.467L2006.12 599.417L2049 643.376V736.406L2006.12 780.356L2049 824.315V917.345L2006.12 961.295L2049 1005.25V1097H2047.76L2048.12 1096.63V1008.72L2006.12 1051.77L1962 1097H1959.51L1915.38 1051.77L1873.39 1008.71V1096.62L1873.75 1096.99H1871.25L1871.62 1096.62V1008.71L1829.62 1051.77L1785.5 1097H1783L1738.88 1051.77L1696.89 1008.71V1096.62L1697.25 1096.99H1694.75L1695.11 1096.62V1008.71L1653.12 1051.77L1609 1097H1606.5L1562.38 1051.77L1520.39 1008.71V1096.62L1520.75 1096.99H1518.25L1518.61 1096.62V1008.71L1476.62 1051.77L1432.5 1097H1430L1385.88 1051.77L1343.89 1008.71V1096.62L1344.25 1096.99H1341.75L1342.11 1096.62V1008.71L1300.12 1051.77L1256 1097H1253.5L1209.38 1051.77L1167.38 1008.71V1096.62L1167.75 1096.99H1165.25L1165.61 1096.62V1008.71L1123.62 1051.77L1079.49 1097H1077L1032.88 1051.77L990.882 1008.71V1096.62L991.244 1096.99H990V1005.25L1032.88 961.286L990 917.327V824.315L1032.97 780.356L990.097 736.397V643.376L1032.97 599.417L990.097 555.458V462.437L1032.97 418.477L990.097 374.518V281.497L1032.97 237.538L990.097 193.579V100.558L1032.97 56.5986L990.097 12.6394V11.3638ZM1122.46 779.081L1165.7 734.75V646.841L1123.7 689.896L1079.58 735.13L1122.46 779.081ZM1079.22 737.302V825.211L1122.46 869.541L1165.34 825.591L1121.22 780.356L1079.22 737.302ZM1959.51 735.121L1915.39 689.886L1873.4 646.832V734.741L1916.64 779.071L1959.51 735.121ZM1873.76 825.591L1916.64 869.55L1959.88 825.22V737.311L1917.88 780.356L1873.76 825.591ZM1253.58 554.182L1209.46 508.947L1167.46 465.893V553.802L1210.7 598.132L1253.58 554.182ZM1167.83 644.652L1210.7 688.611L1253.94 644.281V556.371L1211.95 599.417L1167.83 644.652ZM1167.46 372.872L1210.7 417.202L1253.58 373.243L1209.46 328.008L1167.46 284.953V372.872ZM1166.58 374.518L1123.7 418.477L1166.58 462.437L1209.46 418.477L1166.58 374.518ZM1211.95 418.477L1167.83 463.712L1210.7 507.671L1253.94 463.341V375.432L1211.95 418.477ZM1211.95 508.947L1254.82 552.906L1297.7 508.947L1254.82 464.988L1211.95 508.947ZM1297.7 599.417L1255.71 556.362V644.272L1298.94 688.602L1341.82 644.652L1297.7 599.417ZM1298.94 598.141L1342.18 553.811V465.902L1300.19 508.947L1256.07 554.182L1298.94 598.141ZM1255.71 463.341L1298.94 507.671L1341.82 463.712L1297.7 418.477L1255.71 375.423V463.341ZM1298.94 417.202L1342.18 372.872V284.962L1300.19 328.008L1256.07 373.243L1298.94 417.202ZM1300.19 418.477L1343.06 462.437L1385.94 418.477L1343.06 374.518L1300.19 418.477ZM1430.06 554.182L1385.94 508.947L1343.95 465.893V553.802L1387.19 598.132L1430.06 554.182ZM1344.31 644.652L1387.19 688.611L1430.42 644.281V556.371L1388.43 599.417L1344.31 644.652ZM1343.95 372.872L1387.19 417.202L1430.06 373.243L1385.94 328.008L1343.95 284.953V372.872ZM1388.43 418.477L1344.31 463.712L1387.19 507.671L1430.42 463.341V375.432L1388.43 418.477ZM1388.43 508.947L1431.31 552.906L1474.18 508.947L1431.31 464.988L1388.43 508.947ZM1474.18 599.417L1432.19 556.362V644.272L1475.43 688.602L1518.3 644.652L1474.18 599.417ZM1475.43 598.141L1518.67 553.811V465.902L1476.67 508.947L1432.55 554.182L1475.43 598.141ZM1432.19 463.341L1475.43 507.671L1518.3 463.712L1474.18 418.477L1432.19 375.423V463.341ZM1475.43 417.202L1518.67 372.872V284.962L1476.67 328.008L1432.55 373.243L1475.43 417.202ZM1476.67 418.477L1519.55 462.437L1562.43 418.477L1519.55 374.518L1476.67 418.477ZM1606.55 554.182L1562.43 508.947L1520.43 465.893V553.802L1563.67 598.132L1606.55 554.182ZM1520.79 644.652L1563.67 688.611L1606.91 644.281V556.371L1564.91 599.417L1520.79 644.652ZM1520.43 372.872L1563.67 417.202L1606.55 373.243L1562.43 328.008L1520.43 284.953V372.872ZM1564.91 418.477L1520.79 463.712L1563.67 507.671L1606.91 463.341V375.432L1564.91 418.477ZM1564.91 508.947L1607.79 552.906L1650.67 508.947L1607.79 464.988L1564.91 508.947ZM1650.67 599.417L1608.67 556.362V644.272L1651.91 688.602L1694.79 644.652L1650.67 599.417ZM1651.91 598.141L1695.15 553.811V465.902L1653.16 508.947L1609.03 554.182L1651.91 598.141ZM1608.67 463.341L1651.91 507.671L1694.79 463.712L1650.67 418.477L1608.67 375.423V463.341ZM1651.91 417.202L1695.15 372.872V284.962L1653.16 328.008L1609.03 373.243L1651.91 417.202ZM1653.16 418.477L1696.03 462.437L1738.91 418.477L1696.03 374.518L1653.16 418.477ZM1783.03 554.182L1738.91 508.947L1696.91 465.893V553.802L1740.15 598.132L1783.03 554.182ZM1697.28 644.652L1740.15 688.611L1783.39 644.281V556.371L1741.4 599.417L1697.28 644.652ZM1696.91 372.872L1740.15 417.202L1783.03 373.243L1738.91 328.008L1696.91 284.953V372.872ZM1741.4 418.477L1697.28 463.712L1740.15 507.671L1783.39 463.341V375.432L1741.4 418.477ZM1741.4 508.947L1784.27 552.906L1827.15 508.947L1784.27 464.988L1741.4 508.947ZM1827.15 599.417L1785.16 556.362V644.272L1828.4 688.602L1871.27 644.652L1827.15 599.417ZM1828.4 598.141L1871.63 553.811V465.902L1829.64 508.947L1785.52 554.182L1828.4 598.141ZM1785.16 463.341L1828.4 507.671L1871.27 463.712L1827.15 418.477L1785.16 375.423V463.341ZM1828.4 417.202L1871.63 372.872V284.962L1829.64 328.008L1785.52 373.243L1828.4 417.202ZM1829.64 418.477L1872.52 462.437L1915.39 418.477L1872.52 374.518L1829.64 418.477ZM1873.4 372.872L1916.64 417.202L1959.51 373.243L1915.39 328.008L1873.4 284.953V372.872ZM1917.88 418.477L1873.76 463.712L1916.64 507.671L1959.88 463.341V375.432L1917.88 418.477ZM1915.39 508.947L1873.4 465.893V553.802L1916.64 598.132L1959.51 554.182L1915.39 508.947ZM1917.88 599.417L1873.76 644.652L1916.64 688.611L1959.88 644.281V556.371L1917.88 599.417ZM1915.39 599.417L1872.52 555.458L1829.64 599.417L1872.52 643.376L1915.39 599.417ZM1871.63 646.832L1829.64 689.886L1785.52 735.121L1828.4 779.081L1871.63 734.75V646.832ZM1827.15 780.356L1785.16 737.302V825.211L1828.4 869.541L1871.27 825.591L1827.15 780.356ZM1827.15 689.886L1784.27 645.927L1741.4 689.886L1784.27 733.846L1827.15 689.886ZM1783.39 737.302L1741.4 780.356L1697.28 825.591L1740.15 869.55L1783.39 825.22V737.302ZM1783.03 735.121L1738.91 689.886L1696.91 646.832V734.741L1740.15 779.071L1783.03 735.121ZM1738.91 599.417L1696.03 555.458L1653.16 599.417L1696.03 643.376L1738.91 599.417ZM1695.15 646.832L1653.16 689.886L1609.03 735.121L1651.91 779.081L1695.15 734.75V646.832ZM1650.67 780.356L1608.67 737.302V825.211L1651.91 869.541L1694.79 825.591L1650.67 780.356ZM1650.67 689.886L1607.79 645.927L1564.91 689.886L1607.79 733.846L1650.67 689.886ZM1606.91 737.302L1564.91 780.356L1520.79 825.591L1563.67 869.55L1606.91 825.22V737.302ZM1606.55 735.121L1562.43 689.886L1520.43 646.832V734.741L1563.67 779.071L1606.55 735.121ZM1562.43 599.417L1519.55 555.458L1476.67 599.417L1519.55 643.376L1562.43 599.417ZM1518.67 646.832L1476.67 689.886L1432.55 735.121L1475.43 779.081L1518.67 734.75V646.832ZM1474.18 780.356L1432.19 737.302V825.211L1475.43 869.541L1518.3 825.591L1474.18 780.356ZM1474.18 689.886L1431.31 645.927L1388.43 689.886L1431.31 733.846L1474.18 689.886ZM1430.42 737.302L1388.43 780.356L1344.31 825.591L1387.19 869.55L1430.42 825.22V737.302ZM1430.06 735.121L1385.94 689.886L1343.95 646.832V734.741L1387.19 779.071L1430.06 735.121ZM1385.94 599.417L1343.06 555.458L1300.19 599.417L1343.06 643.376L1385.94 599.417ZM1342.18 646.832L1300.19 689.886L1256.07 735.121L1298.94 779.081L1342.18 734.75V646.832ZM1297.7 780.356L1255.71 737.302V825.211L1298.94 869.541L1341.82 825.591L1297.7 780.356ZM1297.7 689.886L1254.82 645.927L1211.95 689.886L1254.82 733.846L1297.7 689.886ZM1253.94 737.302L1211.95 780.356L1167.83 825.591L1210.7 869.55L1253.94 825.22V737.302ZM1253.58 735.121L1209.46 689.886L1167.46 646.832V734.741L1210.7 779.071L1253.58 735.121ZM1209.46 599.417L1166.58 555.458L1123.7 599.417L1166.58 643.376L1209.46 599.417ZM1165.34 644.652L1121.22 599.417L1079.22 556.362V644.272L1122.46 688.602L1165.34 644.652ZM1122.46 598.141L1165.7 553.811V465.902L1123.7 508.956L1079.58 554.191L1122.46 598.141ZM1165.34 463.712L1121.22 418.477L1079.22 375.423V463.332L1122.46 507.662L1165.34 463.712ZM1122.46 417.202L1165.7 372.872V284.962L1123.7 328.017L1079.58 373.252L1122.46 417.202ZM1165.34 282.773L1121.22 237.538L1079.22 194.483V282.393L1122.46 326.723L1165.34 282.773ZM1122.46 236.262L1165.7 191.932V104.023L1123.7 147.077L1079.58 192.312L1122.46 236.262ZM1123.7 237.538L1166.58 281.497L1209.46 237.538L1166.58 193.579L1123.7 237.538ZM1167.46 191.932L1210.7 236.262L1253.58 192.303L1209.46 147.068L1167.46 104.014V191.932ZM1211.95 237.538L1167.83 282.773L1210.7 326.732L1253.94 282.402V194.493L1211.95 237.538ZM1211.95 328.008L1254.82 371.967L1297.7 328.008L1254.82 284.048L1211.95 328.008ZM1255.71 282.402L1298.94 326.732L1341.82 282.773L1297.7 237.538L1255.71 194.483V282.402ZM1298.94 236.262L1342.18 191.932V104.023L1300.19 147.068L1256.07 192.303L1298.94 236.262ZM1300.19 237.538L1343.06 281.497L1385.94 237.538L1343.06 193.579L1300.19 237.538ZM1343.95 191.932L1387.19 236.262L1430.06 192.303L1385.94 147.068L1343.95 104.014V191.932ZM1388.43 237.538L1344.31 282.773L1387.19 326.732L1430.42 282.402V194.493L1388.43 237.538ZM1388.43 328.008L1431.31 371.967L1474.18 328.008L1431.31 284.048L1388.43 328.008ZM1432.19 282.402L1475.43 326.732L1518.3 282.773L1474.18 237.538L1432.19 194.483V282.402ZM1475.43 236.262L1518.67 191.932V104.023L1476.67 147.068L1432.55 192.303L1475.43 236.262ZM1476.67 237.538L1519.55 281.497L1562.43 237.538L1519.55 193.579L1476.67 237.538ZM1520.43 191.932L1563.67 236.262L1606.55 192.303L1562.43 147.068L1520.43 104.014V191.932ZM1564.91 237.538L1520.79 282.773L1563.67 326.732L1606.91 282.402V194.493L1564.91 237.538ZM1564.91 328.008L1607.79 371.967L1650.67 328.008L1607.79 284.048L1564.91 328.008ZM1608.67 282.402L1651.91 326.732L1694.79 282.773L1650.67 237.538L1608.67 194.483V282.402ZM1651.91 236.262L1695.15 191.932V104.023L1653.16 147.068L1609.03 192.303L1651.91 236.262ZM1653.16 237.538L1696.03 281.497L1738.91 237.538L1696.03 193.579L1653.16 237.538ZM1696.91 191.932L1740.15 236.262L1783.03 192.303L1738.91 147.068L1696.91 104.014V191.932ZM1741.4 237.538L1697.28 282.773L1740.15 326.732L1783.39 282.402V194.493L1741.4 237.538ZM1741.4 328.008L1784.27 371.967L1827.15 328.008L1784.27 284.048L1741.4 328.008ZM1785.16 282.402L1828.4 326.732L1871.27 282.773L1827.15 237.538L1785.16 194.483V282.402ZM1828.4 236.262L1871.63 191.932V104.023L1829.64 147.068L1785.52 192.303L1828.4 236.262ZM1829.64 237.538L1872.52 281.497L1915.39 237.538L1872.52 193.579L1829.64 237.538ZM1873.4 191.932L1916.64 236.262L1959.51 192.303L1915.39 147.068L1873.4 104.014V191.932ZM1917.88 237.538L1873.76 282.773L1916.64 326.732L1959.88 282.402V194.493L1917.88 237.538ZM1917.88 328.008L1960.76 371.967L2003.63 328.008L1960.76 284.048L1917.88 328.008ZM1917.88 508.947L1960.76 552.906L2003.63 508.947L1960.76 464.988L1917.88 508.947ZM1917.88 689.886L1960.76 733.846L2003.63 689.886L1960.76 645.927L1917.88 689.886ZM1917.88 870.826L1960.76 914.785L2003.63 870.826L1960.76 826.867L1917.88 870.826ZM1915.39 870.826L1873.4 827.771V915.681L1916.64 960.011L1959.51 916.061L1915.39 870.826ZM1915.39 780.356L1872.52 736.397L1829.64 780.356L1872.52 824.315L1915.39 780.356ZM1871.63 827.771L1829.64 870.826L1785.52 916.061L1828.4 960.02L1871.63 915.69V827.771ZM1827.15 870.826L1784.27 826.867L1741.4 870.826L1784.27 914.785L1827.15 870.826ZM1738.91 870.826L1696.91 827.771V915.681L1740.15 960.011L1783.03 916.061L1738.91 870.826ZM1738.91 780.356L1696.03 736.397L1653.16 780.356L1696.03 824.315L1738.91 780.356ZM1695.15 827.771L1653.16 870.826L1609.03 916.061L1651.91 960.02L1695.15 915.69V827.771ZM1650.67 870.826L1607.79 826.867L1564.91 870.826L1607.79 914.785L1650.67 870.826ZM1562.43 870.826L1520.43 827.771V915.681L1563.67 960.011L1606.55 916.061L1562.43 870.826ZM1562.43 780.356L1519.55 736.397L1476.67 780.356L1519.55 824.315L1562.43 780.356ZM1518.67 827.771L1476.67 870.826L1432.55 916.061L1475.43 960.02L1518.67 915.69V827.771ZM1474.18 870.826L1431.31 826.867L1388.43 870.826L1431.31 914.785L1474.18 870.826ZM1385.94 870.826L1343.95 827.771V915.681L1387.19 960.011L1430.06 916.061L1385.94 870.826ZM1385.94 780.356L1343.06 736.397L1300.19 780.356L1343.06 824.315L1385.94 780.356ZM1342.18 827.771L1300.19 870.826L1256.07 916.061L1298.94 960.02L1342.18 915.69V827.771ZM1297.7 870.826L1254.82 826.867L1211.95 870.826L1254.82 914.785L1297.7 870.826ZM1209.46 870.826L1167.46 827.771V915.681L1210.7 960.011L1253.58 916.061L1209.46 870.826ZM1209.46 780.356L1166.58 736.397L1123.7 780.356L1166.58 824.315L1209.46 780.356ZM1165.7 827.771L1123.7 870.826L1079.58 916.061L1122.46 960.02L1165.7 915.69V827.771ZM1121.22 870.826L1078.34 826.867L1035.46 870.826L1078.34 914.785L1121.22 870.826ZM1121.22 689.886L1078.34 645.927L1035.46 689.886L1078.34 733.846L1121.22 689.886ZM1121.22 508.947L1078.34 464.988L1035.46 508.947L1078.34 552.906L1121.22 508.947ZM1121.22 328.008L1078.34 284.048L1035.46 328.008L1078.34 371.967L1121.22 328.008ZM1121.22 147.068L1078.34 103.109L1035.46 147.068L1078.34 191.028L1121.22 147.068ZM1121.22 56.5986L1079.22 13.5441V101.453L1122.46 145.784L1165.34 101.833L1121.22 56.5986ZM1166.58 12.6394L1123.7 56.5986L1166.58 100.558L1209.46 56.5986L1166.58 12.6394ZM1253.94 13.5441L1211.95 56.5986L1167.83 101.833L1210.7 145.793L1253.94 101.463V13.5441ZM1211.95 147.068L1254.82 191.028L1297.7 147.068L1254.82 103.109L1211.95 147.068ZM1297.7 56.5986L1255.71 13.5441V101.453L1298.94 145.784L1341.82 101.833L1297.7 56.5986ZM1343.06 12.6394L1300.19 56.5986L1343.06 100.558L1385.94 56.5986L1343.06 12.6394ZM1430.42 13.5441L1388.43 56.5986L1344.31 101.833L1387.19 145.793L1430.42 101.463V13.5441ZM1388.43 147.068L1431.31 191.028L1474.18 147.068L1431.31 103.109L1388.43 147.068ZM1474.18 56.5986L1432.19 13.5441V101.453L1475.43 145.784L1518.3 101.833L1474.18 56.5986ZM1519.55 12.6394L1476.67 56.5986L1519.55 100.558L1562.43 56.5986L1519.55 12.6394ZM1606.91 13.5441L1564.91 56.5986L1520.79 101.833L1563.67 145.793L1606.91 101.463V13.5441ZM1564.91 147.068L1607.79 191.028L1650.67 147.068L1607.79 103.109L1564.91 147.068ZM1650.67 56.5986L1608.67 13.5441V101.453L1651.91 145.784L1694.79 101.833L1650.67 56.5986ZM1696.03 12.6394L1653.16 56.5986L1696.03 100.558L1738.91 56.5986L1696.03 12.6394ZM1783.39 13.5441L1741.4 56.5986L1697.28 101.833L1740.15 145.793L1783.39 101.463V13.5441ZM1741.4 147.068L1784.27 191.028L1827.15 147.068L1784.27 103.109L1741.4 147.068ZM1827.15 56.5986L1785.16 13.5441V101.453L1828.4 145.784L1871.27 101.833L1827.15 56.5986ZM1872.52 12.6394L1829.64 56.5986L1872.52 100.558L1915.39 56.5986L1872.52 12.6394ZM1959.88 13.5441L1917.88 56.5986L1873.76 101.833L1916.64 145.793L1959.88 101.463V13.5441ZM1917.88 147.068L1960.76 191.028L2003.63 147.068L1960.76 103.109L1917.88 147.068ZM2003.63 56.5986L1961.64 13.5441V101.453L2004.88 145.784L2047.76 101.833L2003.63 56.5986ZM2048.12 191.932V104.023L2006.12 147.068L1962 192.303L2004.88 236.262L2048.12 191.932ZM2003.63 237.538L1961.64 194.483V282.393L2004.88 326.723L2047.76 282.773L2003.63 237.538ZM2048.12 372.872V284.962L2006.12 328.008L1962 373.243L2004.88 417.202L2048.12 372.872ZM2003.63 418.477L1961.64 375.423V463.332L2004.88 507.662L2047.76 463.712L2003.63 418.477ZM2048.12 553.811V465.902L2006.12 508.947L1962 554.182L2004.88 598.141L2048.12 553.811ZM2003.63 599.417L1961.64 556.362V644.272L2004.88 688.602L2047.76 644.652L2003.63 599.417ZM2048.12 734.75V646.841L2006.12 689.886L1962 735.121L2004.88 779.081L2048.12 734.75ZM2003.63 780.356L1961.64 737.302V825.211L2004.88 869.541L2047.76 825.591L2003.63 780.356ZM2048.12 915.69V827.78L2006.12 870.826L1962 916.061L2004.88 960.02L2048.12 915.69ZM2047.76 1006.53L2003.63 961.295L1961.64 918.241V1006.15L2004.88 1050.48L2047.76 1006.53ZM1960.76 1095.72L2003.63 1051.77L1960.76 1007.81L1917.88 1051.77L1960.76 1095.72ZM1916.64 1050.49L1959.88 1006.16V918.25L1917.88 961.305L1873.76 1006.54L1916.64 1050.49ZM1872.52 1005.25L1915.39 961.295L1872.52 917.336L1829.64 961.295L1872.52 1005.25ZM1871.27 1006.53L1827.15 961.295L1785.16 918.241V1006.15L1828.4 1050.48L1871.27 1006.53ZM1784.27 1095.72L1827.15 1051.77L1784.27 1007.81L1741.4 1051.77L1784.27 1095.72ZM1740.15 1050.49L1783.39 1006.16V918.25L1741.4 961.305L1697.28 1006.54L1740.15 1050.49ZM1696.03 1005.25L1738.91 961.295L1696.03 917.336L1653.16 961.295L1696.03 1005.25ZM1694.79 1006.53L1650.67 961.295L1608.67 918.241V1006.15L1651.91 1050.48L1694.79 1006.53ZM1607.79 1095.72L1650.67 1051.77L1607.79 1007.81L1564.91 1051.77L1607.79 1095.72ZM1563.67 1050.49L1606.91 1006.16V918.25L1564.91 961.305L1520.79 1006.54L1563.67 1050.49ZM1519.55 1005.25L1562.43 961.295L1519.55 917.336L1476.67 961.295L1519.55 1005.25ZM1518.3 1006.53L1474.18 961.295L1432.19 918.241V1006.15L1475.43 1050.48L1518.3 1006.53ZM1431.31 1095.72L1474.18 1051.77L1431.31 1007.81L1388.43 1051.77L1431.31 1095.72ZM1387.19 1050.49L1430.42 1006.16V918.25L1388.43 961.305L1344.31 1006.54L1387.19 1050.49ZM1343.06 1005.25L1385.94 961.295L1343.06 917.336L1300.19 961.295L1343.06 1005.25ZM1341.82 1006.53L1297.7 961.295L1255.71 918.241V1006.15L1298.94 1050.48L1341.82 1006.53ZM1254.82 1095.72L1297.7 1051.77L1254.82 1007.81L1211.95 1051.77L1254.82 1095.72ZM1210.7 1050.49L1253.94 1006.16V918.25L1211.95 961.305L1167.83 1006.54L1210.7 1050.49ZM1166.58 1005.25L1209.46 961.295L1166.58 917.336L1123.7 961.295L1166.58 1005.25ZM1165.34 1006.53L1121.22 961.295L1079.22 918.241V1006.15L1122.46 1050.48L1165.34 1006.53ZM1078.34 1095.72L1121.22 1051.77L1078.34 1007.81L1035.46 1051.77L1078.34 1095.72ZM991.341 1006.53L1034.22 1050.49L1077.46 1006.16V918.25L1035.46 961.305L991.341 1006.53ZM990.979 915.69L1034.22 960.02L1077.09 916.061L1032.97 870.826L990.979 827.771V915.69ZM991.341 825.591L1034.22 869.55L1077.46 825.22V737.311L1035.46 780.365L991.341 825.591ZM990.979 734.75L1034.22 779.081L1077.09 735.121L1032.97 689.886L990.979 646.832V734.75ZM991.341 644.652L1034.22 688.611L1077.46 644.281V556.371L1035.46 599.426L991.341 644.652ZM990.979 553.811L1034.22 598.141L1077.09 554.182L1032.97 508.947L990.979 465.893V553.811ZM991.341 463.712L1034.22 507.671L1077.46 463.341V375.432L1035.46 418.486L991.341 463.712ZM990.979 372.872L1034.22 417.202L1077.09 373.243L1032.97 328.008L990.979 284.953V372.872ZM991.341 282.773L1034.22 326.732L1077.46 282.402V194.493L1035.46 237.547L991.341 282.773ZM990.979 191.932L1034.22 236.262L1077.09 192.303L1032.97 147.068L990.979 104.014V191.932ZM991.341 101.833L1034.22 145.793L1077.46 101.463V13.5441L1035.46 56.5986L991.341 101.833Z" fill="#3A5691"/>
</g>
<g style="mix-blend-mode:multiply">
<rect x="-60" y="5.052" width="2072" height="1091.95" fill="url(#paint3_linear)"/>
<rect x="-60" y="5.052" width="2072" height="1091.95" fill="url(#paint4_linear)"/>
</g>
<defs>
<filter id="filter0_f" x="-136" y="0" width="1029" height="1101" filterUnits="userSpaceOnUse" color-interpolation-filters="sRGB">
<feFlood flood-opacity="0" result="BackgroundImageFix"/>
<feBlend mode="normal" in="SourceGraphic" in2="BackgroundImageFix" result="shape"/>
<feGaussianBlur stdDeviation="2" result="effect1_foregroundBlur"/>
</filter>
<filter id="filter1_f" x="986" y="7.36377" width="1067" height="1093.64" filterUnits="userSpaceOnUse" color-interpolation-filters="sRGB">
<feFlood flood-opacity="0" result="BackgroundImageFix"/>
<feBlend mode="normal" in="SourceGraphic" in2="BackgroundImageFix" result="shape"/>
<feGaussianBlur stdDeviation="2" result="effect1_foregroundBlur"/>
</filter>
<linearGradient id="paint0_linear" x1="29.8846" y1="1091.95" x2="2072" y2="1091.95" gradientUnits="userSpaceOnUse">
<stop stop-color="#253E97"/>
<stop offset="1" stop-color="#223063"/>
</linearGradient>
<linearGradient id="paint1_linear" x1="-132" y1="550.5" x2="888.906" y2="550.5" gradientUnits="userSpaceOnUse">
<stop stop-color="#BE965D"/>
<stop offset="0.2784" stop-color="#976F40"/>
<stop offset="0.4259" stop-color="#C99B61"/>
<stop offset="0.5584" stop-color="#F0BE7B"/>
<stop offset="0.6275" stop-color="#FFCB85"/>
<stop offset="0.7085" stop-color="#EEBC79"/>
<stop offset="0.8693" stop-color="#C0935B"/>
<stop offset="1" stop-color="#976F40"/>
</linearGradient>
<linearGradient id="paint2_linear" x1="2049" y1="554.182" x2="990.097" y2="554.182" gradientUnits="userSpaceOnUse">
<stop stop-color="#BE965D"/>
<stop offset="0.2784" stop-color="#976F40"/>
<stop offset="0.4259" stop-color="#C99B61"/>
<stop offset="0.5584" stop-color="#F0BE7B"/>
<stop offset="0.6275" stop-color="#FFCB85"/>
<stop offset="0.7085" stop-color="#EEBC79"/>
<stop offset="0.8693" stop-color="#C0935B"/>
<stop offset="1" stop-color="#976F40"/>
</linearGradient>
<linearGradient id="paint3_linear" x1="976" y1="5.052" x2="976" y2="1097" gradientUnits="userSpaceOnUse">
<stop stop-color="#293B61"/>
<stop offset="0.5" stop-color="#224693" stop-opacity="0"/>
<stop offset="1" stop-color="#3A5691"/>
</linearGradient>
<linearGradient id="paint4_linear" x1="-74.5688" y1="507.538" x2="2012" y2="507.538" gradientUnits="userSpaceOnUse">
<stop stop-color="#019CDD"/>
<stop offset="0.213146" stop-color="#019CDD" stop-opacity="0"/>
<stop offset="0.800204" stop-color="#019CDD" stop-opacity="0"/>
<stop offset="1" stop-color="#019CDD"/>
</linearGradient>
</defs>
</svg>
