<svg width="49" height="49" viewBox="0 0 49 49" fill="none" xmlns="http://www.w3.org/2000/svg" preserveAspectRatio="none">
<rect x="7" y="3" width="35" height="35" rx="6" fill="url(#paint0_radial)"/>
<rect x="7" y="3" width="35" height="35" rx="6" fill="url(#paint1_radial)"/>
<g filter="url(#filter0_d)">
<rect x="7" y="3" width="35" height="35" rx="6" fill="url(#paint2_radial)"/>
<rect x="5.5" y="1.5" width="38" height="38" rx="7.5" stroke="white" stroke-width="3"/>
</g>
<path d="M33.25 13.625C33.25 14.6605 32.4105 15.5 31.375 15.5C30.3395 15.5 29.5 14.6605 29.5 13.625C29.5 12.5895 30.3395 11.75 31.375 11.75C32.4105 11.75 33.25 12.5895 33.25 13.625Z" fill="white"/>
<path fill-rule="evenodd" clip-rule="evenodd" d="M24.5 26.75C27.9518 26.75 30.75 23.9518 30.75 20.5C30.75 17.0482 27.9518 14.25 24.5 14.25C21.0482 14.25 18.25 17.0482 18.25 20.5C18.25 23.9518 21.0482 26.75 24.5 26.75ZM24.5 24.25C26.5711 24.25 28.25 22.5711 28.25 20.5C28.25 18.4289 26.5711 16.75 24.5 16.75C22.4289 16.75 20.75 18.4289 20.75 20.5C20.75 22.5711 22.4289 24.25 24.5 24.25Z" fill="white"/>
<path fill-rule="evenodd" clip-rule="evenodd" d="M12 20C12 15.7996 12 13.6994 12.8175 12.0951C13.5365 10.6839 14.6839 9.5365 16.0951 8.81745C17.6994 8 19.7996 8 24 8H25C29.2004 8 31.3006 8 32.9049 8.81745C34.3161 9.5365 35.4635 10.6839 36.1825 12.0951C37 13.6994 37 15.7996 37 20V21C37 25.2004 37 27.3006 36.1825 28.9049C35.4635 30.3161 34.3161 31.4635 32.9049 32.1825C31.3006 33 29.2004 33 25 33H24C19.7996 33 17.6994 33 16.0951 32.1825C14.6839 31.4635 13.5365 30.3161 12.8175 28.9049C12 27.3006 12 25.2004 12 21V20ZM24 10.5H25C27.1414 10.5 28.5972 10.5019 29.7224 10.5939C30.8184 10.6834 31.379 10.8457 31.77 11.045C32.7108 11.5243 33.4757 12.2892 33.955 13.23C34.1543 13.621 34.3166 14.1816 34.4061 15.2776C34.4981 16.4028 34.5 17.8586 34.5 20V21C34.5 23.1414 34.4981 24.5972 34.4061 25.7224C34.3166 26.8184 34.1543 27.379 33.955 27.77C33.4757 28.7108 32.7108 29.4757 31.77 29.955C31.379 30.1543 30.8184 30.3166 29.7224 30.4061C28.5972 30.4981 27.1414 30.5 25 30.5H24C21.8586 30.5 20.4028 30.4981 19.2776 30.4061C18.1816 30.3166 17.621 30.1543 17.23 29.955C16.2892 29.4757 15.5243 28.7108 15.045 27.77C14.8457 27.379 14.6834 26.8184 14.5939 25.7224C14.5019 24.5972 14.5 23.1414 14.5 21V20C14.5 17.8586 14.5019 16.4028 14.5939 15.2776C14.6834 14.1816 14.8457 13.621 15.045 13.23C15.5243 12.2892 16.2892 11.5243 17.23 11.045C17.621 10.8457 18.1816 10.6834 19.2776 10.5939C20.4028 10.5019 21.8586 10.5 24 10.5Z" fill="white"/>
<defs>
<filter id="filter0_d" x="0" y="0" width="49" height="49" filterUnits="userSpaceOnUse" color-interpolation-filters="sRGB">
<feFlood flood-opacity="0" result="BackgroundImageFix"/>
<feColorMatrix in="SourceAlpha" type="matrix" values="0 0 0 0 0 0 0 0 0 0 0 0 0 0 0 0 0 0 127 0"/>
<feOffset dy="4"/>
<feGaussianBlur stdDeviation="2"/>
<feColorMatrix type="matrix" values="0 0 0 0 0 0 0 0 0 0 0 0 0 0 0 0 0 0 0.14 0"/>
<feBlend mode="normal" in2="BackgroundImageFix" result="effect1_dropShadow"/>
<feBlend mode="normal" in="SourceGraphic" in2="effect1_dropShadow" result="shape"/>
</filter>
<radialGradient id="paint0_radial" cx="0" cy="0" r="1" gradientUnits="userSpaceOnUse" gradientTransform="translate(19.5 29.25) rotate(-55.3758) scale(31.8995)">
<stop stop-color="#B13589"/>
<stop offset="0.79309" stop-color="#C62F94"/>
<stop offset="1" stop-color="#8A3AC8"/>
</radialGradient>
<radialGradient id="paint1_radial" cx="0" cy="0" r="1" gradientUnits="userSpaceOnUse" gradientTransform="translate(18.25 39.25) rotate(-65.1363) scale(28.2428)">
<stop stop-color="#E0E8B7"/>
<stop offset="0.444662" stop-color="#FB8A2E"/>
<stop offset="0.71474" stop-color="#E2425C"/>
<stop offset="1" stop-color="#E2425C" stop-opacity="0"/>
</radialGradient>
<radialGradient id="paint2_radial" cx="0" cy="0" r="1" gradientUnits="userSpaceOnUse" gradientTransform="translate(5.125 4.25) rotate(-8.1301) scale(48.6136 10.3979)">
<stop offset="0.156701" stop-color="#406ADC"/>
<stop offset="0.467799" stop-color="#6A45BE"/>
<stop offset="1" stop-color="#6A45BE" stop-opacity="0"/>
</radialGradient>
</defs>
</svg>
