<svg width="49" height="49" viewBox="0 0 49 49" fill="none" xmlns="http://www.w3.org/2000/svg" preserveAspectRatio="none">
<g filter="url(#filter0_d)">
<rect x="7" y="3" width="35" height="35" rx="6" fill="#4D76A1"/>
<rect x="5.5" y="1.5" width="38" height="38" rx="7.5" stroke="white" stroke-width="3"/>
</g>
<path fill-rule="evenodd" clip-rule="evenodd" d="M20.3278 32.0577C21.809 32.6838 23.381 33 25 33C26.619 33 28.191 32.6807 29.6722 32.0514C31.1002 31.4472 32.3841 30.5831 33.4864 29.4811C34.5887 28.3791 35.453 27.0955 36.0574 25.6679C36.6837 24.1871 37 22.6154 37 20.9969C37 19.3783 36.6837 17.8067 36.0574 16.3259C35.453 14.8983 34.5887 13.6147 33.4864 12.5127C32.3841 11.4107 31.1002 10.5466 29.6722 9.94233C28.191 9.31619 26.619 9 25 9C23.381 9 21.809 9.31619 20.3278 9.94233C18.8967 10.5466 17.6159 11.4169 16.5136 12.5189C15.4113 13.6209 14.547 14.9045 13.9426 16.3321C13.3163 17.8129 13 19.3846 13 21.0031C13 22.6217 13.3163 24.1933 13.9426 25.6741C14.547 27.1017 15.4113 28.3853 16.5136 29.4873C17.6159 30.5893 18.8998 31.4534 20.3278 32.0577ZM25.2944 32.3112V29.1367H28.8518C28.4916 29.6094 28.0908 30.0634 27.6493 30.4954C26.5908 31.5286 25.6012 32.1328 25.2944 32.3112ZM22.3539 30.4735C21.9217 30.0509 21.5271 29.6032 21.1764 29.1367H24.6681V32.28C24.3142 32.0733 23.3653 31.4691 22.3539 30.4735ZM23.5219 32.2768C21.0887 31.9637 18.834 30.8774 17.0522 29.1367H20.4029C20.8413 29.7691 21.3549 30.3702 21.9311 30.9369C22.5261 31.5223 23.096 31.97 23.5219 32.2768ZM28.072 30.9557C28.6576 30.3859 29.1774 29.7754 29.6252 29.1367H32.9447C31.1691 30.8711 28.9238 31.9575 26.4969 32.2737C26.9415 31.9544 27.4958 31.516 28.072 30.9557ZM33.5428 28.5106H30.0355C30.0417 28.4981 30.048 28.4886 30.0574 28.4761C30.6869 27.4305 31.1284 26.316 31.3695 25.1576H35.5971C35.118 26.3754 34.4259 27.5087 33.5428 28.5106ZM29.2933 28.5106H25.2944V25.1544H30.7276C30.4958 26.1939 30.0919 27.1988 29.525 28.1412C29.4499 28.2664 29.3748 28.3885 29.2933 28.5106ZM24.6681 28.5106H20.7349C20.676 28.4223 20.62 28.3327 20.5649 28.2435C20.5379 28.1998 20.5111 28.1562 20.4843 28.113C19.9301 27.1769 19.5355 26.1844 19.31 25.1576H24.6681V28.5106ZM19.9958 28.5106H16.4572C15.571 27.5087 14.882 26.3754 14.4029 25.1544H18.6712C18.9061 26.3003 19.3382 27.4054 19.9551 28.4417C19.9676 28.4667 19.9833 28.4886 19.9958 28.5106ZM35.8194 24.5314H25.2944H24.6681H19.042H18.4H14.1774C13.8142 23.4044 13.6232 22.2178 13.6232 21C13.6232 19.7884 13.811 18.6081 14.1743 17.4873C14.1743 17.4873 16.6781 17.4873 18.4 17.4873C18.6507 17.4873 18.7913 17.4873 19.042 17.4873C21.1674 17.4873 24.6681 17.4873 24.6681 17.4873H25.2944H35.8257C36.189 18.605 36.3768 19.7884 36.3768 21C36.3768 22.2178 36.1858 23.4075 35.8194 24.5314ZM35.6033 16.8581L31.2662 16.8581C31.0313 15.7091 30.6023 14.5977 29.9854 13.5552C29.9763 13.5438 29.9688 13.5307 29.9618 13.5184C29.9592 13.5138 29.9566 13.5093 29.9541 13.5051H33.5585C34.4415 14.5069 35.1273 15.6402 35.6033 16.8581ZM30.6273 16.8581H25.2944V13.5019H29.2182C29.2962 13.6237 29.375 13.7465 29.4468 13.8714C30.0042 14.8169 30.4019 15.8218 30.6273 16.8581ZM24.6681 16.8581H19.2255C19.4572 15.8156 19.8643 14.8074 20.4374 13.8589C20.5094 13.7399 20.5846 13.6241 20.6629 13.5051H24.6681V16.8581ZM18.5835 16.8581L14.3967 16.8581C14.8727 15.6402 15.5585 14.5069 16.4415 13.5051H19.9238C19.9175 13.5114 19.9144 13.5176 19.9113 13.5239C19.2693 14.5758 18.8246 15.6966 18.5835 16.8581ZM32.9666 12.8789H29.5532C29.1117 12.2372 28.5981 11.6266 28.0219 11.0506C27.452 10.484 26.904 10.0394 26.4624 9.71693C28.9113 10.03 31.1785 11.1257 32.9666 12.8789ZM28.7829 12.8789H25.2944V9.68877C25.642 9.89539 26.5751 10.4996 27.5804 11.4952C28.0219 11.9366 28.4259 12.3968 28.7829 12.8789ZM24.6681 12.8789H21.1107C21.4771 12.3999 21.8873 11.9366 22.3413 11.5014C23.3497 10.5215 24.2985 9.92355 24.6681 9.70756V12.8789ZM20.334 12.8789H17.0334C18.8121 11.1352 21.0637 10.0425 23.4937 9.72319C23.0459 10.0425 22.4948 10.4777 21.9186 11.035C21.3205 11.6141 20.7912 12.2309 20.334 12.8789Z" fill="white"/>
<path d="M24.6681 17.4873V24.5314H25.2944V17.4873H24.6681Z" fill="white"/>
<path d="M19.042 24.5314C18.4 22.2 18.4 20.4 19.042 17.4873C18.7913 17.4873 18.6507 17.4873 18.4 17.4873C17.8 20.4 17.8 22.2 18.4 24.5314H19.042Z" fill="white"/>
<path d="M30.8189 24.5314C31.4608 22.2 31.4608 20.4 30.8189 17.4873C31.0696 17.4873 31.2101 17.4873 31.4608 17.4873C32.0608 20.4 32.0608 22.2 31.4608 24.5314H30.8189Z" fill="white"/>
<path d="M24.6681 17.4873V24.5314M24.6681 17.4873H25.2944M24.6681 17.4873C24.6681 17.4873 21.1674 17.4873 19.042 17.4873M24.6681 24.5314H25.2944M24.6681 24.5314H19.042M25.2944 24.5314H35.8194C36.1858 23.4075 36.3768 22.2178 36.3768 21C36.3768 19.7884 36.189 18.605 35.8257 17.4873H25.2944M25.2944 24.5314V17.4873M19.042 17.4873C18.7913 17.4873 18.6507 17.4873 18.4 17.4873M19.042 17.4873C18.4 20.4 18.4 22.2 19.042 24.5314M19.042 24.5314H18.4M18.4 24.5314H14.1774C13.8142 23.4044 13.6232 22.2178 13.6232 21C13.6232 19.7884 13.811 18.6081 14.1743 17.4873C14.1743 17.4873 16.6781 17.4873 18.4 17.4873M18.4 24.5314C17.8 22.2 17.8 20.4 18.4 17.4873M25 33C23.381 33 21.809 32.6838 20.3278 32.0577C18.8998 31.4534 17.6159 30.5893 16.5136 29.4873C15.4113 28.3853 14.547 27.1017 13.9426 25.6741C13.3163 24.1933 13 22.6217 13 21.0031C13 19.3846 13.3163 17.8129 13.9426 16.3321C14.547 14.9045 15.4113 13.6209 16.5136 12.5189C17.6159 11.4169 18.8967 10.5466 20.3278 9.94233C21.809 9.31619 23.381 9 25 9C26.619 9 28.191 9.31619 29.6722 9.94233C31.1002 10.5466 32.3841 11.4107 33.4864 12.5127C34.5887 13.6147 35.453 14.8983 36.0574 16.3259C36.6837 17.8067 37 19.3783 37 20.9969C37 22.6154 36.6837 24.1871 36.0574 25.6679C35.453 27.0955 34.5887 28.3791 33.4864 29.4811C32.3841 30.5831 31.1002 31.4472 29.6722 32.0514C28.191 32.6807 26.619 33 25 33ZM25.2944 29.1367V32.3112C25.6012 32.1328 26.5908 31.5286 27.6493 30.4954C28.0908 30.0634 28.4916 29.6094 28.8518 29.1367H25.2944ZM21.1764 29.1367C21.5271 29.6032 21.9217 30.0509 22.3539 30.4735C23.3653 31.4691 24.3142 32.0733 24.6681 32.28V29.1367H21.1764ZM17.0522 29.1367C18.834 30.8774 21.0887 31.9637 23.5219 32.2768C23.096 31.97 22.5261 31.5223 21.9311 30.9369C21.3549 30.3702 20.8413 29.7691 20.4029 29.1367H17.0522ZM29.6252 29.1367C29.1774 29.7754 28.6576 30.3859 28.072 30.9557C27.4958 31.516 26.9415 31.9544 26.4969 32.2737C28.9238 31.9575 31.1691 30.8711 32.9447 29.1367H29.6252ZM30.0355 28.5106H33.5428C34.4259 27.5087 35.118 26.3754 35.5971 25.1576H31.3695C31.1284 26.316 30.6869 27.4305 30.0574 28.4761C30.048 28.4886 30.0417 28.4981 30.0355 28.5106ZM25.2944 28.5106H29.2933C29.3748 28.3885 29.4499 28.2664 29.525 28.1412C30.0919 27.1988 30.4958 26.1939 30.7276 25.1544H25.2944V28.5106ZM20.7349 28.5106H24.6681V25.1576H19.31C19.5355 26.1844 19.9301 27.1769 20.4843 28.113C20.5111 28.1562 20.5379 28.1998 20.5649 28.2435C20.62 28.3327 20.676 28.4223 20.7349 28.5106ZM16.4572 28.5106H19.9958C19.9833 28.4886 19.9676 28.4667 19.9551 28.4417C19.3382 27.4054 18.9061 26.3003 18.6712 25.1544H14.4029C14.882 26.3754 15.571 27.5087 16.4572 28.5106ZM31.2662 16.8581L35.6033 16.8581C35.1273 15.6402 34.4415 14.5069 33.5585 13.5051H29.9541C29.9566 13.5093 29.9592 13.5138 29.9618 13.5184C29.9688 13.5307 29.9763 13.5438 29.9854 13.5552C30.6023 14.5977 31.0313 15.7091 31.2662 16.8581ZM25.2944 16.8581H30.6273C30.4019 15.8218 30.0042 14.8169 29.4468 13.8714C29.375 13.7465 29.2962 13.6237 29.2182 13.5019H25.2944V16.8581ZM19.2255 16.8581H24.6681V13.5051H20.6629C20.5846 13.6241 20.5094 13.7399 20.4374 13.8589C19.8643 14.8074 19.4572 15.8156 19.2255 16.8581ZM14.3967 16.8581L18.5835 16.8581C18.8246 15.6966 19.2693 14.5758 19.9113 13.5239C19.9144 13.5176 19.9175 13.5114 19.9238 13.5051H16.4415C15.5585 14.5069 14.8727 15.6402 14.3967 16.8581ZM29.5532 12.8789H32.9666C31.1785 11.1257 28.9113 10.03 26.4624 9.71693C26.904 10.0394 27.452 10.484 28.0219 11.0506C28.5981 11.6266 29.1117 12.2372 29.5532 12.8789ZM25.2944 12.8789H28.7829C28.4259 12.3968 28.0219 11.9366 27.5804 11.4952C26.5751 10.4996 25.642 9.89539 25.2944 9.68877V12.8789ZM21.1107 12.8789H24.6681V9.70756C24.2985 9.92355 23.3497 10.5215 22.3413 11.5014C21.8873 11.9366 21.4771 12.3999 21.1107 12.8789ZM17.0334 12.8789H20.334C20.7912 12.2309 21.3205 11.6141 21.9186 11.035C22.4948 10.4777 23.0459 10.0425 23.4937 9.72319C21.0637 10.0425 18.8121 11.1352 17.0334 12.8789ZM30.8189 17.4873C31.0696 17.4873 31.2101 17.4873 31.4608 17.4873C32.0608 20.4 32.0608 22.2 31.4608 24.5314H30.8189C31.4608 22.2 31.4608 20.4 30.8189 17.4873Z" stroke="white" stroke-width="0.8"/>
<defs>
<filter id="filter0_d" x="0" y="0" width="49" height="49" filterUnits="userSpaceOnUse" color-interpolation-filters="sRGB">
<feFlood flood-opacity="0" result="BackgroundImageFix"/>
<feColorMatrix in="SourceAlpha" type="matrix" values="0 0 0 0 0 0 0 0 0 0 0 0 0 0 0 0 0 0 127 0"/>
<feOffset dy="4"/>
<feGaussianBlur stdDeviation="2"/>
<feColorMatrix type="matrix" values="0 0 0 0 0 0 0 0 0 0 0 0 0 0 0 0 0 0 0.14 0"/>
<feBlend mode="normal" in2="BackgroundImageFix" result="effect1_dropShadow"/>
<feBlend mode="normal" in="SourceGraphic" in2="effect1_dropShadow" result="shape"/>
</filter>
</defs>
</svg>
