<svg width="49" height="49" viewBox="0 0 49 49" fill="none" xmlns="http://www.w3.org/2000/svg" preserveAspectRatio="none">
<g filter="url(#filter0_d)">
<rect x="7" y="3" width="35" height="35" rx="6" fill="#4D76A1"/>
<rect x="5.5" y="1.5" width="38" height="38" rx="7.5" stroke="white" stroke-width="3"/>
</g>
<path d="M33.1541 23.7788C32.8849 23.3891 32.8245 22.9945 32.9717 22.5948C33.3389 21.5284 38.6867 14.7548 36.4589 14.7548C34.928 14.7765 33.087 14.7548 31.6193 14.7548C31.3468 14.8256 31.1705 14.9781 31.0602 15.2884C30.202 17.3993 29.1518 19.9753 27.6126 21.6309C27.4101 21.805 27.2838 21.7976 27.0532 21.7332C25.9735 20.5207 27.1247 16.3668 26.4681 14.7254C26.3387 14.4041 26.0555 14.259 25.7657 14.1773C24.2999 13.8047 20.9521 14.0265 20.4059 14.7765C20.2497 14.991 20.2279 15.108 20.3407 15.1272C20.8611 15.2148 21.2295 15.4243 21.4464 15.7556C21.8555 16.7165 22.1569 21.8352 20.9521 21.8352C19.7473 21.8352 17.8044 16.8117 17.2707 15.4191C17.1286 14.9998 16.7671 14.7595 16.3861 14.6885L12.8216 14.7176C12.1951 14.7176 11.8449 15.0472 12.067 15.7114C13.9235 20.6271 17.9862 30.1552 24.2174 29.9166C24.8416 29.9166 25.9155 30.1723 26.403 29.595C27.0729 28.647 26.2559 26.9585 27.4047 26.3145C27.6944 26.1501 27.9947 26.2879 28.2436 26.4901C29.5215 27.5279 30.1999 29.3496 31.7757 29.9026C32.0528 30 32.2956 30.0243 32.504 29.9757L35.8342 29.9173C36.4525 29.9173 37.0615 29.6239 36.9336 28.8355C36.4481 27.1447 34.5135 25.4066 33.1541 23.7788Z" fill="white"/>
<defs>
<filter id="filter0_d" x="0" y="0" width="49" height="49" filterUnits="userSpaceOnUse" color-interpolation-filters="sRGB">
<feFlood flood-opacity="0" result="BackgroundImageFix"/>
<feColorMatrix in="SourceAlpha" type="matrix" values="0 0 0 0 0 0 0 0 0 0 0 0 0 0 0 0 0 0 127 0"/>
<feOffset dy="4"/>
<feGaussianBlur stdDeviation="2"/>
<feColorMatrix type="matrix" values="0 0 0 0 0 0 0 0 0 0 0 0 0 0 0 0 0 0 0.14 0"/>
<feBlend mode="normal" in2="BackgroundImageFix" result="effect1_dropShadow"/>
<feBlend mode="normal" in="SourceGraphic" in2="effect1_dropShadow" result="shape"/>
</filter>
</defs>
</svg>
