<svg width="38" height="36" viewBox="0 0 38 36" fill="none" xmlns="http://www.w3.org/2000/svg">
<path d="M3.3183 31.2413L2.64777 33.6976L5.1212 33.0935L9.74334 31.9648C12.3458 33.5717 15.4275 34.5 18.725 34.5C28.0007 34.5 35.5805 27.1456 35.5805 18C35.5805 8.85437 28.0007 1.5 18.725 1.5C9.44921 1.5 1.86938 8.85437 1.86938 18C1.86938 21.2658 2.84 24.3114 4.51105 26.8721L3.3183 31.2413Z" fill="url(#paint0_linear)" stroke="white" stroke-width="3"/>
<path d="M14.0049 9.7725C13.5683 8.92683 12.8986 9.00169 12.2221 9.00169C11.013 9.00169 9.12769 10.3985 9.12769 12.998C9.12769 15.1285 10.1011 17.4607 13.3811 20.9493C16.5466 24.3162 20.7058 26.0578 24.1588 25.9985C27.6117 25.9392 28.3222 23.0735 28.3222 22.1057C28.3222 21.6767 28.0462 21.4627 27.856 21.4046C26.6793 20.8599 24.5091 19.8451 24.0153 19.6544C23.5215 19.4638 23.2637 19.7217 23.1034 19.862C22.6556 20.2735 21.768 21.4865 21.4641 21.7593C21.1601 22.0321 20.707 21.894 20.5184 21.7909C19.8246 21.5224 17.9432 20.7153 16.4436 19.3132C14.5889 17.5792 14.48 16.9827 14.1306 16.4516C13.8511 16.0268 14.0562 15.7662 14.1586 15.6522C14.5582 15.2076 15.1099 14.521 15.3574 14.1798C15.6048 13.8387 15.4084 13.3207 15.2905 12.9981C14.7836 11.6105 14.3541 10.449 14.0049 9.7725Z" fill="white"/>
<defs>
<linearGradient id="paint0_linear" x1="32.1611" y1="6.75" x2="3.99836" y2="33.6583" gradientUnits="userSpaceOnUse">
<stop stop-color="#5BD066"/>
<stop offset="1" stop-color="#27B43E"/>
</linearGradient>
</defs>
</svg>
